<?xml version="1.0" encoding="utf-8"?>
<!-- Generator: Adobe Illustrator 24.3.0, SVG Export Plug-In . SVG Version: 6.00 Build 0)  -->
<svg version="1.1" id="Capa_1" xmlns="http://www.w3.org/2000/svg" xmlns:xlink="http://www.w3.org/1999/xlink" x="0px" y="0px"
	 width="769px" height="338px" viewBox="0 0 769 338" style="enable-background:new 0 0 769 338;" xml:space="preserve">
<style type="text/css">
	.st0{fill:#F7F7F7;stroke:#000000;stroke-width:0.25;stroke-linecap:round;stroke-linejoin:round;stroke-miterlimit:10;}
	.st1{fill:#E5E5E5;stroke:#000000;stroke-width:0.25;stroke-linecap:round;stroke-linejoin:round;stroke-miterlimit:10;}
	.st2{fill:#5E5E5E;}
	.st3{fill:none;stroke:#5E5E5E;stroke-width:0.5;stroke-linecap:round;stroke-linejoin:round;stroke-miterlimit:10;}
	.st4{font-family:'Rockwell-Bold';}
	.st5{font-size:12px;}
</style>
<rect x="0.7" y="0.1" class="st0" width="768.6" height="337.7"/>
<polygon class="st1" points="74.2,68.2 74.2,73.9 190.7,73.9 190.7,98.5 388.8,98.5 388.8,134.8 590.2,134.8 590.2,152.5 
	751.4,152.5 751.4,278.2 191,278.2 191,307.7 19.2,307.7 19.2,68.2 "/>
<rect x="90.6" y="83.1" class="st0" width="84.5" height="60.4"/>
<rect x="32.2" y="88.6" class="st0" width="38.6" height="60.8"/>
<rect x="303.2" y="108.5" class="st0" width="48.5" height="18.2"/>
<rect x="474.5" y="137.8" class="st0" width="70.4" height="16.1"/>
<rect x="636" y="159.9" class="st0" width="111.6" height="43.8"/>
<g>
	<rect x="16.4" y="129.8" class="st2" width="1.9" height="1.9"/>
	<rect x="70.7" y="129.8" class="st2" width="1.9" height="1.9"/>
	<rect x="125" y="129.8" class="st2" width="1.9" height="1.9"/>
	<rect x="185.3" y="129.7" class="st2" width="1.9" height="1.9"/>
	<rect x="251.5" y="129.5" class="st2" width="2.7" height="2.7"/>
	<rect x="324" y="129.3" class="st2" width="2.7" height="2.7"/>
	<rect x="16.4" y="277.1" class="st2" width="1.9" height="1.9"/>
	<rect x="70.6" y="277.3" class="st2" width="1.9" height="1.9"/>
	<rect x="185.4" y="277.2" class="st2" width="1.9" height="1.9"/>
	<path class="st2" d="M735.4,274.8c-0.6,0-1,0.5-1,1s0.5,1,1,1c0.6,0,1-0.5,1-1S735.9,274.8,735.4,274.8z M735.8,276.4h-0.1v-0.5
		h-0.5v0.5H735v-1.1h0.1v0.5h0.5v-0.5h0.1V276.4z"/>
	<path class="st2" d="M653.8,274.6c-0.6,0-1,0.5-1,1s0.5,1,1,1c0.6,0,1-0.5,1-1S654.4,274.6,653.8,274.6z M654.3,276.2h-0.1v-0.5
		h-0.5v0.5h-0.1v-1.1h0.1v0.5h0.5v-0.5h0.1V276.2z"/>
	<path class="st2" d="M547.6,274.5c-0.6,0-1,0.5-1,1s0.5,1,1,1c0.6,0,1-0.5,1-1S548.2,274.5,547.6,274.5z M548,276.1h-0.1v-0.5h-0.5
		v0.5h-0.1V275h0.1v0.5h0.5V275h0.1V276.1z"/>
	<path class="st2" d="M455,274.8c-0.6,0-1,0.5-1,1s0.5,1,1,1c0.6,0,1-0.5,1-1S455.6,274.8,455,274.8z M455.4,276.4h-0.1v-0.5h-0.5
		v0.5h-0.1v-1.1h0.1v0.5h0.5v-0.5h0.1V276.4z"/>
	<path class="st2" d="M325.1,274.7c-0.6,0-1,0.5-1,1s0.5,1,1,1c0.6,0,1-0.5,1-1S325.7,274.7,325.1,274.7z M325.5,276.3h-0.1v-0.5
		h-0.5v0.5h-0.1v-1.1h0.1v0.5h0.5v-0.5h0.1V276.3z"/>
	<path class="st2" d="M227,274.6c-0.6,0-1,0.5-1,1s0.5,1,1,1c0.6,0,1-0.5,1-1S227.6,274.6,227,274.6z M227.4,276.2h-0.1v-0.5h-0.5
		v0.5h-0.1v-1.1h0.1v0.5h0.5v-0.5h0.1V276.2z"/>
	<path class="st2" d="M129.2,274.7c-0.6,0-1,0.5-1,1s0.5,1,1,1c0.6,0,1-0.5,1-1S129.8,274.7,129.2,274.7z M129.6,276.3h-0.1v-0.5
		h-0.5v0.5h-0.1v-1.1h0.1v0.5h0.5v-0.5h0.1V276.3z"/>
	<path class="st2" d="M16.8,280.2c-0.6,0-1,0.5-1,1s0.5,1,1,1c0.6,0,1-0.5,1-1S17.3,280.2,16.8,280.2z M17.2,281.8H17v-0.5h-0.5v0.5
		h-0.1v-1.1h0.1v0.5H17v-0.5h0.1V281.8z"/>
	<path class="st2" d="M27.7,304.4c-0.6,0-1,0.5-1,1s0.5,1,1,1c0.6,0,1-0.5,1-1S28.3,304.4,27.7,304.4z M28.1,306H28v-0.5h-0.5v0.5
		h-0.1v-1.1h0.1v0.5H28v-0.5h0.1V306z"/>
	<path class="st2" d="M702.9,150.2c-0.6,0-1,0.5-1,1s0.5,1,1,1c0.6,0,1-0.5,1-1S703.5,150.2,702.9,150.2z M703.3,151.8h-0.1v-0.5
		h-0.5v0.5h-0.1v-1.1h0.1v0.5h0.5v-0.5h0.1V151.8z"/>
	<path class="st2" d="M651.3,152.4c-0.6,0-1,0.5-1,1s0.5,1,1,1c0.6,0,1-0.5,1-1S651.9,152.4,651.3,152.4z M651.7,154h-0.1v-0.5H651
		v0.5h-0.1v-1.1h0.1v0.5h0.5v-0.5h0.1V154z"/>
	<path class="st2" d="M539.4,132c-0.6,0-1,0.5-1,1s0.5,1,1,1c0.6,0,1-0.5,1-1S539.9,132,539.4,132z M539.8,133.6h-0.1v-0.5h-0.5v0.5
		h-0.1v-1.1h0.1v0.5h0.5v-0.5h0.1V133.6z"/>
	<path class="st2" d="M452,134.3c-0.6,0-1,0.5-1,1s0.5,1,1,1c0.6,0,1-0.5,1-1S452.6,134.3,452,134.3z M452.4,135.9h-0.1v-0.5h-0.5
		v0.5h-0.1v-1.1h0.1v0.5h0.5v-0.5h0.1V135.9z"/>
	<path class="st2" d="M328.5,95.9c-0.6,0-1,0.5-1,1s0.5,1,1,1c0.6,0,1-0.5,1-1S329.1,95.9,328.5,95.9z M329,97.5h-0.1V97h-0.5v0.5
		h-0.1v-1.1h0.1v0.5h0.5v-0.5h0.1V97.5z"/>
	<path class="st2" d="M248.8,93.8c-0.6,0-1,0.5-1,1s0.5,1,1,1c0.6,0,1-0.5,1-1S249.3,93.8,248.8,93.8z M249.2,95.4H249v-0.5h-0.5
		v0.5h-0.1v-1.1h0.1v0.5h0.5v-0.5h0.1V95.4z"/>
	<path class="st2" d="M130.7,74.1c-0.6,0-1,0.5-1,1s0.5,1,1,1c0.6,0,1-0.5,1-1S131.3,74.1,130.7,74.1z M131.1,75.7H131v-0.5h-0.5
		v0.5h-0.1v-1.1h0.1v0.5h0.5v-0.5h0.1V75.7z"/>
	<path class="st2" d="M126,127.1c-0.6,0-1,0.5-1,1c0,0.6,0.5,1,1,1c0.6,0,1-0.5,1-1C127,127.6,126.6,127.1,126,127.1z M126.4,128.7
		h-0.1v-0.5h-0.5v0.5h-0.1v-1.1h0.1v0.5h0.5v-0.5h0.1V128.7z"/>
	<path class="st2" d="M17.4,70.8c-0.6,0-1,0.5-1,1s0.5,1,1,1c0.6,0,1-0.5,1-1S18,70.8,17.4,70.8z M17.8,72.4h-0.1v-0.5h-0.5v0.5H17
		v-1.1h0.1v0.5h0.5v-0.5h0.1V72.4z"/>
	<path class="st2" d="M17.5,127.3c-0.6,0-1,0.5-1,1c0,0.6,0.5,1,1,1c0.6,0,1-0.5,1-1C18.5,127.7,18.1,127.3,17.5,127.3z M17.9,128.9
		h-0.1v-0.5h-0.5v0.5h-0.1v-1.1h0.1v0.5h0.5v-0.5h0.1V128.9z"/>
</g>
<g>
	<path class="st2" d="M335.4,116c-0.2,0.2-0.5,0.5-0.7,0.7c-0.1,0.1-0.1,0.1-0.2,0.1c-1.5,0-2.9,0-4.4,0c-0.1,0-0.2,0-0.1-0.1
		c0-0.2,0-0.3,0-0.5c0-0.1,0-0.1,0.1-0.1C331.8,116,333.5,116,335.4,116C335.3,116,335.3,116,335.4,116z"/>
	<g>
		<path class="st2" d="M327.5,123.8c-7.1,0-14.2,0-21.3,0c-0.2,0-0.2,0-0.2-0.2c0-0.3,0-0.3,0.3-0.3c14.2,0,28.4,0,42.6,0
			c0.2,0,0.2,0,0.2,0.2c0,0.3,0,0.3-0.3,0.3C341.6,123.8,334.6,123.8,327.5,123.8z"/>
		<path class="st2" d="M312.6,118.1c-1,1.3-2,2.5-2.9,3.7c-1-1.2-1.9-2.5-2.9-3.7c0,0.1,0,0.1,0,0.2c0,1,0,2.1,0,3.1
			c0,0.2,0,0.2-0.2,0.2c-0.2,0-0.3,0-0.5,0c-0.1,0-0.2,0-0.2-0.2c0-1.3,0-2.6,0-3.9c0-0.6,0-1.2,0-1.8c0.1,0,0.1,0.1,0.1,0.1
			c1.2,1.5,2.3,3,3.5,4.6c0.1,0.1,0.1,0.1,0.2,0c1.2-1.6,2.4-3.1,3.6-4.7c0.1,0.1,0,0.1,0,0.2c0,1.8,0,3.7,0,5.5
			c0,0.2,0,0.2-0.2,0.2c-0.1,0-0.3,0-0.4,0c-0.2,0-0.2,0-0.2-0.2c0-1,0-2.1,0-3.1C312.6,118.3,312.6,118.3,312.6,118.1z"/>
		<path class="st2" d="M345,119.6c0.2-0.2,0.3-0.5,0.4-0.7c0-0.1,0.1-0.1,0.2-0.1c0.5,0,1,0,1.5,0c0,0,0.1,0,0.1,0
			c0.7-0.1,0.9-0.6,0.8-1.2c-0.1-0.3-0.2-0.5-0.5-0.6c-0.4-0.1-0.7-0.1-1.1-0.1c-0.6,0-1.3,0-1.9,0c-0.1,0-0.2,0-0.2,0.2
			c0,1.5,0,3,0,4.5c0,0.3,0,0.3-0.3,0.3c-0.1,0-0.2,0-0.4,0c-0.1,0-0.2,0-0.2-0.2c0-1.5,0-3,0-4.5c0-0.3,0-0.6,0-0.9
			c0-0.1,0-0.1,0.1-0.1c1,0,2,0,3,0c0.4,0,0.8,0.1,1.1,0.2c0.8,0.3,1.1,0.9,1,1.7c-0.1,1-0.6,1.5-1.7,1.7c-0.2,0-0.4,0-0.6,0
			C346.1,119.6,345.6,119.6,345,119.6z"/>
		<path class="st2" d="M342.1,115.9c0,0.1,0,0.1,0,0.2c0,1.2,0,2.5,0,3.7c0,0.8-0.4,1.4-1.1,1.7c-0.8,0.3-1.6,0.3-2.4,0.3
			c-0.6,0-1.1-0.2-1.5-0.5c-0.5-0.3-0.7-0.8-0.7-1.4c0-1.2,0-2.5,0-3.7c0-0.1,0-0.2,0.2-0.2c0.2,0,0.3,0,0.5,0c0.1,0,0.1,0,0.1,0.1
			c0,0.6,0,1.2,0,1.8c0,0.6,0,1.2,0,1.9c0,0.4,0.2,0.7,0.5,0.9c0.3,0.2,0.6,0.3,1,0.3c0.6,0.1,1.2,0.1,1.8-0.2
			c0.2-0.1,0.4-0.2,0.6-0.4c0.2-0.2,0.3-0.4,0.3-0.7c0-1,0-2.1,0-3.1c0-0.1,0-0.2,0.1-0.2C341.7,116.3,341.9,116,342.1,115.9
			C342.1,115.8,342.1,115.9,342.1,115.9z"/>
		<path class="st2" d="M330.9,114.5c0.1-0.2,0.2-0.3,0.4-0.5c0.1-0.1,0.1,0,0.2,0c2.2,0,4.4,0,6.5,0c1.1,0,2.2,0,3.3,0
			c2.5,0,5,0,7.5,0c0.1,0,0.2,0,0.2,0.2c0,0.4,0,0.4-0.4,0.4c-5.8,0-11.7,0-17.5,0C331.1,114.5,331,114.5,330.9,114.5z"/>
		<path class="st2" d="M317.9,117.3c-0.3,0.6-0.7,1.1-1,1.6c-0.6,0.9-1.1,1.8-1.7,2.6c-0.1,0.1-0.1,0.1-0.2,0.1c-0.3,0-0.5,0-0.8,0
			c0-0.1,0-0.1,0-0.1c1.2-1.9,2.4-3.7,3.6-5.6c0.1-0.1,0.1-0.1,0.2,0c1.2,1.9,2.4,3.7,3.6,5.6c0,0,0,0,0,0.1c-0.3,0-0.6,0-0.9,0
			c-0.1,0-0.1-0.1-0.1-0.1c-0.8-1.3-1.7-2.7-2.5-4C318,117.5,318,117.4,317.9,117.3z"/>
		<path class="st2" d="M323.5,113.9c-0.1,0.2-0.2,0.3-0.3,0.5c0,0.1-0.1,0.1-0.1,0.1c-0.1,0-0.2,0-0.3,0c-5.6,0-11.1,0-16.7,0
			c-0.2,0-0.3,0-0.2-0.2c0-0.3,0-0.3,0.3-0.3c2.6,0,5.2,0,7.9,0c3.1,0,6.2,0,9.3,0C323.4,113.9,323.4,113.9,323.5,113.9z"/>
		<path class="st2" d="M324.9,118.7c1.4,1,2.8,2,4.2,3c0,0,0,0,0,0c-0.1,0-0.2,0-0.3,0c-0.4,0-0.8,0.1-1.1,0
			c-0.3-0.1-0.6-0.4-0.9-0.6c-1-0.7-2-1.4-3.1-2.2c-0.1,0-0.1-0.1-0.2-0.1c0.4-0.3,0.8-0.5,1.1-0.8c0.9-0.6,1.9-1.3,2.8-1.9
			c0.1-0.1,0.2-0.1,0.3-0.1c0.3,0,0.7,0,1,0C327.5,116.9,326.2,117.8,324.9,118.7z"/>
		<path class="st2" d="M322.5,118.8c0-0.9,0-1.8,0-2.6c0-0.1,0-0.2,0.2-0.2c0.2,0,0.5-0.1,0.6,0c0.1,0.1,0,0.4,0,0.6
			c0,1.6,0,3.3,0,4.9c0,0.1,0,0.2-0.2,0.2c-0.2,0-0.5,0.1-0.6,0c-0.1-0.1,0-0.4,0-0.6C322.5,120.3,322.5,119.6,322.5,118.8z"/>
		<path class="st2" d="M335.4,120.9c-0.3,0.3-0.5,0.5-0.7,0.7c-0.1,0.1-0.1,0-0.2,0c-1.5,0-3,0-4.5,0c-0.1,0-0.2,0-0.2-0.2
			c0-0.2,0-0.3,0-0.5c0-0.1,0-0.1,0.1-0.1c0,0,0.1,0,0.1,0c1.7,0,3.4,0,5.1,0C335.3,120.9,335.3,120.9,335.4,120.9z"/>
		<path class="st2" d="M335.2,118.3c-0.3,0.3-0.5,0.5-0.7,0.7c0,0-0.1,0-0.2,0c-1.4,0-2.8,0-4.2,0c-0.1,0-0.2,0-0.1-0.1
			c0-0.2,0-0.3,0-0.5c0-0.1,0-0.1,0.1-0.1c0.3,0,0.6,0,1,0C332.4,118.3,333.8,118.3,335.2,118.3z"/>
		<path class="st2" d="M326,112.6c-0.1,0.2-0.2,0.4-0.4,0.5c0,0.1-0.1,0.1-0.1,0.1c-0.4,0-0.8,0-1.3,0c-0.1,0-0.1,0-0.1-0.1
			c0-0.4,0-0.4,0.4-0.4C325,112.6,325.4,112.6,326,112.6z"/>
		<path class="st2" d="M318.4,120.3c0,0.3-0.2,0.5-0.5,0.5c-0.3,0-0.5-0.2-0.5-0.5c0-0.3,0.2-0.5,0.5-0.5
			C318.2,119.8,318.4,120,318.4,120.3z"/>
		<path class="st2" d="M330,112.7c-0.1,0-0.1,0-0.2,0c-0.2,0-0.3,0-0.5-0.1c-0.2-0.1-0.3-0.2-0.2-0.4c0-0.2,0.1-0.2,0.3-0.2
			c0.3,0,0.5,0,0.8,0c0.1,0,0.1,0,0.2-0.1c0.1-0.2,0.2-0.3,0.3-0.5c-0.4,0-0.8,0-1.2,0c-0.1,0-0.1,0-0.2,0c-0.4,0-0.7,0.3-0.9,0.7
			c-0.2-0.5-0.6-0.7-1.2-0.7c-0.9,0-1.9,0-2.8,0c-0.4,0-0.4,0-0.4,0.4c0,0.1,0,0.1,0.1,0.1c0.4,0,0.8,0,1.3,0c0.3,0,0.5,0,0.7-0.3
			c0,0,0-0.1,0-0.1c0.1,0,0,0.1,0,0.1c0,0.3,0,0.5,0,0.8c0,0,0,0.1,0,0.1c0,0,0,0,0,0c0,0,0,0,0,0c0.2-0.1,0.4-0.2,0.5-0.3
			c0.1-0.1,0.1-0.1,0-0.2c0-0.1,0-0.2,0.1-0.1c0.2,0,0.3,0,0.5,0c0.2,0,0.4,0.2,0.4,0.4c0,0.2-0.2,0.3-0.4,0.3c-0.4,0-0.7,0-1.1,0
			c-0.2,0-0.2,0-0.2,0.2c0,0.3,0,0.6,0,1c0,0.1,0.1,0.1,0.1,0.1c0.1-0.1,0.2-0.1,0.3-0.2c0.1-0.1,0.3-0.2,0.2-0.4
			c0-0.1,0-0.1,0.1-0.1c0.3,0,0.5,0,0.8,0c0.2,0,0.3,0.1,0.3,0.3c0,0.2-0.1,0.3-0.2,0.4c-0.1,0-0.1,0.1-0.2,0.1c-0.4,0-0.7,0-1.1,0
			c-0.1,0-0.2,0-0.3,0c-0.6,0-1.2,0-1.8,0c-0.4,0-0.4,0-0.4,0.4c0,0.1,0,0.2,0.2,0.2c1.8,0,3.6,0,5.4,0c0.1,0,0.2,0,0.2,0
			c0.5-0.1,0.8-0.5,0.8-0.9C330.8,113.1,330.5,112.8,330,112.7z M330.1,113.6c0,0.2-0.1,0.3-0.3,0.3c-0.3,0-0.6,0-0.9,0
			c-0.1,0-0.3,0-0.3,0c-0.1-0.1,0-0.2,0-0.3c0-0.3-0.1-0.5-0.3-0.7c-0.1-0.1-0.1-0.1,0-0.2c0-0.1,0.1-0.1,0.1-0.2
			c0.1,0.6,0.6,0.6,1.1,0.7c0.1,0,0.2,0,0.3,0C330,113.3,330.1,113.4,330.1,113.6z"/>
	</g>
</g>
<g>
	<path class="st2" d="M690.5,134.5c0.2-0.2,0.3-0.4,0.5-0.6c0.3-0.3,0.2-0.5,0-0.8c-0.1,0.3-0.2,0.5-0.3,0.7
		c-0.2,0.4-0.5,0.8-1.1,0.8c-0.5,0.1-0.9-0.1-1-0.5c-0.1-0.4,0-0.8,0.4-1.1c0.1-0.1,0.2-0.1,0.3-0.2c-0.5-0.4-0.1-1-0.2-1.5
		c0,0,0.1-0.1,0.1-0.1c0,0,0.1,0,0.1,0.1c0,0,0,0.1,0.1,0.2c0.1,0,0.2,0,0.3,0c0.2,0,0.4,0,0.6,0c0.2,0.1,0.4,0.2,0.3,0.5
		c0,0.3-0.2,0.4-0.5,0.4c-0.2,0-0.4-0.1-0.6-0.1c0,0,0,0-0.1,0.1c0.1,0.1,0.3,0.2,0.4,0.3c0.1,0.1,0.1,0.1,0.2,0.2
		c-0.1,0-0.1,0.1-0.2,0.1c-0.2,0.1-0.5,0.2-0.7,0.3c-0.1,0.1-0.2,0.5-0.1,0.6c0.1,0.1,0.4,0.2,0.6,0.2c0.4,0,0.6-0.4,0.8-0.7
		c0.1-0.2,0.1-0.4,0.3-0.6c0.1-0.1,0.3-0.3,0.4-0.3c0.1,0,0.3,0.2,0.4,0.3c0,0,0.1,0.1,0.1,0.2c0.3-0.1,0.4-0.6,0.9-0.4
		c-0.2,0.2-0.3,0.5-0.5,0.7c-0.2,0.2-0.2,0.4-0.1,0.6c0.1,0.3,0.2,0.3,0.4,0.1c0.1-0.1,0.2-0.3,0.3-0.5c0.1-0.2,0.1-0.4,0.2-0.7
		c0.1-0.3,0.2-0.4,0.5-0.3c0.1,0,0.2,0,0.3,0c0.4-0.1,0.8,0.1,0.8,0.5c0,0.3-0.1,0.5-0.1,0.8c0.3,0,0.4-0.3,0.4-0.5
		c0.1-0.4,0.4-0.7,0.8-0.8c0.6-0.2,1,0.2,0.9,0.8c0,0.2-0.1,0.3-0.1,0.5c0,0,0,0,0.1,0.1c0.1-0.1,0.2-0.3,0.3-0.4
		c0.1-0.1,0.2-0.1,0.2-0.1c0,0.1,0,0.2,0,0.3c-0.2,0.3-0.4,0.6-0.8,0.6c-0.1,0-0.2,0-0.3,0.1c-0.6,0.3-0.9,0.3-1.3-0.3
		c-0.3,0.1-0.6,0.3-1,0.4c-0.2,0.1-0.5,0-0.8,0c-0.1,0.4-0.2,0.8-0.3,1.3c0,0,0,0.1,0.1,0.2c0.4,0.7,0.3,1.2-0.4,1.7
		c0,0-0.1,0.1-0.1,0.1c0.1,0.3,0.3,0.5,0.7,0.5c0.1,0,0.2,0.1,0.2,0.2c0,0,0,0.1,0,0.2c0,0.4,0,0.4-0.5,0.4c-0.3,0-0.6,0-0.8,0
		c-0.2,0-0.3-0.1-0.3-0.3c0-0.4-0.3-0.6-0.5-0.8c-0.1-0.1-0.2,0-0.4,0c0,0-0.1,0.2,0,0.2c0.1,0.1,0.2,0.1,0.2,0.2
		c0.1,0.1,0.2,0.2,0.2,0.3c0,0.2,0.1,0.4-0.2,0.5c-0.6,0.1-1.2,0.1-1.8,0.2c0-0.2-0.1-0.4-0.1-0.6c0-0.2,0-0.2,0.2-0.3
		c0.1,0,0.2-0.2,0.2-0.2c0-0.5-0.1-1-0.2-1.5c0-0.2-0.1-0.3-0.3-0.2c-0.2,0.1-0.3,0-0.3-0.2c0-0.1-0.1-0.2,0-0.3
		c0-0.1,0.1-0.2,0.2-0.2c1-0.1,2.1-0.1,3.1-0.2c0.1,0,0.2,0,0.4,0.1c0.1-0.4,0.2-0.7,0.2-1.1c-0.6,0.1-0.6,0.1-0.9-0.4
		C691.1,134.3,691,134.7,690.5,134.5z M690.2,136.7c0,0.6,0,0.6,0.6,0.5c0.1,0,0.3,0,0.4-0.1c0.2,0,0.4-0.2,0.4-0.4
		c0-0.2-0.2-0.4-0.4-0.4c-0.2,0-0.4,0-0.5,0C690.3,136.3,690.2,136.4,690.2,136.7z M693.9,133.3c0-0.3-0.2-0.4-0.5-0.3
		c-0.4,0.1-0.4,0.5-0.5,0.8c-0.1,0.2,0,0.3,0.2,0.4c0.2,0,0.3,0,0.4-0.2c0-0.1,0.1-0.1,0.1-0.2C693.7,133.6,693.8,133.5,693.9,133.3
		z M695.9,133.4c0-0.3-0.2-0.5-0.4-0.4c-0.3,0.1-0.6,0.8-0.5,1.1c0,0.1,0.1,0.2,0.2,0.2c0.1,0,0.2-0.1,0.2-0.2
		c0.1-0.1,0.1-0.2,0.1-0.2C695.7,133.6,695.8,133.5,695.9,133.4z M689.7,131.8c0,0.1,0,0.1,0,0.2c0.2,0,0.3,0,0.5,0
		c0-0.1,0-0.1,0-0.2C690,131.8,689.9,131.8,689.7,131.8z"/>
	<path class="st2" d="M687.1,143.5c-2.5,0.7-4.9,1.6-7.3,2.9c0.3,0.4,0.5,0.8,0.8,1.2c0,0.1,0.1,0.1,0.2,0.1c0.1,0,0.2,0,0.3,0.1
		c0.2,0.1,0.4,0.2,0.4,0.4c0,0.1-0.2,0.3-0.3,0.5c0.1,0.2,0.2,0.4,0.6,0.5c0.1,0,0.1,0,0.2,0c0.2,0,0.4,0.1,0.3,0.4
		c-0.1,0.2-0.2,0.3-0.5,0.3c-0.5-0.2-0.9-0.5-1.2-1c-0.1-0.1-0.2-0.3-0.4-0.3c-2.1-0.4-4.1-1.2-5.9-2.3c-0.9-0.5-1.7-1.1-2.5-1.7
		c-0.3-0.2-0.5-0.5-0.7-0.8c-0.2-0.4-0.1-0.8,0.2-1c0.3-0.2,0.6-0.1,0.9,0.2c1.7,1.6,3.5,3,5.7,3.9c0.5,0.2,1,0.4,1.5,0.6
		c0.1,0,0.2,0,0.4,0.1c-0.2-0.3-0.4-0.6-0.6-0.9c-0.2-0.3-0.4-0.7-0.7-1c-0.2-0.2-0.2-0.4,0.2-0.5c0.1,0,0.2-0.1,0.3-0.1
		c0.2,0.3,0.5,0.6,0.7,1c0.1,0.2,0.2,0.2,0.4,0.1c2.2-1.1,4.4-2,6.7-2.7c0.1,0,0.2,0,0.3-0.1C687,143.4,687,143.4,687.1,143.5z"/>
	<path class="st2" d="M682.5,139.2c0.1,0,0.1,0.1,0.2,0.1c0.8,0.4,0.9,1.2,0.2,1.7c-0.3,0.3-0.8,0.5-1.2,0.7
		c-0.5,0.3-0.9,0.5-1.4,0.7c-0.2,0.1-0.3,0.2-0.4-0.1c-0.1-0.2-0.4-0.4-0.1-0.6c0.2-0.1,0.1-0.2,0.1-0.3c-0.2-0.4-0.5-0.9-0.7-1.3
		c-0.1-0.2-0.2-0.3-0.4-0.1c-0.1,0-0.2,0-0.3-0.1c-0.1-0.1-0.2-0.2-0.2-0.3c0-0.1,0-0.3,0-0.3c0.9-0.5,1.8-0.9,2.7-1.4
		c0.1,0,0.1,0,0.2,0c0.4-0.1,0.8-0.1,1.1,0.2C682.7,138.4,682.7,138.8,682.5,139.2z M682.2,140.3c0-0.3-0.2-0.4-0.4-0.4
		c-0.3,0.1-0.6,0.3-0.9,0.4c0,0-0.1,0.2,0,0.3c0.1,0.1,0.2,0.3,0.3,0.3c0.3-0.1,0.6-0.3,0.9-0.4
		C682.1,140.5,682.2,140.4,682.2,140.3z M681.5,139.1c-0.1-0.3-0.2-0.3-0.4-0.3c-0.3,0.1-0.6,0.2-0.8,0.4c-0.1,0,0,0.3,0,0.4
		c0,0.1,0.2,0.1,0.2,0.1c0.3-0.1,0.5-0.3,0.8-0.4C681.4,139.2,681.5,139.1,681.5,139.1z"/>
	<path class="st2" d="M703.3,140.2c-0.2,0.2-0.2,0.3,0,0.5c0.2,0.1,0.1,0.3,0,0.4c-0.1,0.1-0.1,0.4-0.4,0.3c-0.5-0.2-1-0.4-1.5-0.6
		c-0.1,0-0.1-0.1-0.1-0.2c0-0.1,0-0.1,0.1-0.2c0.2-0.4,0.2-0.4,0.6-0.3c0.2-0.6,0.4-1.1,0.7-1.7c0-0.1-0.1-0.2-0.2-0.2
		c-0.4-0.1-0.1-0.4-0.1-0.6c0.1-0.2,0.2-0.3,0.4-0.2c0.7,0.3,1.4,0.6,2,0.9c0.3,0.2,0.6,0.4,0.9,0.6c0.3,0.3,0.4,0.7,0.3,1.1
		c-0.2,0.5-0.5,0.8-1,0.7c-0.1,0-0.3,0.1-0.2,0.1c0,0.2,0.1,0.4,0.2,0.6c0,0.1,0.1,0.1,0.2,0.1c0.2,0.1,0.2,0.2,0.1,0.3
		c0,0,0,0,0,0.1c-0.3,0.5-0.3,0.5-0.7,0.2c-0.2-0.1-0.4-0.2-0.7-0.3c-0.2-0.1-0.3-0.2-0.1-0.4C704,140.9,703.8,140.4,703.3,140.2z
		 M705,139.3c-0.1-0.1-0.2-0.2-0.3-0.3c-0.1-0.1-0.3-0.1-0.5-0.2c-0.2-0.2-0.3-0.1-0.5,0.1c-0.3,0.5-0.3,0.5,0.3,0.8
		c0.1,0,0.3,0.1,0.4,0.1C704.8,139.9,705,139.7,705,139.3z"/>
	<path class="st2" d="M684.4,137.6c-0.4,0-0.6-0.2-0.6-0.6c0-0.1,0.1-0.2,0.1-0.2c0.6-0.2,1.2-0.4,1.9-0.5c0.1,0,0.3,0.1,0.3,0.1
		c0.5,0.6,1.1,1.3,1.6,1.9c0.1,0.2,0.3,0.3,0.6,0.3c0.3,0,0.2,0.3,0.3,0.5c0,0.2,0,0.3-0.2,0.3c-0.5,0.1-0.9,0.2-1.3,0.3
		c-0.1,0-0.3,0-0.3-0.1c0-0.2,0-0.4,0-0.6c0-0.1,0.1-0.2,0.1-0.2c-0.1,0-0.2-0.1-0.3-0.1c-0.3,0.1-0.6,0.1-0.9,0.2
		c-0.1,0-0.2,0.2-0.3,0.2c0.1,0,0.2,0.1,0.2,0.1c0.1,0.2,0.2,0.3,0.3,0.5c0,0.1-0.1,0.2-0.2,0.2c-0.5,0.2-0.9,0.3-1.4,0.5
		c-0.1,0-0.2-0.1-0.3-0.1c-0.1-0.1-0.1-0.2-0.2-0.4c-0.1,1-0.9,1.3-1.6,1.7c-0.5,0.2-0.9,0.5-1.3,0.7c-0.1,0-0.2,0.1-0.3,0.1
		c0,0,0-0.1-0.1-0.1c0.1-0.1,0.2-0.1,0.3-0.2c0.7-0.3,1.3-0.7,2-1c0.3-0.2,0.6-0.4,0.7-0.8c0.1-0.3,0-0.5,0-0.9
		c0.1,0.1,0.1,0.2,0.2,0.3c0.3-0.1,0.5-0.2,0.5-0.6c0-0.5,0.2-0.9,0.2-1.4C684.4,137.8,684.4,137.7,684.4,137.6z M685.5,137.4
		c0,0.3-0.1,0.5-0.1,0.9c0.3-0.1,0.4-0.2,0.6-0.2c-0.1-0.1-0.2-0.3-0.3-0.4C685.7,137.5,685.6,137.5,685.5,137.4z"/>
	<path class="st2" d="M693.9,136.3c-0.4-0.1-0.6-0.4-0.4-0.7c0-0.1,0.2-0.1,0.3-0.1c0.9,0.1,1.7,0.1,2.6,0.2c0.2,0,0.3,0.1,0.5,0.1
		c0.8,0.3,1.2,1.1,0.3,1.7c0,0.1,0,0.1,0.1,0.2c0.5,0.7,0.1,1.5-0.7,1.6c-0.3,0-0.6,0-0.9,0c-0.7,0-1.3-0.1-2-0.2
		c-0.2,0-0.3-0.1-0.3-0.3c0-0.2-0.1-0.6,0.4-0.5c0,0,0.1-0.1,0.1-0.1C693.8,137.5,693.9,136.9,693.9,136.3z M695.9,138.5
		c0.2,0,0.4-0.1,0.4-0.3c0-0.3-0.2-0.4-0.4-0.4c-0.2,0-0.5-0.1-0.7-0.1c-0.3,0-0.2,0.2-0.3,0.4c0,0.2,0,0.3,0.2,0.3
		C695.4,138.4,695.6,138.5,695.9,138.5z M695.7,137c0.1,0,0.1,0,0.2,0c0.2,0,0.4,0,0.5-0.2c0-0.3-0.2-0.3-0.4-0.4
		c-0.2,0-0.5-0.1-0.7-0.1c-0.1,0-0.2,0.1-0.2,0.1c-0.1,0.4-0.1,0.5,0.3,0.5C695.5,137,695.6,137,695.7,137z"/>
	<path class="st2" d="M700.2,139.4c0.2-0.1,0.3-0.3,0.3-0.3c0.2,0,0.4,0.1,0.7,0.2c0,0,0,0.1,0,0.2c-0.1,0.3-0.2,0.5-0.3,0.8
		c-0.1,0.2-0.2,0.2-0.3,0.2c-1-0.3-1.9-0.5-2.9-0.8c-0.2-0.1-0.3-0.2-0.2-0.3c0.1-0.2-0.1-0.5,0.4-0.5c0.1,0,0.2-0.1,0.3-0.2
		c0.1-0.5,0.2-1,0.3-1.5c0-0.1-0.1-0.2-0.2-0.3c-0.3-0.2-0.1-0.4-0.1-0.6c0-0.2,0.2-0.2,0.4-0.2c1,0.3,2.1,0.6,3.1,0.8
		c0.3,0.1,0.3,0.2,0.2,0.4c0,0.1-0.1,0.2-0.1,0.3c-0.2,0.6-0.2,0.6-0.8,0.4c-0.1-0.1-0.3-0.1-0.2-0.3c0-0.1-0.1-0.2-0.2-0.2
		c-0.2-0.1-0.4-0.1-0.6-0.2c-0.2,0-0.3-0.1-0.3,0.2c0,0.2-0.1,0.3,0.2,0.4c0.1,0,0.2,0,0.2,0.1c0.5,0.1,0.5,0.1,0.3,0.6
		c-0.1,0.2-0.2,0.3-0.4,0.2c-0.1-0.1-0.3-0.1-0.4-0.1c-0.2,0-0.3,0-0.3,0.2c0,0.2,0.1,0.3,0.2,0.3
		C699.8,139.2,700,139.3,700.2,139.4C700.3,139.4,700.3,139.4,700.2,139.4z"/>
	<path class="st2" d="M696.8,143.4c0.1-0.1,0.2-0.3,0.4-0.4c0.1-0.1,0.1-0.1,0.2-0.1c0,0.1,0,0.2,0,0.2c-0.2,0.3-0.4,0.6-0.8,0.6
		c-0.1,0-0.3,0.1-0.4,0.1c-0.4,0.2-0.6,0.2-0.9-0.1c-0.2,0.1-0.4,0.2-0.6,0.2c-0.2,0-0.4-0.2-0.6-0.2c0,0,0-0.1,0-0.1
		c-0.3,0.1-0.6,0.2-0.9,0.3c-0.4,0.2-0.7,0.1-1.1-0.3c-0.1,0.1-0.2,0.2-0.3,0.2c-0.2,0.1-0.4,0.1-0.6,0.1c-0.1,0-0.1-0.3-0.1-0.5
		c0-0.2,0.1-0.5,0.2-0.7c0-0.1,0-0.2,0-0.4c-0.4,0.1-0.6,0.4-0.7,0.7c-0.1,0.2-0.1,0.4-0.2,0.6c0,0.1-0.2,0.2-0.3,0.2
		c-0.1-0.1-0.2-0.2-0.1-0.3c0.2-0.9,0.5-1.7,0.8-2.6c0-0.1,0.2-0.2,0.3-0.2c0.2,0,0.1,0.2,0.1,0.3c-0.1,0.3-0.2,0.6-0.3,0.9
		c0.1,0,0.1,0,0.1,0c0.2-0.1,0.5-0.3,0.7-0.1c0.2,0.2,0.1,0.4,0.1,0.7c-0.1,0.3-0.1,0.5-0.2,0.8c0,0,0.1,0,0.1,0.1
		c0.2-0.3,0.3-0.5,0.5-0.8c0.2-0.2,0.3-0.5,0.6-0.7c0.3-0.2,0.6-0.3,0.9,0c0.3,0.2,0.3,0.5,0.2,0.8c0,0.1-0.1,0.3-0.1,0.4
		c0,0,0.1,0,0.1,0.1c0.1-0.2,0.3-0.3,0.3-0.5c0.1-0.2,0.2-0.4,0.2-0.7c0.1-0.2,0.2-0.3,0.3-0.2c0.1,0,0.1,0.2,0.1,0.3
		c-0.1,0.3-0.2,0.6-0.3,1c0,0.1,0,0.2,0,0.2c0.1,0,0.2,0,0.3-0.1c0.2-0.2,0.3-0.4,0.4-0.6c0.1-0.2,0.1-0.4,0.2-0.6
		c0.1-0.1,0.2-0.1,0.3-0.2c0,0.1,0.1,0.2,0.1,0.3c-0.1,0.3-0.2,0.7-0.3,1c0,0.1,0.1,0.2,0.1,0.2c0.1-0.1,0.2-0.1,0.2-0.2
		c0.1-0.1,0.2-0.2,0.2-0.3c0.1-0.3,0.2-0.5,0.3-0.8c0.1-0.2,0-0.4,0.3-0.3c0.2,0,0.2,0.2,0.2,0.4
		C696.9,142.8,696.8,143.1,696.8,143.4C696.7,143.4,696.7,143.4,696.8,143.4z M693.5,142.7c-0.1-0.3-0.2-0.4-0.4-0.3
		c-0.3,0.1-0.6,0.8-0.5,1.1c0,0.1,0.2,0.2,0.2,0.2c0.1,0,0.1-0.1,0.2-0.2c0-0.1,0.1-0.1,0.1-0.2
		C693.3,143.1,693.4,142.9,693.5,142.7z"/>
	<path class="st2" d="M675.7,139.7c-0.1,0.1-0.1,0.1-0.2,0.1c0.1,0.1,0.3,0.2,0.4,0.3c0,0-0.1,0.1-0.1,0.1c0.3,0.4,0.5,0.7,0.7,1
		c0.1,0.1,0.1,0.2,0,0.4c0.1,0.1,0.3,0.2,0.4,0.2c0,0-0.1,0.1-0.1,0.2c0.3,0.1,0.4,0.2,0.3,0.5c0,0.1,0.1,0.2,0.1,0.2
		c0.1,0.1,0.2,0.1,0.3,0.2c-0.3,0.6,0.3,0.5,0.4,0.7c0,0-0.1,0.1-0.1,0.1c0.2,0.2,0.3,0.4,0.5,0.6c0,0-0.1,0.1-0.2,0.1
		c0.1,0.1,0.2,0.2,0.3,0.2c-0.4,0.5-0.9,0.5-1.2,0c-1-1.3-1.8-2.7-2.5-4.2C674.9,140,675.1,139.7,675.7,139.7z"/>
	<path class="st2" d="M676.2,138.5c-0.1-0.1-0.1-0.2-0.2-0.3c3.4-2,7-3.6,10.9-4.5c0.1,0.3,0,0.4-0.2,0.4c-3.5,0.9-6.8,2.3-9.9,4
		C676.6,138.3,676.4,138.4,676.2,138.5z"/>
	<path class="st2" d="M709.2,138.2c-0.1,0.3-0.2,0.3-0.4,0.2c-2.4-1.4-4.9-2.6-7.5-3.4c-0.9-0.3-1.8-0.5-2.8-0.8
		c-0.2-0.1-0.4-0.1-0.2-0.4C702.2,134.6,705.8,136.2,709.2,138.2z"/>
	<path class="st2" d="M688.5,143c-0.1,0.3,0,0.6,0.3,0.6c0.2,0,0.4,0,0.5-0.2c0.2-0.2,0.2-0.5,0-0.7c-0.2-0.2-0.3-0.4-0.5-0.6
		c-0.3-0.3-0.3-0.7-0.1-1c0.2-0.3,0.6-0.4,1-0.3c0.3,0.1,0.5,0.4,0.5,0.7c0,0.1-0.1,0.1-0.2,0.2c-0.1-0.1-0.1-0.1-0.2-0.2
		c-0.1-0.3-0.3-0.4-0.5-0.3c-0.2,0.1-0.3,0.3-0.1,0.6c0.1,0.2,0.3,0.4,0.5,0.7c0.3,0.4,0.3,0.8,0.1,1.2c-0.2,0.3-0.9,0.5-1.3,0.3
		c-0.4-0.2-0.6-0.8-0.4-1.2c0-0.1,0.1-0.1,0.2-0.1C688.4,142.7,688.5,142.9,688.5,143z"/>
	<path class="st2" d="M705.5,146.2c0,0-0.1,0-0.1,0c-2.3-1.2-4.6-2.1-7.1-2.8c0,0,0-0.1,0-0.1c2.5,0.6,4.9,1.6,7.2,2.8
		C705.5,146.2,705.5,146.2,705.5,146.2z"/>
	<path class="st2" d="M697.8,139.8c0.2,0,0.4,0.1,0.6,0.1c0.7,0.2,1.5,0.4,2.2,0.7c0.2,0.1,0.4,0,0.4-0.2c0-0.1,0.1-0.2,0.1-0.4
		c0-0.1,0.1-0.2,0.2-0.4c0,0.1,0.1,0.2,0.1,0.2c-0.1,0.3-0.2,0.6-0.3,0.9c0,0.1-0.2,0.1-0.2,0.1c-1-0.3-2-0.6-3-0.9
		C697.9,139.9,697.8,139.9,697.8,139.8C697.8,139.8,697.8,139.8,697.8,139.8z"/>
	<path class="st2" d="M693.6,139.2c0.1,0,0.2,0,0.3,0c0.6,0.1,1.2,0.1,1.8,0.2c0.5,0,1,0.1,1.4-0.3c0.2-0.2,0.3-0.4,0.5-0.6
		c0.1,0.5-0.3,1-1,1.1c-0.3,0-0.7,0-1.1,0c-0.6,0-1.1-0.1-1.7-0.2C693.8,139.4,693.7,139.4,693.6,139.2
		C693.6,139.3,693.6,139.3,693.6,139.2z"/>
	<path class="st2" d="M701.6,140.9c0.3,0.1,0.5,0.2,0.8,0.3c0.1,0,0.2,0.1,0.3,0.2c0.5,0.2,0.5,0.2,0.8-0.2c0,0,0.1,0,0.2,0
		c-0.1,0.2-0.2,0.4-0.3,0.5c0,0.1-0.2,0-0.3,0c-0.4-0.2-0.9-0.4-1.3-0.6c-0.1,0-0.1-0.1-0.2-0.1
		C701.5,140.9,701.6,140.9,701.6,140.9z"/>
	<path class="st2" d="M686.4,136.4c0.6,0.6,1.2,1.3,1.7,2.1c0,0-0.1,0-0.1,0.1C687.5,137.9,686.9,137.2,686.4,136.4
		C686.4,136.5,686.4,136.4,686.4,136.4z"/>
	<path class="st2" d="M689.3,139.4c0.3,0,0.7-0.1,1-0.1c0.1,0,0.2,0,0.4,0c0.3,0,0.4-0.1,0.4-0.4c0-0.1,0-0.1,0-0.2c0,0,0.1,0,0.1,0
		c0,0.2,0.1,0.4,0,0.6c0,0.1-0.2,0.2-0.3,0.2c-0.5,0.1-1.1,0.1-1.6,0.2C689.3,139.5,689.3,139.5,689.3,139.4z"/>
	<path class="st2" d="M684.4,140.6c0.1,0,0.2-0.1,0.4-0.1c0.2,0,0.3-0.1,0.5-0.1c0.6-0.2,0.6-0.2,0.6-0.8c0,0,0.1,0,0.1,0
		c0.1,0.2,0.2,0.4,0.2,0.6c0,0.1-0.2,0.2-0.3,0.2c-0.4,0.1-0.8,0.2-1.2,0.4C684.6,140.7,684.5,140.7,684.4,140.6
		C684.4,140.7,684.4,140.7,684.4,140.6z"/>
	<path class="st2" d="M688.8,138.9c0,0.2,0.1,0.4,0.1,0.6c0,0.1-0.3,0.1-0.4,0.2c-0.3,0.1-0.6,0.1-0.8,0.2c-0.1,0-0.2,0-0.3,0
		c0,0,0-0.1,0-0.1c0.2-0.1,0.5-0.1,0.7-0.2c0.1,0,0.3-0.1,0.4-0.1c0.3,0,0.4-0.1,0.3-0.4c0-0.1,0-0.2,0-0.2
		C688.7,138.9,688.7,138.9,688.8,138.9z"/>
	<path class="st2" d="M705.5,142c0,0.3-0.2,0.4-0.3,0.6c0,0-0.2,0-0.4-0.1c-0.3-0.1-0.5-0.3-0.7-0.4c-0.1-0.1-0.2-0.1-0.3-0.2
		c0,0,0-0.1,0-0.1c0.1,0,0.1,0,0.2,0c0.3,0.1,0.5,0.3,0.8,0.4c0.2,0.1,0.3,0.1,0.5-0.1C705.3,142.2,705.4,142.1,705.5,142
		C705.4,142,705.5,142,705.5,142z"/>
	<path class="st2" d="M691.7,139.2c0.2,0,0.4,0,0.6,0c0.1,0,0.2,0,0.4,0c0.2,0,0.4-0.1,0.4-0.3c0-0.1,0-0.2,0-0.3c0,0,0.1,0,0.1,0
		c0,0.2,0,0.5,0,0.7c0,0.1-0.2,0.1-0.4,0.1c-0.4,0-0.7,0-1.1,0C691.7,139.3,691.7,139.3,691.7,139.2z"/>
	<path class="st2" d="M701,138.1c0.1,0,0.1,0,0.1,0c0.6,0.2,0.6,0.2,0.8-0.5c0-0.1,0.1-0.2,0.1-0.3c0,0,0.1,0,0.1,0
		c0,0.1,0,0.2,0,0.3c0,0.1-0.1,0.2-0.1,0.3C701.8,138.6,701.5,138.6,701,138.1z"/>
	<path class="st2" d="M700.8,138.4c0,0.1,0,0.3-0.1,0.4c-0.1,0.1-0.3,0.2-0.5,0.2c-0.2,0-0.4-0.1-0.7-0.1c0,0,0.1-0.2,0.2-0.2
		c0.1,0,0.3,0,0.4,0.1c0.4,0.1,0.4,0.1,0.6-0.3c0-0.1,0.1-0.1,0.1-0.2C700.7,138.4,700.7,138.4,700.8,138.4z"/>
	<path class="st2" d="M692.2,137.8c0.6-0.3,0.7-0.7,0.7-1.3c0.2,0.4,0.1,0.9-0.2,1.2C692.5,137.9,692.4,137.9,692.2,137.8z"/>
	<path class="st2" d="M706.3,140.1c-0.1,0.7-0.8,1.1-1.3,0.8C705.6,140.9,706,140.7,706.3,140.1z"/>
	<path class="st2" d="M682.8,139.1c0-0.3,0-0.6,0-0.9C683,138.5,683.1,138.9,682.8,139.1z"/>
	<path class="st2" d="M686.6,139c-0.4,0.1-0.7,0.2-1.1,0.3c0,0,0-0.1,0-0.1c0.4-0.1,0.7-0.2,1.1-0.3
		C686.5,138.9,686.6,139,686.6,139z"/>
	<path class="st2" d="M700.6,137.7c-0.3,0-0.5,0-0.8-0.1c0-0.1,0-0.3,0.2-0.2c0.2,0.1,0.4,0.1,0.6,0.2
		C700.6,137.6,700.6,137.7,700.6,137.7z"/>
	<path class="st2" d="M697.8,136.8c0,0.3,0,0.6-0.3,0.8c0,0-0.1,0-0.2,0c0-0.1,0-0.1,0.1-0.2C697.5,137.3,697.7,137,697.8,136.8z"/>
	<path class="st2" d="M691.3,136.5c-0.1,0-0.2,0.1-0.3,0.1c-0.3,0-0.4,0.1-0.4,0.4c0,0,0,0.1,0,0.1c0,0-0.1,0-0.1,0
		c0-0.2,0-0.4-0.1-0.6c0.3,0,0.6,0,0.9,0C691.3,136.5,691.3,136.5,691.3,136.5z"/>
	<path class="st2" d="M681.9,140.2c-0.2,0.3-0.8,0.1-0.7,0.7c0,0-0.1,0-0.1,0c-0.1-0.1-0.2-0.2-0.2-0.3c0-0.1,0.1-0.2,0.2-0.2
		c0.2-0.1,0.5-0.2,0.7-0.3C681.9,140.1,681.9,140.1,681.9,140.2z"/>
	<path class="st2" d="M681.3,139c-0.3,0.2-0.5,0.4-0.8,0.5c-0.2-0.1-0.2-0.2,0.1-0.3C680.8,139.1,681,139,681.3,139
		C681.2,138.9,681.3,138.9,681.3,139z"/>
	<path class="st2" d="M703.8,139.4c0.1-0.2,0.1-0.4,0.2-0.6c0.3,0.1,0.6,0.3,0.8,0.4c0,0,0,0.1-0.1,0.1c-0.2-0.1-0.4-0.2-0.7-0.3
		c-0.1,0.1-0.2,0.3-0.3,0.4C703.9,139.4,703.8,139.4,703.8,139.4z"/>
	<path class="st2" d="M696,138c-0.3,0.1-0.7-0.3-0.9,0.2c-0.1-0.4-0.1-0.5,0.3-0.5C695.6,137.9,695.9,137.9,696,138
		C696.1,138,696,138,696,138z"/>
	<path class="st2" d="M695.2,136.9c-0.1-0.3-0.1-0.4,0.2-0.4c0.2,0,0.5,0.1,0.7,0.1C695.9,136.8,695.5,136.5,695.2,136.9z"/>
</g>
<g>
	<path class="st3" d="M187.7,309.1v16l23.2-1.3c0,0,16.7-1.2,22-3.7c0,0,50.8-12.9,64.1-6.8v8.3"/>
	<path class="st3" d="M313.8,321.8v-6.8c0,0,14.7,0.5,19.8,3.4c0,0,41.2,9.8,66.2,6.6c0,0,21.7-1.3,37-5.6c0,0,23.2-5.8,24.2-4v7.7"
		/>
	<path class="st3" d="M477.4,321.8v-8.2c0,0,15.4-3,43.9,2.5c0,0,56.7,13.5,83.8,8.3c0,0,34-3.3,44.3-7.7c0,0,21.1-5.5,24-2.9v7.2"
		/>
	<path class="st3" d="M751.9,277h1.8c0,0-0.1-1.7-1.8-1.8c0,0,1.4,0.2,2-1.9h-2"/>
	<line class="st3" x1="751.4" y1="278.8" x2="751.4" y2="308.5"/>
	<line class="st3" x1="714.2" y1="308.5" x2="714.2" y2="322.4"/>
	<line class="st3" x1="697.7" y1="313.5" x2="697.7" y2="321.8"/>
	<path class="st3" d="M702.2,277.9c0,0-11.8-4.8-28.6-0.2v5.9c0,0,2.4,0.2,2.4-2.5c0,0,0.4,2.6,2.5,2.5V281h0.2v2.5
		c0,0,1.9,0.2,2.3-2.5c0,0-0.1,2.3,2.2,2.5v-2.4h0.4v2.4c0,0,1.8,0.2,1.9-2.5c0,0,0.8,2.7,2.4,2.5V281h0.4v2.5c0,0,1.8,0.5,2-2.5
		c0,0,0,2.9,2.4,2.5v-2.6h0.4v2.7c0,0,2,0,2.1-2.7c0,0,0.1,2.6,2.3,2.6v-2.6h0.2v2.7c0,0,2.1-0.1,2.3-2.6c0,0,0,2,2.3,2.5
		L702.2,277.9z"/>
	<path class="st3" d="M637.1,278.6v1.8c0,0,1.7-0.1,1.8-1.8c0,0-0.2,1.4,1.9,2v-2"/>
	<path class="st3" d="M535.9,278.3v1.8c0,0,1.7-0.1,1.8-1.8c0,0-0.2,1.4,1.9,2v-2"/>
	<path class="st3" d="M438.2,278.4v1.8c0,0,1.7-0.1,1.8-1.8c0,0-0.2,1.4,1.9,2v-2"/>
	<path class="st3" d="M335.7,278.5v1.8c0,0,1.7-0.1,1.8-1.8c0,0-0.2,1.4,1.9,2v-2"/>
	<path class="st3" d="M238.7,278.5v1.8c0,0,1.7-0.1,1.8-1.8c0,0-0.2,1.4,1.9,2v-2"/>
	<path class="st3" d="M502,277.6c0,0-11.8-4.8-28.6-0.2v5.9c0,0,2.4,0.2,2.4-2.5c0,0,0.4,2.6,2.5,2.5v-2.5h0.2v2.5
		c0,0,1.9,0.2,2.3-2.5c0,0-0.1,2.3,2.2,2.5v-2.4h0.4v2.4c0,0,1.8,0.2,1.9-2.5c0,0,0.8,2.7,2.4,2.5v-2.5h0.4v2.5c0,0,1.8,0.5,2-2.5
		c0,0,0,2.9,2.4,2.5v-2.6h0.4v2.7c0,0,2,0,2.1-2.7c0,0,0.1,2.6,2.3,2.6v-2.6h0.2v2.7c0,0,2.1-0.1,2.3-2.6c0,0,0,2,2.3,2.5L502,277.6
		z"/>
	<path class="st3" d="M303.7,276.2c0,0-11.8-4.8-28.6-0.2v5.9c0,0,2.4,0.2,2.4-2.5c0,0,0.4,2.6,2.5,2.5v-2.5h0.2v2.5
		c0,0,1.9,0.2,2.3-2.5c0,0-0.1,2.3,2.2,2.5v-2.4h0.4v2.4c0,0,1.8,0.2,1.9-2.5c0,0,0.8,2.7,2.4,2.5v-2.5h0.4v2.5c0,0,1.8,0.5,2-2.5
		c0,0,0,2.9,2.4,2.5v-2.6h0.4v2.7c0,0,2,0,2.1-2.7c0,0,0.1,2.6,2.3,2.6v-2.6h0.2v2.7c0,0,2.1-0.1,2.3-2.6c0,0,0,2,2.3,2.5
		L303.7,276.2z"/>
</g>
<path class="st3" d="M189.7,290.3c0,0-2.4,5.9-0.1,14.3h3c0,0,0.1-1.2-1.3-1.2c0,0,1.3-0.2,1.3-1.3h-1.3V302h1.3
	c0,0,0.1-0.9-1.3-1.1c0,0,1.1,0,1.3-1.1h-1.2v-0.2h1.2c0,0,0.1-0.9-1.3-1c0,0,1.3-0.4,1.3-1.2h-1.3v-0.2h1.3c0,0,0.2-0.9-1.3-1
	c0,0,1.5,0,1.3-1.2h-1.3v-0.2h1.3c0,0,0-1-1.3-1.1c0,0,1.3-0.1,1.3-1.1h-1.3v-0.1h1.3c0,0,0-1-1.3-1.1c0,0,1,0,1.3-1.1L189.7,290.3z
	"/>
<g>
	<circle class="st3" cx="252.7" cy="306.2" r="1.5"/>
	<circle class="st3" cx="270.6" cy="306.2" r="1.5"/>
	<circle class="st3" cx="307.2" cy="306.2" r="1.5"/>
	<circle class="st3" cx="325.8" cy="306.2" r="1.5"/>
	<circle class="st3" cx="385.6" cy="306.2" r="1.5"/>
	<circle class="st3" cx="391.6" cy="306.2" r="1.5"/>
	<circle class="st3" cx="452.1" cy="306.2" r="1.5"/>
	<circle class="st3" cx="470.1" cy="306.2" r="1.5"/>
	<circle class="st3" cx="506.4" cy="306.2" r="1.5"/>
	<circle class="st3" cx="524.5" cy="306.2" r="1.5"/>
	<circle class="st3" cx="585" cy="306.2" r="1.5"/>
	<circle class="st3" cx="591" cy="306.2" r="1.5"/>
	<circle class="st3" cx="651.3" cy="306.2" r="1.5"/>
	<circle class="st3" cx="669.5" cy="306.2" r="1.5"/>
	<circle class="st3" cx="705.6" cy="306.2" r="1.5"/>
	<circle class="st3" cx="723.7" cy="306.2" r="1.5"/>
</g>
<g>
	<path class="st2" d="M637.4,125.7c0.7,0.4,1.6,0.7,2.6,0.7c1.5,0,2.4-0.8,2.4-2c0-1.1-0.6-1.7-2.2-2.3c-1.9-0.7-3-1.6-3-3.2
		c0-1.8,1.5-3.1,3.7-3.1c1.2,0,2,0.3,2.5,0.6l-0.4,1.2c-0.4-0.2-1.1-0.5-2.2-0.5c-1.6,0-2.2,0.9-2.2,1.7c0,1.1,0.7,1.6,2.3,2.2
		c1.9,0.7,2.9,1.7,2.9,3.4c0,1.8-1.3,3.3-4,3.3c-1.1,0-2.3-0.3-2.9-0.7L637.4,125.7z"/>
	<path class="st2" d="M650.5,127.5l-0.1-1h-0.1c-0.5,0.6-1.3,1.2-2.5,1.2c-1.7,0-2.5-1.2-2.5-2.4c0-2,1.8-3.1,4.9-3.1v-0.2
		c0-0.7-0.2-1.9-1.9-1.9c-0.8,0-1.6,0.2-2.1,0.6l-0.3-1c0.7-0.4,1.7-0.7,2.7-0.7c2.5,0,3.1,1.7,3.1,3.4v3.1c0,0.7,0,1.4,0.1,2H650.5
		z M650.3,123.3c-1.6,0-3.5,0.3-3.5,1.8c0,1,0.6,1.4,1.4,1.4c1.1,0,1.7-0.7,2-1.4c0.1-0.2,0.1-0.3,0.1-0.5V123.3z"/>
	<path class="st2" d="M654.1,115.5h1.5v12h-1.5V115.5z"/>
	<path class="st2" d="M662.7,127.5l-0.1-1h-0.1c-0.5,0.6-1.3,1.2-2.5,1.2c-1.7,0-2.5-1.2-2.5-2.4c0-2,1.8-3.1,4.9-3.1v-0.2
		c0-0.7-0.2-1.9-1.9-1.9c-0.8,0-1.6,0.2-2.1,0.6l-0.3-1c0.7-0.4,1.7-0.7,2.7-0.7c2.5,0,3.1,1.7,3.1,3.4v3.1c0,0.7,0,1.4,0.1,2H662.7
		z M662.4,123.3c-1.6,0-3.5,0.3-3.5,1.8c0,1,0.6,1.4,1.4,1.4c1.1,0,1.7-0.7,2-1.4c0.1-0.2,0.1-0.3,0.1-0.5V123.3z"/>
	<path class="st2" d="M668.6,128.2l4.7-12.3h1.2l-4.8,12.3H668.6z"/>
	<path class="st2" d="M680.8,116.1v4.8h5.5v-4.8h1.5v11.4h-1.5v-5.4h-5.5v5.4h-1.5v-11.4H680.8z"/>
	<path class="st2" d="M694.9,127.5l-0.1-1h-0.1c-0.5,0.6-1.3,1.2-2.5,1.2c-1.7,0-2.5-1.2-2.5-2.4c0-2,1.8-3.1,4.9-3.1v-0.2
		c0-0.7-0.2-1.9-1.9-1.9c-0.8,0-1.6,0.2-2.1,0.6l-0.3-1c0.7-0.4,1.7-0.7,2.7-0.7c2.5,0,3.1,1.7,3.1,3.4v3.1c0,0.7,0,1.4,0.1,2H694.9
		z M694.7,123.3c-1.6,0-3.5,0.3-3.5,1.8c0,1,0.6,1.4,1.4,1.4c1.1,0,1.7-0.7,2-1.4c0.1-0.2,0.1-0.3,0.1-0.5V123.3z"/>
	<path class="st2" d="M698.5,115.5h1.5v12h-1.5V115.5z"/>
	<path class="st2" d="M702.5,115.5h1.5v12h-1.5V115.5z"/>
	<path class="st2" d="M712.1,123.9l-1.2,3.6h-1.5l3.9-11.4h1.8l3.9,11.4h-1.6l-1.2-3.6H712.1z M715.8,122.8l-1.1-3.3
		c-0.3-0.7-0.4-1.4-0.6-2.1h0c-0.2,0.7-0.4,1.4-0.6,2.1l-1.1,3.3H715.8z"/>
</g>
<g>
	<path class="st2" d="M449.9,115.5c0.7,0.4,1.6,0.7,2.6,0.7c1.5,0,2.4-0.8,2.4-2c0-1.1-0.6-1.7-2.2-2.3c-1.9-0.7-3-1.6-3-3.2
		c0-1.8,1.5-3.1,3.7-3.1c1.2,0,2,0.3,2.5,0.6l-0.4,1.2c-0.4-0.2-1.1-0.5-2.2-0.5c-1.6,0-2.2,0.9-2.2,1.7c0,1.1,0.7,1.6,2.3,2.2
		c1.9,0.7,2.9,1.7,2.9,3.4c0,1.8-1.3,3.3-4,3.3c-1.1,0-2.3-0.3-2.9-0.7L449.9,115.5z"/>
	<path class="st2" d="M463,117.3l-0.1-1h-0.1c-0.5,0.6-1.3,1.2-2.5,1.2c-1.7,0-2.5-1.2-2.5-2.4c0-2,1.8-3.1,4.9-3.1v-0.2
		c0-0.7-0.2-1.9-1.9-1.9c-0.8,0-1.6,0.2-2.1,0.6l-0.3-1c0.7-0.4,1.7-0.7,2.7-0.7c2.5,0,3.1,1.7,3.1,3.4v3.1c0,0.7,0,1.4,0.1,2H463z
		 M462.8,113.1c-1.6,0-3.5,0.3-3.5,1.8c0,1,0.6,1.4,1.4,1.4c1.1,0,1.7-0.7,2-1.4c0.1-0.2,0.1-0.3,0.1-0.5V113.1z"/>
	<path class="st2" d="M466.6,105.3h1.5v12h-1.5V105.3z"/>
	<path class="st2" d="M475.2,117.3l-0.1-1H475c-0.5,0.6-1.3,1.2-2.5,1.2c-1.7,0-2.5-1.2-2.5-2.4c0-2,1.8-3.1,4.9-3.1v-0.2
		c0-0.7-0.2-1.9-1.9-1.9c-0.8,0-1.6,0.2-2.1,0.6l-0.3-1c0.7-0.4,1.7-0.7,2.7-0.7c2.5,0,3.1,1.7,3.1,3.4v3.1c0,0.7,0,1.4,0.1,2H475.2
		z M475,113.1c-1.6,0-3.5,0.3-3.5,1.8c0,1,0.6,1.4,1.4,1.4c1.1,0,1.7-0.7,2-1.4c0.1-0.2,0.1-0.3,0.1-0.5V113.1z"/>
	<path class="st2" d="M481.2,118l4.7-12.3h1.2l-4.8,12.3H481.2z"/>
	<path class="st2" d="M493.4,105.9v4.8h5.5v-4.8h1.5v11.4h-1.5v-5.4h-5.5v5.4h-1.5v-11.4H493.4z"/>
	<path class="st2" d="M507.4,117.3l-0.1-1h-0.1c-0.5,0.6-1.3,1.2-2.5,1.2c-1.7,0-2.5-1.2-2.5-2.4c0-2,1.8-3.1,4.9-3.1v-0.2
		c0-0.7-0.2-1.9-1.9-1.9c-0.8,0-1.6,0.2-2.1,0.6l-0.3-1c0.7-0.4,1.7-0.7,2.7-0.7c2.5,0,3.1,1.7,3.1,3.4v3.1c0,0.7,0,1.4,0.1,2H507.4
		z M507.2,113.1c-1.6,0-3.5,0.3-3.5,1.8c0,1,0.6,1.4,1.4,1.4c1.1,0,1.7-0.7,2-1.4c0.1-0.2,0.1-0.3,0.1-0.5V113.1z"/>
	<path class="st2" d="M511.1,105.3h1.5v12h-1.5V105.3z"/>
	<path class="st2" d="M515.1,105.3h1.5v12h-1.5V105.3z"/>
	<path class="st2" d="M522.7,106c0.6-0.1,1.7-0.2,2.7-0.2c1.5,0,2.4,0.3,3.1,0.8c0.6,0.4,1,1.1,1,2c0,1.1-0.7,2.1-1.9,2.5v0
		c1.1,0.3,2.4,1.2,2.4,2.9c0,1-0.4,1.7-1,2.3c-0.8,0.7-2.1,1.1-4,1.1c-1,0-1.8-0.1-2.3-0.1V106z M524.2,110.7h1.3
		c1.6,0,2.5-0.8,2.5-1.9c0-1.3-1-1.9-2.5-1.9c-0.7,0-1.1,0.1-1.3,0.1V110.7z M524.2,116.2c0.3,0.1,0.7,0.1,1.2,0.1
		c1.5,0,2.9-0.6,2.9-2.2c0-1.6-1.3-2.2-3-2.2h-1.2V116.2z"/>
</g>
<g>
	<path class="st2" d="M247.9,66.9c0.7,0.4,1.6,0.7,2.6,0.7c1.5,0,2.4-0.8,2.4-2c0-1.1-0.6-1.7-2.2-2.3c-1.9-0.7-3-1.6-3-3.2
		c0-1.8,1.5-3.1,3.7-3.1c1.2,0,2,0.3,2.5,0.6l-0.4,1.2c-0.4-0.2-1.1-0.5-2.2-0.5c-1.6,0-2.2,0.9-2.2,1.7c0,1.1,0.7,1.6,2.3,2.2
		c1.9,0.7,2.9,1.7,2.9,3.4c0,1.8-1.3,3.3-4,3.3c-1.1,0-2.3-0.3-2.9-0.7L247.9,66.9z"/>
	<path class="st2" d="M261,68.7l-0.1-1h-0.1c-0.5,0.6-1.3,1.2-2.5,1.2c-1.7,0-2.5-1.2-2.5-2.4c0-2,1.8-3.1,4.9-3.1v-0.2
		c0-0.7-0.2-1.9-1.9-1.9c-0.8,0-1.6,0.2-2.1,0.6l-0.3-1c0.7-0.4,1.7-0.7,2.7-0.7c2.5,0,3.1,1.7,3.1,3.4v3.1c0,0.7,0,1.4,0.1,2H261z
		 M260.8,64.5c-1.6,0-3.5,0.3-3.5,1.8c0,1,0.6,1.4,1.4,1.4c1.1,0,1.7-0.7,2-1.4c0.1-0.2,0.1-0.3,0.1-0.5V64.5z"/>
	<path class="st2" d="M264.7,56.7h1.5v12h-1.5V56.7z"/>
	<path class="st2" d="M273.2,68.7l-0.1-1H273c-0.5,0.6-1.3,1.2-2.5,1.2c-1.7,0-2.5-1.2-2.5-2.4c0-2,1.8-3.1,4.9-3.1v-0.2
		c0-0.7-0.2-1.9-1.9-1.9c-0.8,0-1.6,0.2-2.1,0.6l-0.3-1c0.7-0.4,1.7-0.7,2.7-0.7c2.5,0,3.1,1.7,3.1,3.4v3.1c0,0.7,0,1.4,0.1,2H273.2
		z M273,64.5c-1.6,0-3.5,0.3-3.5,1.8c0,1,0.6,1.4,1.4,1.4c1.1,0,1.7-0.7,2-1.4c0.1-0.2,0.1-0.3,0.1-0.5V64.5z"/>
	<path class="st2" d="M279.2,69.4l4.7-12.3h1.2l-4.8,12.3H279.2z"/>
	<path class="st2" d="M291.4,57.3v4.8h5.5v-4.8h1.5v11.4h-1.5v-5.4h-5.5v5.4h-1.5V57.3H291.4z"/>
	<path class="st2" d="M305.5,68.7l-0.1-1h-0.1c-0.5,0.6-1.3,1.2-2.5,1.2c-1.7,0-2.5-1.2-2.5-2.4c0-2,1.8-3.1,4.9-3.1v-0.2
		c0-0.7-0.2-1.9-1.9-1.9c-0.8,0-1.6,0.2-2.1,0.6l-0.3-1c0.7-0.4,1.7-0.7,2.7-0.7c2.5,0,3.1,1.7,3.1,3.4v3.1c0,0.7,0,1.4,0.1,2H305.5
		z M305.2,64.5c-1.6,0-3.5,0.3-3.5,1.8c0,1,0.6,1.4,1.4,1.4c1.1,0,1.7-0.7,2-1.4c0.1-0.2,0.1-0.3,0.1-0.5V64.5z"/>
	<path class="st2" d="M309.1,56.7h1.5v12h-1.5V56.7z"/>
	<path class="st2" d="M313.1,56.7h1.5v12h-1.5V56.7z"/>
	<path class="st2" d="M328.7,68.3c-0.5,0.3-1.6,0.5-3,0.5c-3.2,0-5.7-2-5.7-5.8c0-3.6,2.4-6,6-6c1.4,0,2.3,0.3,2.7,0.5l-0.4,1.2
		c-0.6-0.3-1.4-0.5-2.3-0.5c-2.7,0-4.5,1.7-4.5,4.7c0,2.8,1.6,4.6,4.4,4.6c0.9,0,1.8-0.2,2.4-0.5L328.7,68.3z"/>
</g>
<g>
	<path class="st2" d="M47.6,24.2c0.7,0.4,1.6,0.7,2.6,0.7c1.5,0,2.4-0.8,2.4-2c0-1.1-0.6-1.7-2.2-2.3c-1.9-0.7-3-1.6-3-3.2
		c0-1.8,1.5-3.1,3.7-3.1c1.2,0,2,0.3,2.5,0.6l-0.4,1.2c-0.4-0.2-1.1-0.5-2.2-0.5c-1.6,0-2.2,0.9-2.2,1.7c0,1.1,0.7,1.6,2.3,2.2
		c1.9,0.7,2.9,1.7,2.9,3.4c0,1.8-1.3,3.3-4,3.3c-1.1,0-2.3-0.3-2.9-0.7L47.6,24.2z"/>
	<path class="st2" d="M60.7,26l-0.1-1h-0.1c-0.5,0.6-1.3,1.2-2.5,1.2c-1.7,0-2.5-1.2-2.5-2.4c0-2,1.8-3.1,4.9-3.1v-0.2
		c0-0.7-0.2-1.9-1.9-1.9c-0.8,0-1.6,0.2-2.1,0.6l-0.3-1c0.7-0.4,1.7-0.7,2.7-0.7c2.5,0,3.1,1.7,3.1,3.4v3.1c0,0.7,0,1.4,0.1,2H60.7z
		 M60.4,21.9c-1.6,0-3.5,0.3-3.5,1.8c0,1,0.6,1.4,1.4,1.4c1.1,0,1.7-0.7,2-1.4c0.1-0.2,0.1-0.3,0.1-0.5V21.9z"/>
	<path class="st2" d="M64.3,14h1.5v12h-1.5V14z"/>
	<path class="st2" d="M72.9,26l-0.1-1h-0.1c-0.5,0.6-1.3,1.2-2.5,1.2c-1.7,0-2.5-1.2-2.5-2.4c0-2,1.8-3.1,4.9-3.1v-0.2
		c0-0.7-0.2-1.9-1.9-1.9c-0.8,0-1.6,0.2-2.1,0.6l-0.3-1c0.7-0.4,1.7-0.7,2.7-0.7c2.5,0,3.1,1.7,3.1,3.4v3.1c0,0.7,0,1.4,0.1,2H72.9z
		 M72.6,21.9c-1.6,0-3.5,0.3-3.5,1.8c0,1,0.6,1.4,1.4,1.4c1.1,0,1.7-0.7,2-1.4c0.1-0.2,0.1-0.3,0.1-0.5V21.9z"/>
	<path class="st2" d="M78.8,26.7l4.7-12.3h1.2L80,26.7H78.8z"/>
	<path class="st2" d="M91,14.6v4.8h5.5v-4.8H98V26h-1.5v-5.4H91V26h-1.5V14.6H91z"/>
	<path class="st2" d="M105.1,26l-0.1-1h-0.1c-0.5,0.6-1.3,1.2-2.5,1.2c-1.7,0-2.5-1.2-2.5-2.4c0-2,1.8-3.1,4.9-3.1v-0.2
		c0-0.7-0.2-1.9-1.9-1.9c-0.8,0-1.6,0.2-2.1,0.6l-0.3-1c0.7-0.4,1.7-0.7,2.7-0.7c2.5,0,3.1,1.7,3.1,3.4v3.1c0,0.7,0,1.4,0.1,2H105.1
		z M104.9,21.9c-1.6,0-3.5,0.3-3.5,1.8c0,1,0.6,1.4,1.4,1.4c1.1,0,1.7-0.7,2-1.4c0.1-0.2,0.1-0.3,0.1-0.5V21.9z"/>
	<path class="st2" d="M108.7,14h1.5v12h-1.5V14z"/>
	<path class="st2" d="M112.7,14h1.5v12h-1.5V14z"/>
	<path class="st2" d="M120.4,14.8c0.9-0.1,2-0.2,3.1-0.2c2.1,0,3.6,0.5,4.6,1.4c1,0.9,1.6,2.3,1.6,4.1c0,1.9-0.6,3.4-1.6,4.4
		c-1.1,1.1-2.8,1.6-5.1,1.6c-1.1,0-1.9-0.1-2.7-0.1V14.8z M121.9,24.9c0.4,0.1,0.9,0.1,1.5,0.1c3.2,0,4.9-1.8,4.9-4.9
		c0-2.7-1.5-4.4-4.6-4.4c-0.8,0-1.3,0.1-1.7,0.2V24.9z"/>
</g>
<g>
	<path class="st2" d="M108.2,105.1c0.4-0.1,0.9-0.1,1.5-0.1c0.8,0,1.3,0.2,1.7,0.5c0.3,0.3,0.5,0.7,0.5,1.2c0,0.5-0.2,1-0.5,1.3
		c-0.4,0.4-1.1,0.7-1.8,0.7c-0.2,0-0.4,0-0.6-0.1v2.4h-0.8V105.1z M109,108c0.2,0,0.4,0.1,0.6,0.1c0.9,0,1.5-0.4,1.5-1.3
		c0-0.8-0.6-1.2-1.4-1.2c-0.3,0-0.6,0-0.7,0.1V108z"/>
	<path class="st2" d="M112.9,105.1h0.8v5.3h2.5v0.6h-3.3V105.1z"/>
	<path class="st2" d="M118,109.1l-0.6,1.9h-0.8l2-5.9h0.9l2,5.9h-0.8l-0.6-1.9H118z M120,108.5l-0.6-1.7c-0.1-0.4-0.2-0.7-0.3-1.1h0
		c-0.1,0.4-0.2,0.7-0.3,1.1l-0.6,1.7H120z"/>
	<path class="st2" d="M122.9,105.7h-1.8v-0.7h4.4v0.7h-1.8v5.3h-0.8V105.7z"/>
	<path class="st2" d="M126.5,109.1l-0.6,1.9h-0.8l2-5.9h0.9l2,5.9h-0.8l-0.6-1.9H126.5z M128.4,108.5l-0.6-1.7
		c-0.1-0.4-0.2-0.7-0.3-1.1h0c-0.1,0.4-0.2,0.7-0.3,1.1l-0.6,1.7H128.4z"/>
	<path class="st2" d="M130.9,105.1h3.2v0.6h-2.4v2h2.2v0.6h-2.2v2.7h-0.8V105.1z"/>
	<path class="st2" d="M140.2,108c0,2-1.2,3.1-2.8,3.1c-1.6,0-2.7-1.2-2.7-3c0-1.9,1.2-3.1,2.8-3.1C139.2,105,140.2,106.2,140.2,108z
		 M135.6,108.1c0,1.3,0.7,2.4,1.9,2.4c1.2,0,1.9-1.1,1.9-2.5c0-1.2-0.6-2.4-1.9-2.4C136.3,105.6,135.6,106.8,135.6,108.1z"/>
	<path class="st2" d="M141.2,105.1c0.4-0.1,0.9-0.1,1.5-0.1c0.8,0,1.3,0.1,1.7,0.5c0.3,0.3,0.5,0.7,0.5,1.1c0,0.8-0.5,1.3-1.1,1.5v0
		c0.5,0.2,0.7,0.6,0.9,1.2c0.2,0.8,0.3,1.4,0.5,1.6h-0.8c-0.1-0.2-0.2-0.7-0.4-1.4c-0.2-0.8-0.5-1.1-1.2-1.2H142v2.6h-0.8V105.1z
		 M142,107.8h0.8c0.8,0,1.3-0.4,1.3-1.1c0-0.8-0.6-1.1-1.4-1.1c-0.4,0-0.6,0-0.8,0.1V107.8z"/>
	<path class="st2" d="M151,108.4c0-0.8-0.1-1.8-0.1-2.6h0c-0.2,0.7-0.4,1.4-0.7,2.3l-1,2.9h-0.6l-1-2.8c-0.3-0.8-0.5-1.6-0.7-2.3h0
		c0,0.7-0.1,1.7-0.1,2.6l-0.2,2.5h-0.7l0.4-5.9h1l1,2.9c0.2,0.7,0.4,1.4,0.6,2h0c0.2-0.6,0.4-1.2,0.6-2l1.1-2.9h1l0.4,5.9h-0.7
		L151,108.4z"/>
	<path class="st2" d="M153.9,109.1l-0.6,1.9h-0.8l2-5.9h0.9l2,5.9h-0.8l-0.6-1.9H153.9z M155.9,108.5l-0.6-1.7
		c-0.1-0.4-0.2-0.7-0.3-1.1h0c-0.1,0.4-0.2,0.7-0.3,1.1l-0.6,1.7H155.9z"/>
	<path class="st2" d="M114.3,115.7c0.4-0.1,0.9-0.1,1.5-0.1c0.8,0,1.3,0.2,1.7,0.5c0.3,0.3,0.5,0.7,0.5,1.2c0,0.5-0.2,1-0.5,1.3
		c-0.4,0.4-1.1,0.7-1.8,0.7c-0.2,0-0.4,0-0.6-0.1v2.4h-0.8V115.7z M115.1,118.6c0.2,0,0.4,0.1,0.6,0.1c0.9,0,1.5-0.4,1.5-1.3
		c0-0.8-0.6-1.2-1.4-1.2c-0.3,0-0.6,0-0.7,0.1V118.6z"/>
	<path class="st2" d="M119,115.7c0.4-0.1,0.9-0.1,1.5-0.1c0.8,0,1.3,0.1,1.7,0.5c0.3,0.3,0.5,0.7,0.5,1.1c0,0.8-0.5,1.3-1.1,1.5v0
		c0.5,0.2,0.7,0.6,0.9,1.2c0.2,0.8,0.3,1.4,0.5,1.6h-0.8c-0.1-0.2-0.2-0.7-0.4-1.4c-0.2-0.8-0.5-1.1-1.2-1.2h-0.7v2.6H119V115.7z
		 M119.7,118.4h0.8c0.8,0,1.3-0.4,1.3-1.1c0-0.8-0.6-1.1-1.4-1.1c-0.4,0-0.6,0-0.8,0.1V118.4z"/>
	<path class="st2" d="M124.5,115.6v5.9h-0.8v-5.9H124.5z"/>
	<path class="st2" d="M125.8,121.6v-5.9h0.8l1.9,3c0.4,0.7,0.8,1.3,1.1,1.9l0,0c-0.1-0.8-0.1-1.5-0.1-2.4v-2.5h0.7v5.9h-0.8l-1.9-3
		c-0.4-0.7-0.8-1.3-1.1-2l0,0c0,0.7,0.1,1.5,0.1,2.4v2.5H125.8z"/>
	<path class="st2" d="M135.8,121.4c-0.3,0.1-0.8,0.3-1.6,0.3c-1.7,0-2.9-1.1-2.9-3c0-1.9,1.3-3.1,3.1-3.1c0.7,0,1.2,0.2,1.4,0.3
		l-0.2,0.6c-0.3-0.1-0.7-0.2-1.2-0.2c-1.4,0-2.3,0.9-2.3,2.4c0,1.5,0.8,2.4,2.3,2.4c0.5,0,0.9-0.1,1.2-0.2L135.8,121.4z"/>
	<path class="st2" d="M137.5,115.6v5.9h-0.8v-5.9H137.5z"/>
	<path class="st2" d="M138.8,115.7c0.4-0.1,0.9-0.1,1.5-0.1c0.8,0,1.3,0.2,1.7,0.5c0.3,0.3,0.5,0.7,0.5,1.2c0,0.5-0.2,1-0.5,1.3
		c-0.4,0.4-1.1,0.7-1.8,0.7c-0.2,0-0.4,0-0.6-0.1v2.4h-0.8V115.7z M139.6,118.6c0.2,0,0.4,0.1,0.6,0.1c0.9,0,1.5-0.4,1.5-1.3
		c0-0.8-0.6-1.2-1.4-1.2c-0.3,0-0.6,0-0.7,0.1V118.6z"/>
	<path class="st2" d="M143.7,119.7l-0.6,1.9h-0.8l2-5.9h0.9l2,5.9h-0.8l-0.6-1.9H143.7z M145.7,119.1l-0.6-1.7
		c-0.1-0.4-0.2-0.7-0.3-1.1h0c-0.1,0.4-0.2,0.7-0.3,1.1l-0.6,1.7H145.7z"/>
	<path class="st2" d="M148.1,115.6h0.8v5.3h2.5v0.6h-3.3V115.6z"/>
</g>
<g>
	<path class="st2" d="M41.3,113.9v-4h0.6l1.3,2c0.3,0.5,0.5,0.9,0.7,1.3l0,0c0-0.5-0.1-1-0.1-1.7v-1.7h0.5v4h-0.5l-1.3-2.1
		c-0.3-0.4-0.6-0.9-0.8-1.3l0,0c0,0.5,0,1,0,1.7v1.7H41.3z"/>
	<path class="st2" d="M45.8,109.8v2.4c0,0.9,0.4,1.3,0.9,1.3c0.6,0,1-0.4,1-1.3v-2.4h0.5v2.4c0,1.2-0.7,1.8-1.5,1.8
		c-0.8,0-1.5-0.5-1.5-1.7v-2.4H45.8z"/>
	<path class="st2" d="M51.3,112h-1.6v1.5h1.8v0.4h-2.3v-4h2.2v0.4h-1.7v1.3h1.6V112z"/>
	<path class="st2" d="M53.1,113.9l-1.3-4h0.6l0.6,2c0.2,0.5,0.3,1,0.4,1.5h0c0.1-0.5,0.3-1,0.5-1.5l0.7-2h0.6l-1.4,4H53.1z"/>
	<path class="st2" d="M59,111.8c0,1.4-0.8,2.1-1.9,2.1c-1.1,0-1.8-0.8-1.8-2.1c0-1.3,0.8-2.1,1.9-2.1C58.3,109.8,59,110.6,59,111.8z
		 M55.8,111.9c0,0.9,0.5,1.6,1.3,1.6c0.8,0,1.3-0.8,1.3-1.7c0-0.8-0.4-1.6-1.3-1.6C56.3,110.2,55.8,111,55.8,111.9z"/>
	<path class="st2" d="M59.6,113.2c0.2,0.1,0.6,0.3,0.9,0.3c0.5,0,0.8-0.3,0.8-0.7c0-0.4-0.2-0.6-0.8-0.8c-0.7-0.2-1.1-0.6-1.1-1.1
		c0-0.6,0.5-1.1,1.3-1.1c0.4,0,0.7,0.1,0.9,0.2l-0.1,0.4c-0.1-0.1-0.4-0.2-0.8-0.2c-0.6,0-0.8,0.3-0.8,0.6c0,0.4,0.2,0.6,0.8,0.8
		c0.7,0.3,1,0.6,1,1.2c0,0.6-0.5,1.2-1.4,1.2c-0.4,0-0.8-0.1-1-0.3L59.6,113.2z"/>
	<path class="st2" d="M36,117.5h-1.2V117h3v0.4h-1.2v3.6H36V117.5z"/>
	<path class="st2" d="M38.4,119.8l-0.4,1.3h-0.5l1.4-4h0.6l1.4,4h-0.6l-0.4-1.3H38.4z M39.7,119.4l-0.4-1.2
		c-0.1-0.3-0.2-0.5-0.2-0.7h0c-0.1,0.2-0.1,0.5-0.2,0.7l-0.4,1.2H39.7z"/>
	<path class="st2" d="M41.4,117h0.5v3.6h1.7v0.4h-2.2V117z"/>
	<path class="st2" d="M46.3,119.2h-1.6v1.5h1.8v0.4h-2.3v-4h2.2v0.4h-1.7v1.3h1.6V119.2z"/>
	<path class="st2" d="M47.2,121.1v-4h0.6l1.3,2c0.3,0.5,0.5,0.9,0.7,1.3l0,0c0-0.5-0.1-1-0.1-1.7V117h0.5v4h-0.5l-1.3-2.1
		c-0.3-0.4-0.6-0.9-0.8-1.3l0,0c0,0.5,0,1,0,1.7v1.7H47.2z"/>
	<path class="st2" d="M51.9,117.5h-1.2V117h3v0.4h-1.2v3.6h-0.5V117.5z"/>
	<path class="st2" d="M57.4,119c0,1.4-0.8,2.1-1.9,2.1c-1.1,0-1.8-0.8-1.8-2.1c0-1.3,0.8-2.1,1.9-2.1C56.7,117,57.4,117.8,57.4,119z
		 M54.3,119.1c0,0.9,0.5,1.6,1.3,1.6c0.8,0,1.3-0.8,1.3-1.7c0-0.8-0.4-1.6-1.3-1.6C54.7,117.4,54.3,118.2,54.3,119.1z"/>
	<path class="st2" d="M58,120.4c0.2,0.1,0.6,0.3,0.9,0.3c0.5,0,0.8-0.3,0.8-0.7c0-0.4-0.2-0.6-0.8-0.8c-0.7-0.2-1.1-0.6-1.1-1.1
		c0-0.6,0.5-1.1,1.3-1.1c0.4,0,0.7,0.1,0.9,0.2l-0.1,0.4c-0.1-0.1-0.4-0.2-0.8-0.2c-0.6,0-0.8,0.3-0.8,0.6c0,0.4,0.2,0.6,0.8,0.8
		c0.7,0.3,1,0.6,1,1.2c0,0.6-0.5,1.2-1.4,1.2c-0.4,0-0.8-0.1-1-0.3L58,120.4z"/>
	<path class="st2" d="M62.3,117.1c0.2,0,0.6-0.1,1-0.1c0.5,0,0.9,0.1,1.1,0.3c0.2,0.2,0.3,0.4,0.3,0.7c0,0.4-0.3,0.7-0.7,0.9v0
		c0.4,0.1,0.8,0.4,0.8,1c0,0.3-0.1,0.6-0.3,0.8c-0.3,0.3-0.7,0.4-1.4,0.4c-0.4,0-0.6,0-0.8,0V117.1z M62.9,118.7h0.5
		c0.6,0,0.9-0.3,0.9-0.7c0-0.5-0.4-0.7-0.9-0.7c-0.2,0-0.4,0-0.5,0V118.7z M62.9,120.7c0.1,0,0.3,0,0.4,0c0.5,0,1-0.2,1-0.8
		c0-0.6-0.5-0.8-1-0.8h-0.4V120.7z"/>
	<path class="st2" d="M66.4,121.1v-1.7l-1.3-2.3h0.6l0.6,1.1c0.2,0.3,0.3,0.6,0.4,0.8h0c0.1-0.3,0.3-0.5,0.4-0.8l0.6-1.1h0.6
		l-1.4,2.3v1.7H66.4z"/>
	<path class="st2" d="M49.5,126.4h-1.6v1.5h1.8v0.4h-2.3v-4h2.2v0.4h-1.7v1.3h1.6V126.4z"/>
	<path class="st2" d="M50.3,124.3c0.2,0,0.6-0.1,1-0.1c0.5,0,0.9,0.1,1.1,0.3c0.2,0.2,0.3,0.4,0.3,0.7c0,0.4-0.3,0.7-0.7,0.9v0
		c0.4,0.1,0.8,0.4,0.8,1c0,0.3-0.1,0.6-0.3,0.8c-0.3,0.3-0.7,0.4-1.4,0.4c-0.4,0-0.6,0-0.8,0V124.3z M50.9,125.9h0.5
		c0.6,0,0.9-0.3,0.9-0.7c0-0.5-0.4-0.7-0.9-0.7c-0.2,0-0.4,0-0.5,0V125.9z M50.9,127.9c0.1,0,0.3,0,0.4,0c0.5,0,1-0.2,1-0.8
		c0-0.6-0.5-0.8-1-0.8h-0.4V127.9z"/>
	<path class="st2" d="M53.5,127.6c0.2,0.1,0.6,0.3,0.9,0.3c0.5,0,0.8-0.3,0.8-0.7c0-0.4-0.2-0.6-0.8-0.8c-0.7-0.2-1.1-0.6-1.1-1.1
		c0-0.6,0.5-1.1,1.3-1.1c0.4,0,0.7,0.1,0.9,0.2l-0.1,0.4c-0.1-0.1-0.4-0.2-0.8-0.2c-0.6,0-0.8,0.3-0.8,0.6c0,0.4,0.2,0.6,0.8,0.8
		c0.7,0.3,1,0.6,1,1.2c0,0.6-0.5,1.2-1.4,1.2c-0.4,0-0.8-0.1-1-0.3L53.5,127.6z"/>
</g>
<g>
	<path class="st2" d="M27.2,57.3h2.6v0.5h-2v1.6h1.8v0.5h-1.8v2.2h-0.6V57.3z"/>
	<path class="st2" d="M34.7,59.7c0,1.6-1,2.5-2.2,2.5c-1.3,0-2.2-1-2.2-2.4c0-1.5,0.9-2.5,2.2-2.5C33.9,57.2,34.7,58.2,34.7,59.7z
		 M31,59.7c0,1,0.6,1.9,1.5,1.9c1,0,1.5-0.9,1.5-2c0-1-0.5-1.9-1.5-1.9C31.5,57.7,31,58.7,31,59.7z"/>
	<path class="st2" d="M39.6,59.7c0,1.6-1,2.5-2.2,2.5c-1.3,0-2.2-1-2.2-2.4c0-1.5,0.9-2.5,2.2-2.5C38.8,57.2,39.6,58.2,39.6,59.7z
		 M35.9,59.7c0,1,0.6,1.9,1.5,1.9c1,0,1.5-0.9,1.5-2c0-1-0.5-1.9-1.5-1.9C36.4,57.7,35.9,58.7,35.9,59.7z"/>
	<path class="st2" d="M40.4,57.4c0.4-0.1,0.8-0.1,1.3-0.1c0.9,0,1.5,0.2,1.9,0.6c0.4,0.4,0.7,0.9,0.7,1.7c0,0.8-0.2,1.4-0.7,1.9
		c-0.4,0.4-1.2,0.7-2.1,0.7c-0.4,0-0.8,0-1.1-0.1V57.4z M41,61.6c0.2,0,0.4,0,0.6,0c1.3,0,2-0.7,2-2c0-1.1-0.6-1.8-1.9-1.8
		c-0.3,0-0.6,0-0.7,0.1V61.6z"/>
	<path class="st2" d="M47.3,57.8h-1.5v-0.5h3.5v0.5h-1.5v4.3h-0.6V57.8z"/>
	<path class="st2" d="M49.9,57.4c0.3-0.1,0.8-0.1,1.2-0.1c0.7,0,1.1,0.1,1.4,0.4c0.2,0.2,0.4,0.5,0.4,0.9c0,0.6-0.4,1.1-0.9,1.2v0
		c0.4,0.1,0.6,0.5,0.7,1c0.2,0.7,0.3,1.1,0.4,1.3h-0.6c-0.1-0.1-0.2-0.5-0.3-1.1c-0.1-0.7-0.4-0.9-1-0.9h-0.6v2.1h-0.6V57.4z
		 M50.5,59.6h0.6c0.7,0,1.1-0.4,1.1-0.9c0-0.6-0.4-0.9-1.1-0.9c-0.3,0-0.5,0-0.6,0.1V59.6z"/>
	<path class="st2" d="M54.4,57.3v2.8c0,1.1,0.5,1.5,1.1,1.5c0.7,0,1.2-0.5,1.2-1.5v-2.8h0.6v2.8c0,1.5-0.8,2.1-1.8,2.1
		c-1,0-1.7-0.6-1.7-2v-2.8H54.4z"/>
	<path class="st2" d="M61.7,61.9c-0.2,0.1-0.7,0.2-1.3,0.2c-1.4,0-2.4-0.9-2.4-2.4c0-1.5,1-2.5,2.5-2.5c0.6,0,1,0.1,1.1,0.2
		l-0.1,0.5c-0.2-0.1-0.6-0.2-1-0.2c-1.1,0-1.9,0.7-1.9,2c0,1.2,0.7,1.9,1.8,1.9c0.4,0,0.8-0.1,1-0.2L61.7,61.9z"/>
	<path class="st2" d="M62.5,57.3h0.6v2.3h0c0.1-0.2,0.3-0.4,0.4-0.5l1.5-1.8h0.8l-1.7,2l1.9,2.8h-0.7l-1.6-2.4l-0.5,0.5v1.8h-0.6
		V57.3z"/>
	<path class="st2" d="M66.3,61.3c0.3,0.2,0.7,0.3,1.1,0.3c0.6,0,1-0.3,1-0.8c0-0.4-0.3-0.7-0.9-1c-0.8-0.3-1.3-0.7-1.3-1.4
		c0-0.7,0.6-1.3,1.5-1.3c0.5,0,0.8,0.1,1.1,0.2L68.6,58c-0.2-0.1-0.5-0.2-0.9-0.2c-0.7,0-0.9,0.4-0.9,0.7c0,0.4,0.3,0.7,1,0.9
		c0.8,0.3,1.2,0.7,1.2,1.4c0,0.7-0.5,1.4-1.7,1.4c-0.5,0-1-0.1-1.2-0.3L66.3,61.3z"/>
</g>
<g>
	<path class="st2" d="M480,142.5c0.4-0.1,1.1-0.1,1.7-0.1c0.9,0,1.6,0.2,2,0.6c0.3,0.3,0.5,0.8,0.5,1.3c0,0.9-0.6,1.5-1.3,1.7v0
		c0.5,0.2,0.8,0.7,1,1.4c0.2,1,0.4,1.6,0.5,1.9h-0.9c-0.1-0.2-0.3-0.8-0.5-1.6c-0.2-0.9-0.6-1.3-1.4-1.3h-0.8v3H480V142.5z
		 M480.8,145.6h0.9c0.9,0,1.5-0.5,1.5-1.3c0-0.9-0.6-1.3-1.6-1.3c-0.4,0-0.7,0-0.9,0.1V145.6z"/>
	<path class="st2" d="M488.9,146h-2.7v2.5h3v0.7h-3.8v-6.8h3.7v0.7h-2.8v2.2h2.7V146z"/>
	<path class="st2" d="M490.3,148.2c0.4,0.2,1,0.4,1.6,0.4c0.9,0,1.4-0.5,1.4-1.2c0-0.6-0.4-1-1.3-1.4c-1.1-0.4-1.8-1-1.8-1.9
		c0-1.1,0.9-1.9,2.2-1.9c0.7,0,1.2,0.2,1.5,0.3l-0.2,0.7c-0.2-0.1-0.7-0.3-1.3-0.3c-0.9,0-1.3,0.6-1.3,1c0,0.6,0.4,1,1.4,1.3
		c1.2,0.4,1.7,1,1.7,2c0,1.1-0.8,2-2.4,2c-0.7,0-1.4-0.2-1.7-0.4L490.3,148.2z"/>
	<path class="st2" d="M496.7,143.1h-2.1v-0.8h5.1v0.8h-2.1v6.1h-0.9V143.1z"/>
	<path class="st2" d="M500.8,147.1l-0.7,2.1h-0.9l2.3-6.8h1.1l2.3,6.8h-0.9l-0.7-2.1H500.8z M503,146.4l-0.7-2
		c-0.2-0.4-0.3-0.9-0.4-1.2h0c-0.1,0.4-0.2,0.8-0.3,1.2l-0.7,2H503z"/>
	<path class="st2" d="M506.5,142.4v4c0,1.5,0.7,2.2,1.6,2.2c1,0,1.7-0.7,1.7-2.2v-4h0.9v4c0,2.1-1.1,3-2.6,3c-1.4,0-2.5-0.8-2.5-2.9
		v-4H506.5z"/>
	<path class="st2" d="M512.1,142.5c0.4-0.1,1.1-0.1,1.7-0.1c0.9,0,1.5,0.2,2,0.6c0.3,0.3,0.5,0.8,0.5,1.3c0,0.9-0.6,1.5-1.3,1.7v0
		c0.5,0.2,0.8,0.7,1,1.4c0.2,1,0.4,1.6,0.5,1.9h-0.9c-0.1-0.2-0.3-0.8-0.5-1.6c-0.2-0.9-0.6-1.3-1.4-1.3H513v3h-0.9V142.5z
		 M513,145.6h0.9c0.9,0,1.5-0.5,1.5-1.3c0-0.9-0.6-1.3-1.6-1.3c-0.4,0-0.7,0-0.9,0.1V145.6z"/>
	<path class="st2" d="M518.8,147.1l-0.7,2.1h-0.9l2.3-6.8h1.1l2.3,6.8h-0.9l-0.7-2.1H518.8z M521,146.4l-0.7-2
		c-0.2-0.4-0.3-0.9-0.4-1.2h0c-0.1,0.4-0.2,0.8-0.3,1.2l-0.7,2H521z"/>
	<path class="st2" d="M523.8,149.2v-6.8h1l2.2,3.5c0.5,0.8,0.9,1.5,1.2,2.2l0,0c-0.1-0.9-0.1-1.7-0.1-2.8v-2.9h0.8v6.8h-0.9
		l-2.2-3.5c-0.5-0.8-0.9-1.5-1.3-2.3l0,0c0.1,0.9,0.1,1.7,0.1,2.8v2.9H523.8z"/>
	<path class="st2" d="M531.8,143.1h-2.1v-0.8h5.1v0.8h-2.1v6.1h-0.9V143.1z"/>
	<path class="st2" d="M539.1,146h-2.7v2.5h3v0.7h-3.8v-6.8h3.7v0.7h-2.8v2.2h2.7V146z"/>
</g>
<g>
	<path class="st2" d="M675.5,291.8h-1v0.9h1.1v0.3h-1.4v-2.6h1.4v0.3h-1.1v0.8h1V291.8z"/>
	<path class="st2" d="M676,293v-2.6h0.4l0.8,1.3c0.2,0.3,0.3,0.6,0.5,0.8l0,0c0-0.3,0-0.7,0-1.1v-1.1h0.3v2.6h-0.3l-0.8-1.3
		c-0.2-0.3-0.3-0.6-0.5-0.9l0,0c0,0.3,0,0.6,0,1.1v1.1H676z"/>
	<path class="st2" d="M679,290.8h-0.8v-0.3h1.9v0.3h-0.8v2.3H679V290.8z"/>
	<path class="st2" d="M680.4,290.5c0.2,0,0.4-0.1,0.6-0.1c0.4,0,0.6,0.1,0.7,0.2c0.1,0.1,0.2,0.3,0.2,0.5c0,0.3-0.2,0.6-0.5,0.7v0
		c0.2,0.1,0.3,0.3,0.4,0.5c0.1,0.4,0.1,0.6,0.2,0.7h-0.3c0-0.1-0.1-0.3-0.2-0.6c-0.1-0.4-0.2-0.5-0.5-0.5h-0.3v1.1h-0.3V290.5z
		 M680.7,291.7h0.3c0.4,0,0.6-0.2,0.6-0.5c0-0.3-0.2-0.5-0.6-0.5c-0.2,0-0.3,0-0.3,0V291.7z"/>
	<path class="st2" d="M682.9,292.2l-0.3,0.8h-0.3l0.9-2.6h0.4l0.9,2.6h-0.4l-0.3-0.8H682.9z M683.7,292l-0.3-0.7
		c-0.1-0.2-0.1-0.3-0.1-0.5h0c0,0.2-0.1,0.3-0.1,0.5L683,292H683.7z"/>
	<path class="st2" d="M684.8,290.5c0.2,0,0.4-0.1,0.7-0.1c0.5,0,0.8,0.1,1,0.3c0.2,0.2,0.4,0.5,0.4,0.9c0,0.4-0.1,0.8-0.4,1
		c-0.2,0.2-0.6,0.4-1.1,0.4c-0.2,0-0.4,0-0.6,0V290.5z M685.1,292.8c0.1,0,0.2,0,0.3,0c0.7,0,1.1-0.4,1.1-1.1c0-0.6-0.3-1-1-1
		c-0.2,0-0.3,0-0.4,0V292.8z"/>
	<path class="st2" d="M687.7,292.2l-0.3,0.8h-0.3l0.9-2.6h0.4l0.9,2.6h-0.4l-0.3-0.8H687.7z M688.5,292l-0.3-0.7
		c-0.1-0.2-0.1-0.3-0.1-0.5h0c0,0.2-0.1,0.3-0.1,0.5l-0.3,0.7H688.5z"/>
</g>
<g>
	<path class="st2" d="M696.8,292.7c0.1,0.1,0.4,0.2,0.6,0.2c0.3,0,0.5-0.2,0.5-0.4c0-0.2-0.1-0.4-0.5-0.5c-0.4-0.1-0.7-0.4-0.7-0.7
		c0-0.4,0.3-0.7,0.8-0.7c0.3,0,0.5,0.1,0.6,0.1l-0.1,0.3c-0.1,0-0.3-0.1-0.5-0.1c-0.3,0-0.5,0.2-0.5,0.4c0,0.2,0.2,0.4,0.5,0.5
		c0.4,0.2,0.7,0.4,0.7,0.8c0,0.4-0.3,0.7-0.9,0.7c-0.2,0-0.5-0.1-0.7-0.2L696.8,292.7z"/>
	<path class="st2" d="M699.1,292.3l-0.3,0.8h-0.3l0.9-2.6h0.4l0.9,2.6h-0.4l-0.3-0.8H699.1z M699.9,292l-0.3-0.7
		c-0.1-0.2-0.1-0.3-0.1-0.5h0c0,0.2-0.1,0.3-0.1,0.5l-0.3,0.7H699.9z"/>
	<path class="st2" d="M701,290.5h0.3v2.3h1.1v0.3H701V290.5z"/>
	<path class="st2" d="M703.1,290.5v2.6h-0.3v-2.6H703.1z"/>
	<path class="st2" d="M703.7,290.5c0.2,0,0.4-0.1,0.7-0.1c0.5,0,0.8,0.1,1,0.3c0.2,0.2,0.4,0.5,0.4,0.9c0,0.4-0.1,0.8-0.4,1
		c-0.2,0.2-0.6,0.4-1.1,0.4c-0.2,0-0.4,0-0.6,0V290.5z M704,292.8c0.1,0,0.2,0,0.3,0c0.7,0,1.1-0.4,1.1-1.1c0-0.6-0.3-1-1-1
		c-0.2,0-0.3,0-0.4,0V292.8z"/>
	<path class="st2" d="M706.6,292.3l-0.3,0.8H706l0.9-2.6h0.4l0.9,2.6h-0.4l-0.3-0.8H706.6z M707.4,292l-0.3-0.7
		c-0.1-0.2-0.1-0.3-0.1-0.5h0c0,0.2-0.1,0.3-0.1,0.5l-0.3,0.7H707.4z"/>
</g>
<g>
	<path class="st2" d="M475.3,291.6h-1v0.9h1.1v0.3h-1.4v-2.6h1.4v0.3h-1.1v0.8h1V291.6z"/>
	<path class="st2" d="M475.8,292.8v-2.6h0.4l0.8,1.3c0.2,0.3,0.3,0.6,0.5,0.8l0,0c0-0.3,0-0.7,0-1.1v-1.1h0.3v2.6h-0.3l-0.8-1.3
		c-0.2-0.3-0.3-0.6-0.5-0.9l0,0c0,0.3,0,0.6,0,1.1v1.1H475.8z"/>
	<path class="st2" d="M478.8,290.5H478v-0.3h1.9v0.3h-0.8v2.3h-0.3V290.5z"/>
	<path class="st2" d="M480.2,290.3c0.2,0,0.4-0.1,0.6-0.1c0.4,0,0.6,0.1,0.7,0.2c0.1,0.1,0.2,0.3,0.2,0.5c0,0.3-0.2,0.6-0.5,0.7v0
		c0.2,0.1,0.3,0.3,0.4,0.5c0.1,0.4,0.1,0.6,0.2,0.7h-0.3c0-0.1-0.1-0.3-0.2-0.6c-0.1-0.4-0.2-0.5-0.5-0.5h-0.3v1.1h-0.3V290.3z
		 M480.5,291.4h0.3c0.4,0,0.6-0.2,0.6-0.5c0-0.3-0.2-0.5-0.6-0.5c-0.2,0-0.3,0-0.3,0V291.4z"/>
	<path class="st2" d="M482.7,292l-0.3,0.8h-0.3l0.9-2.6h0.4l0.9,2.6h-0.4l-0.3-0.8H482.7z M483.5,291.7l-0.3-0.7
		c-0.1-0.2-0.1-0.3-0.1-0.5h0c0,0.2-0.1,0.3-0.1,0.5l-0.3,0.7H483.5z"/>
	<path class="st2" d="M484.6,290.3c0.2,0,0.4-0.1,0.7-0.1c0.5,0,0.8,0.1,1,0.3c0.2,0.2,0.4,0.5,0.4,0.9c0,0.4-0.1,0.8-0.4,1
		c-0.2,0.2-0.6,0.4-1.1,0.4c-0.2,0-0.4,0-0.6,0V290.3z M484.9,292.5c0.1,0,0.2,0,0.3,0c0.7,0,1.1-0.4,1.1-1.1c0-0.6-0.3-1-1-1
		c-0.2,0-0.3,0-0.4,0V292.5z"/>
	<path class="st2" d="M487.5,292l-0.3,0.8h-0.3l0.9-2.6h0.4l0.9,2.6h-0.4l-0.3-0.8H487.5z M488.3,291.7l-0.3-0.7
		c-0.1-0.2-0.1-0.3-0.1-0.5h0c0,0.2-0.1,0.3-0.1,0.5l-0.3,0.7H488.3z"/>
</g>
<g>
	<path class="st2" d="M479.8,317.5H479v0.7h0.9v0.2h-1.1v-2h1.1v0.2H479v0.6h0.8V317.5z"/>
	<path class="st2" d="M480.2,318.1c0.1,0.1,0.3,0.1,0.5,0.1c0.3,0,0.4-0.1,0.4-0.3c0-0.2-0.1-0.3-0.4-0.4c-0.3-0.1-0.5-0.3-0.5-0.6
		c0-0.3,0.3-0.6,0.7-0.6c0.2,0,0.4,0,0.4,0.1l-0.1,0.2c-0.1,0-0.2-0.1-0.4-0.1c-0.3,0-0.4,0.2-0.4,0.3c0,0.2,0.1,0.3,0.4,0.4
		c0.3,0.1,0.5,0.3,0.5,0.6c0,0.3-0.2,0.6-0.7,0.6c-0.2,0-0.4-0.1-0.5-0.1L480.2,318.1z"/>
	<path class="st2" d="M483.2,318.4c-0.1,0-0.3,0.1-0.5,0.1c-0.6,0-1-0.4-1-1c0-0.6,0.4-1.1,1.1-1.1c0.3,0,0.4,0.1,0.5,0.1l-0.1,0.2
		c-0.1,0-0.2-0.1-0.4-0.1c-0.5,0-0.8,0.3-0.8,0.8c0,0.5,0.3,0.8,0.8,0.8c0.2,0,0.3,0,0.4-0.1L483.2,318.4z"/>
	<path class="st2" d="M483.8,317.8l-0.2,0.6h-0.3l0.7-2h0.3l0.7,2h-0.3l-0.2-0.6H483.8z M484.5,317.6l-0.2-0.6
		c0-0.1-0.1-0.3-0.1-0.4h0c0,0.1-0.1,0.2-0.1,0.4l-0.2,0.6H484.5z"/>
	<path class="st2" d="M485.3,316.4h0.3v1.8h0.9v0.2h-1.1V316.4z"/>
	<path class="st2" d="M487.8,317.5H487v0.7h0.9v0.2h-1.1v-2h1.1v0.2H487v0.6h0.8V317.5z"/>
	<path class="st2" d="M488.2,316.4c0.1,0,0.3,0,0.5,0c0.3,0,0.5,0.1,0.6,0.2c0.1,0.1,0.2,0.2,0.2,0.4c0,0.3-0.2,0.4-0.4,0.5v0
		c0.2,0.1,0.2,0.2,0.3,0.4c0.1,0.3,0.1,0.5,0.2,0.6h-0.3c0-0.1-0.1-0.2-0.1-0.5c-0.1-0.3-0.2-0.4-0.4-0.4h-0.2v0.9h-0.3V316.4z
		 M488.5,317.4h0.3c0.3,0,0.5-0.2,0.5-0.4c0-0.3-0.2-0.4-0.5-0.4c-0.1,0-0.2,0-0.3,0V317.4z"/>
	<path class="st2" d="M490.2,317.8l-0.2,0.6h-0.3l0.7-2h0.3l0.7,2h-0.3l-0.2-0.6H490.2z M490.8,317.6l-0.2-0.6
		c0-0.1-0.1-0.3-0.1-0.4h0c0,0.1-0.1,0.2-0.1,0.4l-0.2,0.6H490.8z"/>
	<path class="st2" d="M491.6,318.1c0.1,0.1,0.3,0.1,0.5,0.1c0.3,0,0.4-0.1,0.4-0.3c0-0.2-0.1-0.3-0.4-0.4c-0.3-0.1-0.5-0.3-0.5-0.6
		c0-0.3,0.3-0.6,0.7-0.6c0.2,0,0.4,0,0.4,0.1l-0.1,0.2c-0.1,0-0.2-0.1-0.4-0.1c-0.3,0-0.4,0.2-0.4,0.3c0,0.2,0.1,0.3,0.4,0.4
		c0.3,0.1,0.5,0.3,0.5,0.6c0,0.3-0.2,0.6-0.7,0.6c-0.2,0-0.4-0.1-0.5-0.1L491.6,318.1z"/>
	<path class="st2" d="M494.8,317.5h-0.8v0.7h0.9v0.2h-1.1v-2h1.1v0.2h-0.8v0.6h0.8V317.5z"/>
	<path class="st2" d="M495.3,316.4h0.3v1.8h0.9v0.2h-1.1V316.4z"/>
	<path class="st2" d="M497.7,317.5h-0.8v0.7h0.9v0.2h-1.1v-2h1.1v0.2h-0.8v0.6h0.8V317.5z M497.7,316l-0.4,0.4h-0.2l0.3-0.4H497.7z"
		/>
	<path class="st2" d="M499.6,318.4c-0.1,0-0.3,0.1-0.5,0.1c-0.6,0-1-0.4-1-1c0-0.6,0.4-1.1,1.1-1.1c0.3,0,0.4,0.1,0.5,0.1l-0.1,0.2
		c-0.1,0-0.2-0.1-0.4-0.1c-0.5,0-0.8,0.3-0.8,0.8c0,0.5,0.3,0.8,0.8,0.8c0.2,0,0.3,0,0.4-0.1L499.6,318.4z"/>
	<path class="st2" d="M500.4,316.6h-0.6v-0.2h1.5v0.2h-0.6v1.8h-0.3V316.6z"/>
	<path class="st2" d="M501.5,316.4c0.1,0,0.3,0,0.5,0c0.3,0,0.5,0.1,0.6,0.2c0.1,0.1,0.2,0.2,0.2,0.4c0,0.3-0.2,0.4-0.4,0.5v0
		c0.2,0.1,0.2,0.2,0.3,0.4c0.1,0.3,0.1,0.5,0.2,0.6h-0.3c0-0.1-0.1-0.2-0.1-0.5c-0.1-0.3-0.2-0.4-0.4-0.4h-0.2v0.9h-0.3V316.4z
		 M501.7,317.4h0.3c0.3,0,0.5-0.2,0.5-0.4c0-0.3-0.2-0.4-0.5-0.4c-0.1,0-0.2,0-0.3,0V317.4z"/>
	<path class="st2" d="M503.4,316.4v2h-0.3v-2H503.4z"/>
	<path class="st2" d="M505.2,318.4c-0.1,0-0.3,0.1-0.5,0.1c-0.6,0-1-0.4-1-1c0-0.6,0.4-1.1,1.1-1.1c0.3,0,0.4,0.1,0.5,0.1l-0.1,0.2
		c-0.1,0-0.2-0.1-0.4-0.1c-0.5,0-0.8,0.3-0.8,0.8c0,0.5,0.3,0.8,0.8,0.8c0.2,0,0.3,0,0.4-0.1L505.2,318.4z"/>
	<path class="st2" d="M505.9,317.8l-0.2,0.6h-0.3l0.7-2h0.3l0.7,2h-0.3l-0.2-0.6H505.9z M506.6,317.6l-0.2-0.6
		c0-0.1-0.1-0.3-0.1-0.4h0c0,0.1-0.1,0.2-0.1,0.4l-0.2,0.6H506.6z"/>
	<path class="st2" d="M507.4,318.1c0.1,0.1,0.3,0.1,0.5,0.1c0.3,0,0.4-0.1,0.4-0.3c0-0.2-0.1-0.3-0.4-0.4c-0.3-0.1-0.5-0.3-0.5-0.6
		c0-0.3,0.3-0.6,0.7-0.6c0.2,0,0.4,0,0.4,0.1l-0.1,0.2c-0.1,0-0.2-0.1-0.4-0.1c-0.3,0-0.4,0.2-0.4,0.3c0,0.2,0.1,0.3,0.4,0.4
		c0.3,0.1,0.5,0.3,0.5,0.6c0,0.3-0.2,0.6-0.7,0.6c-0.2,0-0.4-0.1-0.5-0.1L507.4,318.1z"/>
</g>
<g>
	<path class="st2" d="M496.5,292.4c0.1,0.1,0.4,0.2,0.6,0.2c0.3,0,0.5-0.2,0.5-0.4c0-0.2-0.1-0.4-0.5-0.5c-0.4-0.1-0.7-0.4-0.7-0.7
		c0-0.4,0.3-0.7,0.8-0.7c0.3,0,0.5,0.1,0.6,0.1l-0.1,0.3c-0.1,0-0.3-0.1-0.5-0.1c-0.3,0-0.5,0.2-0.5,0.4c0,0.2,0.2,0.4,0.5,0.5
		c0.4,0.2,0.7,0.4,0.7,0.8c0,0.4-0.3,0.7-0.9,0.7c-0.2,0-0.5-0.1-0.7-0.2L496.5,292.4z"/>
	<path class="st2" d="M498.9,292l-0.3,0.8h-0.3l0.9-2.6h0.4l0.9,2.6h-0.4l-0.3-0.8H498.9z M499.7,291.7l-0.3-0.7
		c-0.1-0.2-0.1-0.3-0.1-0.5h0c0,0.2-0.1,0.3-0.1,0.5l-0.3,0.7H499.7z"/>
	<path class="st2" d="M500.8,290.2h0.3v2.3h1.1v0.3h-1.4V290.2z"/>
	<path class="st2" d="M502.9,290.2v2.6h-0.3v-2.6H502.9z"/>
	<path class="st2" d="M503.5,290.3c0.2,0,0.4-0.1,0.7-0.1c0.5,0,0.8,0.1,1,0.3c0.2,0.2,0.4,0.5,0.4,0.9c0,0.4-0.1,0.8-0.4,1
		c-0.2,0.2-0.6,0.4-1.1,0.4c-0.2,0-0.4,0-0.6,0V290.3z M503.8,292.5c0.1,0,0.2,0,0.3,0c0.7,0,1.1-0.4,1.1-1.1c0-0.6-0.3-1-1-1
		c-0.2,0-0.3,0-0.4,0V292.5z"/>
	<path class="st2" d="M506.4,292l-0.3,0.8h-0.3l0.9-2.6h0.4l0.9,2.6h-0.4l-0.3-0.8H506.4z M507.2,291.7L507,291
		c-0.1-0.2-0.1-0.3-0.1-0.5h0c0,0.2-0.1,0.3-0.1,0.5l-0.3,0.7H507.2z"/>
</g>
<g>
	<path class="st2" d="M277,290.2h-1v0.9h1.1v0.3h-1.4v-2.6h1.4v0.3H276v0.8h1V290.2z"/>
	<path class="st2" d="M277.5,291.4v-2.6h0.4l0.8,1.3c0.2,0.3,0.3,0.6,0.5,0.8l0,0c0-0.3,0-0.7,0-1.1v-1.1h0.3v2.6h-0.3l-0.8-1.3
		c-0.2-0.3-0.3-0.6-0.5-0.9l0,0c0,0.3,0,0.6,0,1.1v1.1H277.5z"/>
	<path class="st2" d="M280.5,289.1h-0.8v-0.3h1.9v0.3h-0.8v2.3h-0.3V289.1z"/>
	<path class="st2" d="M281.9,288.8c0.2,0,0.4-0.1,0.6-0.1c0.4,0,0.6,0.1,0.7,0.2c0.1,0.1,0.2,0.3,0.2,0.5c0,0.3-0.2,0.6-0.5,0.7v0
		c0.2,0.1,0.3,0.3,0.4,0.5c0.1,0.4,0.1,0.6,0.2,0.7h-0.3c0-0.1-0.1-0.3-0.2-0.6c-0.1-0.4-0.2-0.5-0.5-0.5h-0.3v1.1h-0.3V288.8z
		 M282.2,290h0.3c0.4,0,0.6-0.2,0.6-0.5c0-0.3-0.2-0.5-0.6-0.5c-0.2,0-0.3,0-0.3,0V290z"/>
	<path class="st2" d="M284.4,290.6l-0.3,0.8h-0.3l0.9-2.6h0.4l0.9,2.6h-0.4l-0.3-0.8H284.4z M285.2,290.3l-0.3-0.7
		c-0.1-0.2-0.1-0.3-0.1-0.5h0c0,0.2-0.1,0.3-0.1,0.5l-0.3,0.7H285.2z"/>
	<path class="st2" d="M286.3,288.8c0.2,0,0.4-0.1,0.7-0.1c0.5,0,0.8,0.1,1,0.3c0.2,0.2,0.4,0.5,0.4,0.9c0,0.4-0.1,0.8-0.4,1
		c-0.2,0.2-0.6,0.4-1.1,0.4c-0.2,0-0.4,0-0.6,0V288.8z M286.6,291.1c0.1,0,0.2,0,0.3,0c0.7,0,1.1-0.4,1.1-1.1c0-0.6-0.3-1-1-1
		c-0.2,0-0.3,0-0.4,0V291.1z"/>
	<path class="st2" d="M289.2,290.6l-0.3,0.8h-0.3l0.9-2.6h0.4l0.9,2.6h-0.4l-0.3-0.8H289.2z M290,290.3l-0.3-0.7
		c-0.1-0.2-0.1-0.3-0.1-0.5h0c0,0.2-0.1,0.3-0.1,0.5l-0.3,0.7H290z"/>
</g>
<g>
	<path class="st2" d="M298.2,291c0.1,0.1,0.4,0.2,0.6,0.2c0.3,0,0.5-0.2,0.5-0.4c0-0.2-0.1-0.4-0.5-0.5c-0.4-0.1-0.7-0.4-0.7-0.7
		c0-0.4,0.3-0.7,0.8-0.7c0.3,0,0.5,0.1,0.6,0.1l-0.1,0.3c-0.1,0-0.3-0.1-0.5-0.1c-0.3,0-0.5,0.2-0.5,0.4c0,0.2,0.2,0.4,0.5,0.5
		c0.4,0.2,0.7,0.4,0.7,0.8c0,0.4-0.3,0.7-0.9,0.7c-0.2,0-0.5-0.1-0.7-0.2L298.2,291z"/>
	<path class="st2" d="M300.6,290.6l-0.3,0.8H300l0.9-2.6h0.4l0.9,2.6h-0.4l-0.3-0.8H300.6z M301.4,290.3l-0.3-0.7
		c-0.1-0.2-0.1-0.3-0.1-0.5h0c0,0.2-0.1,0.3-0.1,0.5l-0.3,0.7H301.4z"/>
	<path class="st2" d="M302.5,288.8h0.3v2.3h1.1v0.3h-1.4V288.8z"/>
	<path class="st2" d="M304.6,288.8v2.6h-0.3v-2.6H304.6z"/>
	<path class="st2" d="M305.2,288.9c0.2,0,0.4-0.1,0.7-0.1c0.5,0,0.8,0.1,1,0.3c0.2,0.2,0.4,0.5,0.4,0.9c0,0.4-0.1,0.8-0.4,1
		c-0.2,0.2-0.6,0.4-1.1,0.4c-0.2,0-0.4,0-0.6,0V288.9z M305.5,291.1c0.1,0,0.2,0,0.3,0c0.7,0,1.1-0.4,1.1-1.1c0-0.6-0.3-1-1-1
		c-0.2,0-0.3,0-0.4,0V291.1z"/>
	<path class="st2" d="M308.1,290.6l-0.3,0.8h-0.3l0.9-2.6h0.4l0.9,2.6h-0.4l-0.3-0.8H308.1z M308.9,290.3l-0.3-0.7
		c-0.1-0.2-0.1-0.3-0.1-0.5h0c0,0.2-0.1,0.3-0.1,0.5l-0.3,0.7H308.9z"/>
</g>
<g>
	<path class="st2" d="M201,314v1h0.9v-1.1h0.3v1.4h-2.6V314h0.3v1.1h0.8v-1H201z"/>
	<path class="st2" d="M202.2,313.5h-2.6v-0.4l1.3-0.8c0.3-0.2,0.6-0.3,0.8-0.5l0,0c-0.3,0-0.7,0-1.1,0h-1.1v-0.3h2.6v0.3l-1.3,0.8
		c-0.3,0.2-0.6,0.3-0.9,0.5l0,0c0.3,0,0.6,0,1.1,0h1.1V313.5z"/>
	<path class="st2" d="M199.9,310.5v0.8h-0.3v-1.9h0.3v0.8h2.3v0.3H199.9z"/>
	<path class="st2" d="M199.7,309.1c0-0.2-0.1-0.4-0.1-0.6c0-0.4,0.1-0.6,0.2-0.7c0.1-0.1,0.3-0.2,0.5-0.2c0.3,0,0.6,0.2,0.7,0.5h0
		c0.1-0.2,0.3-0.3,0.5-0.4c0.4-0.1,0.6-0.1,0.7-0.2v0.3c-0.1,0-0.3,0.1-0.6,0.2c-0.4,0.1-0.5,0.2-0.5,0.5v0.3h1.1v0.3H199.7z
		 M200.9,308.8v-0.3c0-0.4-0.2-0.6-0.5-0.6c-0.3,0-0.5,0.2-0.5,0.6c0,0.2,0,0.3,0,0.3H200.9z"/>
	<path class="st2" d="M201.4,306.6l0.8,0.3v0.3l-2.6-0.9V306l2.6-0.9v0.4l-0.8,0.3V306.6z M201.2,305.8l-0.7,0.3
		c-0.2,0.1-0.3,0.1-0.5,0.1v0c0.2,0,0.3,0.1,0.5,0.1l0.7,0.3V305.8z"/>
	<path class="st2" d="M199.7,304.7c0-0.2-0.1-0.4-0.1-0.7c0-0.5,0.1-0.8,0.3-1c0.2-0.2,0.5-0.4,0.9-0.4c0.4,0,0.8,0.1,1,0.4
		c0.2,0.2,0.4,0.6,0.4,1.1c0,0.2,0,0.4,0,0.6H199.7z M202,304.4c0-0.1,0-0.2,0-0.3c0-0.7-0.4-1.1-1.1-1.1c-0.6,0-1,0.3-1,1
		c0,0.2,0,0.3,0,0.4H202z"/>
	<path class="st2" d="M201.4,301.8l0.8,0.3v0.3l-2.6-0.9v-0.4l2.6-0.9v0.4l-0.8,0.3V301.8z M201.2,301l-0.7,0.3
		c-0.2,0.1-0.3,0.1-0.5,0.1v0c0.2,0,0.3,0.1,0.5,0.1l0.7,0.3V301z"/>
</g>
<g>
	<path class="st2" d="M201.8,292.7c0.1-0.1,0.2-0.4,0.2-0.6c0-0.3-0.2-0.5-0.4-0.5c-0.2,0-0.4,0.1-0.5,0.5c-0.1,0.4-0.4,0.7-0.7,0.7
		c-0.4,0-0.7-0.3-0.7-0.8c0-0.3,0.1-0.5,0.1-0.6l0.3,0.1c0,0.1-0.1,0.3-0.1,0.5c0,0.3,0.2,0.5,0.4,0.5c0.2,0,0.4-0.2,0.5-0.5
		c0.2-0.4,0.4-0.7,0.8-0.7c0.4,0,0.7,0.3,0.7,0.9c0,0.2-0.1,0.5-0.2,0.7L201.8,292.7z"/>
	<path class="st2" d="M201.4,290.4l0.8,0.3v0.3l-2.6-0.9v-0.4l2.6-0.9v0.4l-0.8,0.3V290.4z M201.2,289.6l-0.7,0.3
		c-0.2,0.1-0.3,0.1-0.5,0.1v0c0.2,0,0.3,0.1,0.5,0.1l0.7,0.3V289.6z"/>
	<path class="st2" d="M199.7,288.5v-0.3h2.3v-1.1h0.3v1.4H199.7z"/>
	<path class="st2" d="M199.7,286.4h2.6v0.3h-2.6V286.4z"/>
	<path class="st2" d="M199.7,285.8c0-0.2-0.1-0.4-0.1-0.7c0-0.5,0.1-0.8,0.3-1c0.2-0.2,0.5-0.4,0.9-0.4c0.4,0,0.8,0.1,1,0.4
		c0.2,0.2,0.4,0.6,0.4,1.1c0,0.2,0,0.4,0,0.6H199.7z M202,285.5c0-0.1,0-0.2,0-0.3c0-0.7-0.4-1.1-1.1-1.1c-0.6,0-1,0.3-1,1
		c0,0.2,0,0.3,0,0.4H202z"/>
	<path class="st2" d="M201.4,282.9l0.8,0.3v0.3l-2.6-0.9v-0.4l2.6-0.9v0.4l-0.8,0.3V282.9z M201.2,282.1l-0.7,0.3
		c-0.2,0.1-0.3,0.1-0.5,0.1v0c0.2,0,0.3,0.1,0.5,0.1l0.7,0.3V282.1z"/>
</g>
<g>
	<path class="st2" d="M675.4,316.7h-0.8v0.7h0.9v0.2h-1.1v-2h1.1v0.2h-0.8v0.6h0.8V316.7z"/>
	<path class="st2" d="M675.8,317.3c0.1,0.1,0.3,0.1,0.5,0.1c0.3,0,0.4-0.1,0.4-0.3c0-0.2-0.1-0.3-0.4-0.4c-0.3-0.1-0.5-0.3-0.5-0.6
		c0-0.3,0.3-0.6,0.7-0.6c0.2,0,0.4,0,0.4,0.1l-0.1,0.2c-0.1,0-0.2-0.1-0.4-0.1c-0.3,0-0.4,0.2-0.4,0.3c0,0.2,0.1,0.3,0.4,0.4
		c0.3,0.1,0.5,0.3,0.5,0.6c0,0.3-0.2,0.6-0.7,0.6c-0.2,0-0.4-0.1-0.5-0.1L675.8,317.3z"/>
	<path class="st2" d="M678.8,317.6c-0.1,0-0.3,0.1-0.5,0.1c-0.6,0-1-0.4-1-1c0-0.6,0.4-1.1,1.1-1.1c0.3,0,0.4,0.1,0.5,0.1l-0.1,0.2
		c-0.1,0-0.2-0.1-0.4-0.1c-0.5,0-0.8,0.3-0.8,0.8c0,0.5,0.3,0.8,0.8,0.8c0.2,0,0.3,0,0.4-0.1L678.8,317.6z"/>
	<path class="st2" d="M679.4,317l-0.2,0.6h-0.3l0.7-2h0.3l0.7,2h-0.3l-0.2-0.6H679.4z M680.1,316.8l-0.2-0.6c0-0.1-0.1-0.3-0.1-0.4
		h0c0,0.1-0.1,0.2-0.1,0.4l-0.2,0.6H680.1z"/>
	<path class="st2" d="M680.9,315.6h0.3v1.8h0.9v0.2h-1.1V315.6z"/>
	<path class="st2" d="M683.4,316.7h-0.8v0.7h0.9v0.2h-1.1v-2h1.1v0.2h-0.8v0.6h0.8V316.7z"/>
	<path class="st2" d="M683.8,315.6c0.1,0,0.3,0,0.5,0c0.3,0,0.5,0.1,0.6,0.2c0.1,0.1,0.2,0.2,0.2,0.4c0,0.3-0.2,0.4-0.4,0.5v0
		c0.2,0.1,0.2,0.2,0.3,0.4c0.1,0.3,0.1,0.5,0.2,0.6h-0.3c0-0.1-0.1-0.2-0.1-0.5c-0.1-0.3-0.2-0.4-0.4-0.4h-0.2v0.9h-0.3V315.6z
		 M684.1,316.6h0.3c0.3,0,0.5-0.2,0.5-0.4c0-0.3-0.2-0.4-0.5-0.4c-0.1,0-0.2,0-0.3,0V316.6z"/>
	<path class="st2" d="M685.8,317l-0.2,0.6h-0.3l0.7-2h0.3l0.7,2h-0.3l-0.2-0.6H685.8z M686.5,316.8l-0.2-0.6c0-0.1-0.1-0.3-0.1-0.4
		h0c0,0.1-0.1,0.2-0.1,0.4l-0.2,0.6H686.5z"/>
	<path class="st2" d="M687.3,317.3c0.1,0.1,0.3,0.1,0.5,0.1c0.3,0,0.4-0.1,0.4-0.3c0-0.2-0.1-0.3-0.4-0.4c-0.3-0.1-0.5-0.3-0.5-0.6
		c0-0.3,0.3-0.6,0.7-0.6c0.2,0,0.4,0,0.4,0.1l-0.1,0.2c-0.1,0-0.2-0.1-0.4-0.1c-0.3,0-0.4,0.2-0.4,0.3c0,0.2,0.1,0.3,0.4,0.4
		c0.3,0.1,0.5,0.3,0.5,0.6c0,0.3-0.2,0.6-0.7,0.6c-0.2,0-0.4-0.1-0.5-0.1L687.3,317.3z"/>
	<path class="st2" d="M690.5,316.7h-0.8v0.7h0.9v0.2h-1.1v-2h1.1v0.2h-0.8v0.6h0.8V316.7z"/>
	<path class="st2" d="M690.9,315.6h0.3v1.8h0.9v0.2h-1.1V315.6z"/>
	<path class="st2" d="M693.4,316.7h-0.8v0.7h0.9v0.2h-1.1v-2h1.1v0.2h-0.8v0.6h0.8V316.7z M693.3,315.2l-0.4,0.4h-0.2l0.3-0.4H693.3
		z"/>
	<path class="st2" d="M695.2,317.6c-0.1,0-0.3,0.1-0.5,0.1c-0.6,0-1-0.4-1-1c0-0.6,0.4-1.1,1.1-1.1c0.3,0,0.4,0.1,0.5,0.1l-0.1,0.2
		c-0.1,0-0.2-0.1-0.4-0.1c-0.5,0-0.8,0.3-0.8,0.8c0,0.5,0.3,0.8,0.8,0.8c0.2,0,0.3,0,0.4-0.1L695.2,317.6z"/>
	<path class="st2" d="M696,315.8h-0.6v-0.2h1.5v0.2h-0.6v1.8H696V315.8z"/>
	<path class="st2" d="M697.1,315.6c0.1,0,0.3,0,0.5,0c0.3,0,0.5,0.1,0.6,0.2c0.1,0.1,0.2,0.2,0.2,0.4c0,0.3-0.2,0.4-0.4,0.5v0
		c0.2,0.1,0.2,0.2,0.3,0.4c0.1,0.3,0.1,0.5,0.2,0.6h-0.3c0-0.1-0.1-0.2-0.1-0.5c-0.1-0.3-0.2-0.4-0.4-0.4h-0.2v0.9h-0.3V315.6z
		 M697.4,316.6h0.3c0.3,0,0.5-0.2,0.5-0.4c0-0.3-0.2-0.4-0.5-0.4c-0.1,0-0.2,0-0.3,0V316.6z"/>
	<path class="st2" d="M699,315.6v2h-0.3v-2H699z"/>
	<path class="st2" d="M700.8,317.6c-0.1,0-0.3,0.1-0.5,0.1c-0.6,0-1-0.4-1-1c0-0.6,0.4-1.1,1.1-1.1c0.3,0,0.4,0.1,0.5,0.1l-0.1,0.2
		c-0.1,0-0.2-0.1-0.4-0.1c-0.5,0-0.8,0.3-0.8,0.8c0,0.5,0.3,0.8,0.8,0.8c0.2,0,0.3,0,0.4-0.1L700.8,317.6z"/>
	<path class="st2" d="M701.5,317l-0.2,0.6H701l0.7-2h0.3l0.7,2h-0.3l-0.2-0.6H701.5z M702.2,316.8l-0.2-0.6c0-0.1-0.1-0.3-0.1-0.4h0
		c0,0.1-0.1,0.2-0.1,0.4l-0.2,0.6H702.2z"/>
	<path class="st2" d="M703,317.3c0.1,0.1,0.3,0.1,0.5,0.1c0.3,0,0.4-0.1,0.4-0.3c0-0.2-0.1-0.3-0.4-0.4c-0.3-0.1-0.5-0.3-0.5-0.6
		c0-0.3,0.3-0.6,0.7-0.6c0.2,0,0.4,0,0.4,0.1l-0.1,0.2c-0.1,0-0.2-0.1-0.4-0.1c-0.3,0-0.4,0.2-0.4,0.3c0,0.2,0.1,0.3,0.4,0.4
		c0.3,0.1,0.5,0.3,0.5,0.6c0,0.3-0.2,0.6-0.7,0.6c-0.2,0-0.4-0.1-0.5-0.1L703,317.3z"/>
</g>
<g>
	<path class="st2" d="M267.6,316.4h-0.8v0.7h0.9v0.2h-1.1v-2h1.1v0.2h-0.8v0.6h0.8V316.4z"/>
	<path class="st2" d="M268,317c0.1,0.1,0.3,0.1,0.5,0.1c0.3,0,0.4-0.1,0.4-0.3c0-0.2-0.1-0.3-0.4-0.4c-0.3-0.1-0.5-0.3-0.5-0.6
		c0-0.3,0.3-0.6,0.7-0.6c0.2,0,0.4,0,0.4,0.1l-0.1,0.2c-0.1,0-0.2-0.1-0.4-0.1c-0.3,0-0.4,0.2-0.4,0.3c0,0.2,0.1,0.3,0.4,0.4
		c0.3,0.1,0.5,0.3,0.5,0.6c0,0.3-0.2,0.6-0.7,0.6c-0.2,0-0.4-0.1-0.5-0.1L268,317z"/>
	<path class="st2" d="M271,317.3c-0.1,0-0.3,0.1-0.5,0.1c-0.6,0-1-0.4-1-1c0-0.6,0.4-1.1,1.1-1.1c0.3,0,0.4,0.1,0.5,0.1l-0.1,0.2
		c-0.1,0-0.2-0.1-0.4-0.1c-0.5,0-0.8,0.3-0.8,0.8c0,0.5,0.3,0.8,0.8,0.8c0.2,0,0.3,0,0.4-0.1L271,317.3z"/>
	<path class="st2" d="M271.6,316.7l-0.2,0.6h-0.3l0.7-2h0.3l0.7,2h-0.3l-0.2-0.6H271.6z M272.3,316.5l-0.2-0.6
		c0-0.1-0.1-0.3-0.1-0.4h0c0,0.1-0.1,0.2-0.1,0.4l-0.2,0.6H272.3z"/>
	<path class="st2" d="M273.1,315.3h0.3v1.8h0.9v0.2h-1.1V315.3z"/>
	<path class="st2" d="M275.6,316.4h-0.8v0.7h0.9v0.2h-1.1v-2h1.1v0.2h-0.8v0.6h0.8V316.4z"/>
	<path class="st2" d="M276,315.3c0.1,0,0.3,0,0.5,0c0.3,0,0.5,0.1,0.6,0.2c0.1,0.1,0.2,0.2,0.2,0.4c0,0.3-0.2,0.4-0.4,0.5v0
		c0.2,0.1,0.2,0.2,0.3,0.4c0.1,0.3,0.1,0.5,0.2,0.6h-0.3c0-0.1-0.1-0.2-0.1-0.5c-0.1-0.3-0.2-0.4-0.4-0.4h-0.2v0.9H276V315.3z
		 M276.3,316.3h0.3c0.3,0,0.5-0.2,0.5-0.4c0-0.3-0.2-0.4-0.5-0.4c-0.1,0-0.2,0-0.3,0V316.3z"/>
	<path class="st2" d="M278,316.7l-0.2,0.6h-0.3l0.7-2h0.3l0.7,2h-0.3l-0.2-0.6H278z M278.6,316.5l-0.2-0.6c0-0.1-0.1-0.3-0.1-0.4h0
		c0,0.1-0.1,0.2-0.1,0.4l-0.2,0.6H278.6z"/>
	<path class="st2" d="M279.4,317c0.1,0.1,0.3,0.1,0.5,0.1c0.3,0,0.4-0.1,0.4-0.3c0-0.2-0.1-0.3-0.4-0.4c-0.3-0.1-0.5-0.3-0.5-0.6
		c0-0.3,0.3-0.6,0.7-0.6c0.2,0,0.4,0,0.4,0.1l-0.1,0.2c-0.1,0-0.2-0.1-0.4-0.1c-0.3,0-0.4,0.2-0.4,0.3c0,0.2,0.1,0.3,0.4,0.4
		c0.3,0.1,0.5,0.3,0.5,0.6c0,0.3-0.2,0.6-0.7,0.6c-0.2,0-0.4-0.1-0.5-0.1L279.4,317z"/>
	<path class="st2" d="M282.6,316.4h-0.8v0.7h0.9v0.2h-1.1v-2h1.1v0.2h-0.8v0.6h0.8V316.4z"/>
	<path class="st2" d="M283.1,315.3h0.3v1.8h0.9v0.2h-1.1V315.3z"/>
	<path class="st2" d="M285.5,316.4h-0.8v0.7h0.9v0.2h-1.1v-2h1.1v0.2h-0.8v0.6h0.8V316.4z M285.5,314.8l-0.4,0.4h-0.2l0.3-0.4H285.5
		z"/>
	<path class="st2" d="M287.4,317.3c-0.1,0-0.3,0.1-0.5,0.1c-0.6,0-1-0.4-1-1c0-0.6,0.4-1.1,1.1-1.1c0.3,0,0.4,0.1,0.5,0.1l-0.1,0.2
		c-0.1,0-0.2-0.1-0.4-0.1c-0.5,0-0.8,0.3-0.8,0.8c0,0.5,0.3,0.8,0.8,0.8c0.2,0,0.3,0,0.4-0.1L287.4,317.3z"/>
	<path class="st2" d="M288.2,315.5h-0.6v-0.2h1.5v0.2h-0.6v1.8h-0.3V315.5z"/>
	<path class="st2" d="M289.3,315.3c0.1,0,0.3,0,0.5,0c0.3,0,0.5,0.1,0.6,0.2c0.1,0.1,0.2,0.2,0.2,0.4c0,0.3-0.2,0.4-0.4,0.5v0
		c0.2,0.1,0.2,0.2,0.3,0.4c0.1,0.3,0.1,0.5,0.2,0.6h-0.3c0-0.1-0.1-0.2-0.1-0.5c-0.1-0.3-0.2-0.4-0.4-0.4h-0.2v0.9h-0.3V315.3z
		 M289.5,316.3h0.3c0.3,0,0.5-0.2,0.5-0.4c0-0.3-0.2-0.4-0.5-0.4c-0.1,0-0.2,0-0.3,0V316.3z"/>
	<path class="st2" d="M291.2,315.3v2h-0.3v-2H291.2z"/>
	<path class="st2" d="M293,317.3c-0.1,0-0.3,0.1-0.5,0.1c-0.6,0-1-0.4-1-1c0-0.6,0.4-1.1,1.1-1.1c0.3,0,0.4,0.1,0.5,0.1l-0.1,0.2
		c-0.1,0-0.2-0.1-0.4-0.1c-0.5,0-0.8,0.3-0.8,0.8c0,0.5,0.3,0.8,0.8,0.8c0.2,0,0.3,0,0.4-0.1L293,317.3z"/>
	<path class="st2" d="M293.7,316.7l-0.2,0.6h-0.3l0.7-2h0.3l0.7,2h-0.3l-0.2-0.6H293.7z M294.4,316.5l-0.2-0.6
		c0-0.1-0.1-0.3-0.1-0.4h0c0,0.1-0.1,0.2-0.1,0.4l-0.2,0.6H294.4z"/>
	<path class="st2" d="M295.2,317c0.1,0.1,0.3,0.1,0.5,0.1c0.3,0,0.4-0.1,0.4-0.3c0-0.2-0.1-0.3-0.4-0.4c-0.3-0.1-0.5-0.3-0.5-0.6
		c0-0.3,0.3-0.6,0.7-0.6c0.2,0,0.4,0,0.4,0.1l-0.1,0.2c-0.1,0-0.2-0.1-0.4-0.1c-0.3,0-0.4,0.2-0.4,0.3c0,0.2,0.1,0.3,0.4,0.4
		c0.3,0.1,0.5,0.3,0.5,0.6c0,0.3-0.2,0.6-0.7,0.6c-0.2,0-0.4-0.1-0.5-0.1L295.2,317z"/>
</g>
<g>
	<polygon points="575.4,52.9 575.4,42.6 607.2,42.6 601.4,52.9 	"/>
	<g>
		<text transform="matrix(1 0 0 1 698.6235 75.1843)" class="st4 st5">MXICO</text>
		<path d="M675.7,44.1c-18.3-0.5-15-7.3-15-7.3c-1.3-5.5,5.3-5.7,5.3-5.7h15.7l5.7-9.7h-24.5c-12.6,1.3-13,13.4-13,13.4
			c-1.6-12.3-15.2-13.4-15.2-13.4h-59.3v8.8h32.2l4.9-6v17.4l10.1-4.9v-5.9h11.9c6.2,0.9,5.9,6.4,5.9,6.4c-0.5,4.4-5.9,5.9-5.9,5.9
			h-22.3v20.1l10.2-5.5v-5.5h15.2c4,0.4,4.8,4.4,4.8,4.4c2.2,6.4-4.6,9.3-4.6,9.3h-62.4v8.2h100.8c13-2.7,12.3-15.6,12.3-15.6
			C689.2,45,675.7,44.1,675.7,44.1z M678.4,58.9c0,0,0,5.7-4.8,6.2h-22.5c0,0,6.7-10.5-3.1-17.4c0,0,2.5-1.3,1.8-8.6
			c0,0,3.5,14.3,19.9,12.4C669.8,51.6,679.1,52,678.4,58.9z"/>
	</g>
</g>
</svg>
