<?xml version="1.0" encoding="utf-8"?>
<!-- Generator: Adobe Illustrator 24.3.0, SVG Export Plug-In . SVG Version: 6.00 Build 0)  -->
<svg version="1.1" id="Capa_1" xmlns="http://www.w3.org/2000/svg" xmlns:xlink="http://www.w3.org/1999/xlink" x="0px" y="0px"
	 width="800px" height="800px" viewBox="0 0 800 800" style="enable-background:new 0 0 800 800;" xml:space="preserve">
<style type="text/css">
	.st0{enable-background:new    ;}
	.st1{fill:#FF0068;}
</style>
<g>
	<g>
		<g class="st0">
			<g>
				<path class="st1" d="M308.1,277.4c-0.1,0-0.1,0-0.2-0.1c0,0-0.1,0-0.1,0c-0.1,0-0.1,0-0.2-0.1c-0.1,0-0.2,0-0.2-0.1
					c-0.1,0-0.2,0-0.2-0.1c-0.1,0-0.2,0-0.2-0.1c-0.1,0-0.1,0-0.2-0.1c-0.1,0-0.1,0-0.2-0.1c-0.8-0.2-1.9-0.5-2.7-0.7
					c-1.7-0.4-3.9-1-5.5-1.5c-1.7-0.5-4.1-1.1-5.8-1.6c-1.8-0.5-4.2-1.1-6-1.6c-1.8-0.5-4.2-1.1-6-1.6c-1.8-0.5-4.2-1.1-6-1.6
					c-1.7-0.5-4.1-1.1-5.8-1.6c-1.7-0.4-3.9-1-5.5-1.5c-0.8-0.2-1.8-0.7-2.6-0.7c4.5-30.8,19.2-58.7,40-79.7
					c23.9-24.1,55.9-39.2,90-39.2c0.7,0,1.4,0,2.1,0c10.3,0.2,20.3,1.6,29.8,4.2l47.6,12.8c-9.5-2.6-19.5-4-29.8-4.2
					c-0.7,0-1.4,0-2.1,0c-34.1,0-66.1,15.1-90,39.2C327.3,218.7,312.6,246.6,308.1,277.4z"/>
			</g>
			<g>
				<path class="st1" d="M306.7,293.8c-1.8,63,38.4,117,93.7,131.9l-47.6-12.8C297.5,398,257.3,344,259.1,281c0-0.8,0.1-1.7,0.1-2.5
					c0.2-4.7,0.7-9.3,1.3-13.8c15.9,4.3,31.7,8.5,47.6,12.8c-0.7,4.6-1.1,9.2-1.3,13.8C306.7,292.1,306.7,292.9,306.7,293.8z"/>
			</g>
			<g>
				<path d="M421.5,152.7l47.6,12.8c-9.3-2.5-18.9-3.9-28.9-4.1c-0.7,0-1.4,0-2,0c-33.3,0-64.6,14.7-88,38.4
					c-23.4,23.6-38.9,56.1-40.5,91.5c0,0.8-0.1,1.6-0.1,2.5c-1.8,61.6,37.6,114.6,91.8,129.1l-47.6-12.8
					c-54.2-14.6-93.5-67.5-91.8-129.1c0-0.8,0.1-1.6,0.1-2.5c1.6-35.4,17.1-67.9,40.5-91.5c23.4-23.6,54.7-38.4,88-38.4
					c0.7,0,1.3,0,2,0C402.5,148.8,412.2,150.2,421.5,152.7z"/>
			</g>
			<g>
				<path class="st1" d="M505.7,27.4c2.1,0.6,4.1,1.1,6.2,1.7c-1.7-0.4-3.9-1-5.6-1.5c-1.8-0.5-4.1-1.1-5.9-1.6
					c-1.8-0.5-4.3-1.2-6.1-1.6c-1.9-0.5-4.4-1.2-6.2-1.7c-1.9-0.5-4.4-1.2-6.2-1.7c-1.8-0.5-4.3-1.1-6.1-1.6
					c-1.8-0.5-4.1-1.1-5.9-1.6c-1.7-0.4-3.9-1-5.5-1.5c-2.1-0.6-4.1-1.2-6.2-1.7C472.4,18.4,491.4,23.5,505.7,27.4z"/>
			</g>
			<g>
				<path d="M458.2,14.6l47.6,12.8c-19.6-5.3-40-8.1-60.8-8.1c-17.1,0-34.5,1.9-51.8,5.9C343.3,36.6,300.9,58,266.7,89.3
					c-34.2,31.3-60.1,72.5-76.7,123.7c-9.8,30-15,59-15.8,87.2c-1.9,66.9,21.2,128.5,68,183.2c53.8,62.8,101,130.2,136.1,206.6
					c15.6,34,28.9,69.2,43.4,104.5l-47.6-12.8c-14.5-35.3-27.8-70.5-43.4-104.5c-35.1-76.5-82.4-143.9-136.1-206.6
					c-46.8-54.7-69.9-116.2-68-183.2c0.8-28.1,6-57.2,15.8-87.2c16.7-51.2,42.6-92.4,76.7-123.7c34.2-31.3,76.6-52.7,126.5-64.1
					c17.4-4,34.7-5.9,51.8-5.9C418.2,6.6,438.6,9.3,458.2,14.6z"/>
			</g>
			<g>
				<path class="st1" d="M424.4,789c-0.8,1.8-1.7,3.6-2.7,5.5l-47.6-12.8c1-1.9,1.9-3.7,2.7-5.5C392.7,780.5,408.6,784.8,424.4,789z
					"/>
			</g>
			<g>
				<path d="M422.2,149.9l47.6,12.8c23.1,6.2,43.5,19,59.4,36.3c22.4,24.3,35.8,57.6,34.8,93.8c0,0.7,0,1.4-0.1,2.1
					c-3.3,75.1-62.3,134.9-132.6,134.9c-0.5,0-1,0-1.5,0c-10.1-0.1-19.9-1.5-29.3-4l-47.6-12.8c9.4,2.5,19.2,3.9,29.3,4
					c0.5,0,1,0,1.5,0c70.3,0,129.3-59.9,132.6-134.9c0-0.7,0.1-1.4,0.1-2.1c1-36.2-12.4-69.5-34.8-93.8
					C465.7,168.9,445.3,156.1,422.2,149.9z"/>
			</g>
			<g>
				<path d="M392.6,145.7c35.1,0.6,66.6,16.1,89,40.4c22.4,24.3,35.8,57.6,34.8,93.8c0,0.7,0,1.4-0.1,2.1
					C513.1,357.1,454.1,417,383.7,417c-0.5,0-1,0-1.5,0c-69.9-0.9-125.2-62.3-123.1-136c0-0.8,0.1-1.7,0.1-2.5
					c1.7-36.3,17.5-69.4,41.4-93.6c23.9-24.1,55.9-39.2,90-39.2C391.3,145.7,392,145.7,392.6,145.7z M513.6,282
					c0-0.7,0.1-1.4,0.1-2.1c1-35.4-12.1-67.9-34-91.7c-22-23.8-52.7-38.9-87.1-39.6c-0.7,0-1.4,0-2,0c-33.3,0-64.6,14.7-88,38.4
					c-23.4,23.6-38.9,56.1-40.5,91.5c0,0.8-0.1,1.6-0.1,2.5c-2.1,72.1,52.1,132.3,120.4,133.1c0.5,0,1,0,1.5,0
					C452.6,414.1,510.4,355.5,513.6,282"/>
			</g>
			<g>
				<path class="st1" d="M688.9,222.7c-0.1,0-0.3-0.1-0.5-0.1c-0.1,0-0.3-0.1-0.5-0.1c-0.2,0-0.4-0.1-0.5-0.1
					c-0.2,0-0.4-0.1-0.5-0.1s-0.4-0.1-0.5-0.1c-0.2,0-0.4-0.1-0.5-0.1c-0.1,0-0.3-0.1-0.5-0.1c-0.1,0-0.3-0.1-0.5-0.1
					c-1.5-0.4-3.6-1-5.1-1.4c-1.6-0.4-3.8-1-5.4-1.5c-1.7-0.5-3.9-1.1-5.6-1.5c-1.7-0.5-4-1.1-5.7-1.5c-1.7-0.5-4-1.1-5.7-1.5
					c-1.7-0.5-3.9-1.1-5.6-1.5c-1.6-0.4-3.8-1-5.4-1.4c-1.5-0.4-3.6-1-5.1-1.4C629.3,155,600.7,107.4,562,72
					c-28.1-25.7-61.6-44.9-97.7-55.7c15.9,4.3,31.7,8.5,47.6,12.8c36.2,10.7,69.6,29.9,97.7,55.7
					C648.3,120.1,676.9,167.8,688.9,222.7z"/>
			</g>
			<g>
				<path class="st1" d="M688.9,222.7c1.9,8.7,3.4,17.6,4.4,26.7l-47.6-12.8c-1-9.1-2.5-17.9-4.4-26.7
					C657.1,214.1,673,218.4,688.9,222.7z"/>
			</g>
			<g>
				<path d="M459,11.8l47.6,12.8c38.9,10.5,74.9,30.6,104.9,58c45.3,41.4,77,99.5,84.6,166.4l-47.6-12.8
					c-7.6-66.8-39.3-124.9-84.6-166.4C533.9,42.3,497.9,22.2,459,11.8z"/>
			</g>
			<g>
				<path class="st1" d="M691.3,338.2c-0.6-0.2-1.5-0.4-2.1-0.6c-0.7-0.2-1.6-0.4-2.2-0.6c-0.7-0.2-1.6-0.4-2.3-0.6
					c-0.7-0.2-1.7-0.4-2.4-0.6c-0.7-0.2-1.7-0.4-2.4-0.6c-0.7-0.2-1.6-0.4-2.3-0.6c-0.7-0.2-1.6-0.4-2.2-0.6
					c-0.6-0.2-1.5-0.4-2.1-0.6c-1-0.3-2.4-0.6-3.4-0.9c-1.1-0.3-2.6-0.7-3.6-1c-1.1-0.3-2.6-0.7-3.8-1c-1.2-0.3-2.7-0.7-3.8-1
					c-1.2-0.3-2.7-0.7-3.8-1c-1.1-0.3-2.6-0.7-3.8-1c-1.1-0.3-2.6-0.7-3.6-1c-1-0.3-2.4-0.6-3.4-0.9c2.3-13.5,3.7-27.3,4.1-41.4
					c0.4-15.4-0.3-31.3-2.1-47.4l47.6,12.8c1.8,16.2,2.5,32,2.1,47.4C695,310.9,693.6,324.7,691.3,338.2z"/>
			</g>
			<g>
				<path class="st1" d="M424.4,789c-0.3-0.1-0.8-0.2-1.1-0.3c-0.4-0.1-0.8-0.2-1.2-0.3c-0.4-0.1-0.9-0.2-1.2-0.3
					c-0.4-0.1-0.9-0.2-1.2-0.3c-0.4-0.1-0.9-0.2-1.2-0.3c-0.4-0.1-0.9-0.2-1.2-0.3c-0.4-0.1-0.8-0.2-1.2-0.3
					c-0.3-0.1-0.8-0.2-1.1-0.3c-12.7-3.4-25.4-6.8-38.1-10.2c0.1-0.2,0.2-0.4,0.2-0.6C421.7,661,486.8,560.5,569.4,471.7
					c40.4-43.4,65-92.4,74.3-146.4c15.9,4.3,31.7,8.5,47.6,12.8c-9.3,54-33.9,102.9-74.3,146.4c-82.6,88.7-147.7,189.2-192.3,303.9
					C424.6,788.6,424.5,788.8,424.4,789z"/>
			</g>
			<g>
				<path class="st1" d="M645.7,236.5c1.8,16.2,2.5,32,2.1,47.4c-2,70.6-27.8,133.5-78.4,187.8C486.8,560.5,421.7,661,377.1,775.6
					c-0.8,2-1.8,4-2.9,6.1c-14.5-35.3-27.8-70.5-43.4-104.5c-35.1-76.5-82.4-143.9-136.1-206.6c-46.8-54.7-69.9-116.2-68-183.2
					c0.8-28.1,6-57.2,15.8-87.2c16.7-51.2,42.6-92.4,76.7-123.7c34.2-31.3,76.6-52.7,126.5-64.1c17.4-4,34.7-5.9,51.8-5.9
					C458.9,6.6,517.2,31,562,72S638.2,170.5,645.7,236.5z M516.4,282.1c0-0.7,0.1-1.4,0.1-2.1c1-36.2-12.4-69.5-34.8-93.8
					c-22.4-24.3-53.9-39.8-89-40.4c-0.7,0-1.4,0-2.1,0c-34.1,0-66.1,15.1-90,39.2c-23.9,24.1-39.7,57.3-41.4,93.6
					c0,0.8-0.1,1.7-0.1,2.5c-2.1,73.7,53.2,135.1,123.1,136c0.5,0,1,0,1.5,0C454.1,417,513.1,357.1,516.4,282.1"/>
			</g>
			<g>
				<path d="M648.4,236.1c1.9,16.3,2.6,32.3,2.1,47.9c-2,71.3-28.2,135-79.2,189.8C489,562.2,424.1,662.4,379.7,776.7
					c-1.2,3.2-2.9,6.1-4.4,9.1c-17.5-36.3-31-72.4-47-107.2c-35-76.1-82.1-143.3-135.7-206c-47.2-55.1-70.6-117.4-68.7-185.2
					c0.8-28.5,6.1-57.9,15.9-88.1c16.8-51.6,43-93.4,77.6-125c34.6-31.7,77.5-53.3,127.8-64.8c17.6-4,35.1-5.9,52.4-5.9
					c62.1,0,121,24.7,166.3,66.1C609.1,111.2,640.8,169.3,648.4,236.1z M569.4,471.7c50.5-54.3,76.3-117.2,78.4-187.8
					c0.4-15.4-0.3-31.3-2.1-47.4C638.2,170.5,606.8,113,562,72S458.9,6.6,397.5,6.6c-17.1,0-34.5,1.9-51.8,5.9
					c-49.9,11.4-92.3,32.8-126.5,64.1c-34.2,31.3-60.1,72.5-76.7,123.7c-9.8,30-15,59-15.8,87.2c-1.9,66.9,21.2,128.5,68,183.2
					c53.8,62.8,101,130.2,136.1,206.6c15.6,34,28.9,69.2,43.4,104.5c1.1-2.1,2.1-4.1,2.9-6.1C421.7,661,486.8,560.5,569.4,471.7"/>
			</g>
			<g>
				<path d="M648.4,236.1l47.6,12.8c1.9,16.3,2.6,32.3,2.1,47.9c-2,71.3-28.2,135-79.2,189.8C536.6,575,471.7,675.2,427.3,789.5
					c-1.2,3.2-2.9,6.1-4.4,9.1l-47.6-12.8c1.5-3,3.2-5.9,4.4-9.1C424.1,662.4,489,562.2,571.4,473.8c51-54.8,77.2-118.5,79.2-189.8
					C651,268.4,650.3,252.4,648.4,236.1z"/>
			</g>
		</g>
	</g>
</g>
</svg>
