<?xml version="1.0" encoding="utf-8"?>
<!-- Generator: Adobe Illustrator 26.0.0, SVG Export Plug-In . SVG Version: 6.00 Build 0)  -->
<!DOCTYPE svg PUBLIC "-//W3C//DTD SVG 1.1//EN" "http://www.w3.org/Graphics/SVG/1.1/DTD/svg11.dtd" [
	<!ENTITY st0 "fill:#7690FF;">
	<!ENTITY st1 "fill:#FFFFFF;stroke:#000000;stroke-width:0.799;stroke-linecap:round;stroke-linejoin:round;stroke-miterlimit:10;">
]>
<svg version="1.1" id="Capa_1" xmlns="http://www.w3.org/2000/svg" xmlns:xlink="http://www.w3.org/1999/xlink" x="0px" y="0px"
	 width="80px" height="80px" viewBox="0 0 80 80" style="enable-background:new 0 0 80 80;" xml:space="preserve">
<g>
	<circle style="&st0;" cx="40" cy="40" r="38.2"/>
	<g>
		<path style="&st1;" d="M65,19.8v45.1h-4.6c0,0-4.6,0.1-6.5-1.4c0,0-7.1-4.5-12.8-0.6c0,0-6.7,2.5-7.9,2l-10.7,0
			c0,0,7.5-0.7,6.1-9.2V19.8h3.4c0,0,4.1,0.1,6.7-1.4c0,0,7.9-3.4,11.2-1.7c0,0,6.5,3.4,9.5,3L65,19.8z"/>
		<path style="&st1;" d="M28.5,19.8c0,0-1.2-4.5-6.7-4.6c0,0-5.6-0.1-6.8,4.9v38.6l4.7-5.9l4.2,0.3l1.4,1.2l3.3,1.4V19.8z"/>
		<circle style="&st1;" cx="21.8" cy="58" r="6.9"/>
		<circle style="&st1;" cx="21.8" cy="58" r="2.1"/>
	</g>
</g>
</svg>
