<?xml version="1.0" encoding="utf-8"?>
<!-- Generator: Adobe Illustrator 26.0.0, SVG Export Plug-In . SVG Version: 6.00 Build 0)  -->
<!DOCTYPE svg PUBLIC "-//W3C//DTD SVG 1.1//EN" "http://www.w3.org/Graphics/SVG/1.1/DTD/svg11.dtd" [
	<!ENTITY st0 "fill:#277AFF;">
	
		<!ENTITY st1 "fill:#FFFFFF;stroke:#000000;stroke-width:0.7991;stroke-linecap:round;stroke-linejoin:round;stroke-miterlimit:10;">
]>
<svg version="1.1" id="Capa_1" xmlns="http://www.w3.org/2000/svg" xmlns:xlink="http://www.w3.org/1999/xlink" x="0px" y="0px"
	 width="80px" height="80px" viewBox="0 0 80 80" style="enable-background:new 0 0 80 80;" xml:space="preserve">
<g>
	<circle style="&st0;" cx="40" cy="40" r="38.3"/>
	<path style="&st1;" d="M22.3,30.3c1-1.5,1.9-3,2.9-4.5c0.3-0.4,0.5-0.8,0.8-1.2c0.3-0.5,0.8-0.7,1.4-0.7c8.4,0,16.9,0,25.3,0
		c0.6,0,1.1,0.3,1.4,0.8c0.9,1.5,1.9,3,2.8,4.4c0.1,0.1,0.1,0.2,0.2,0.3c0,0.1,0,0.2,0.1,0.3c0.3,0.5,0.6,1,0.9,1.5
		c0.1,0.2,0.3,0.3,0.5,0.3c0.6,0,1.1,0,1.7,0c0.7,0,1.3,0.5,1.5,1.1c0.1,0.7-0.2,1.3-0.9,1.6c-0.3,0.1-0.5,0.1-0.9,0.2
		c0.5,0.8,1,1.5,1.5,2.3c0.9,1.4,1.6,2.9,2,4.6c0,0.2,0.1,0.4,0.2,0.6c0,0.1,0,0.1,0,0.2c0.2,0.8,0.2,1.6,0.3,2.5c0,2,0,4,0,6
		c0,1.4,0,2.8,0,4.1c0,1-0.8,1.7-1.7,1.7c-1.4,0-2.7,0-4.1,0c-1,0-1.8-0.8-1.8-1.8c0-0.9,0-1.7,0-2.6c0-0.3-0.1-0.3-0.4-0.3
		c-1.7,0-3.4,0-5.1,0c-4.2,0-8.4,0-12.7,0c-0.5,0-1,0-1.5,0c-4.2,0-8.4,0-12.6,0c-0.3,0-0.4,0.1-0.4,0.4c0,0.9,0,1.7,0,2.6
		c0,0.7-0.4,1.3-1,1.5c-0.3,0.1-0.6,0.2-0.9,0.2c-1.3,0-2.5,0-3.8,0c-1.1,0-1.9-0.8-1.9-1.9c0-3.2,0-6.3,0-9.5c0-0.2,0-0.4,0-0.6
		c0.1-0.8,0.1-1.6,0.3-2.4c0.3-1.7,1-3.3,1.9-4.8c0.5-0.7,0.9-1.4,1.4-2.2c0.1-0.2,0.3-0.4,0.3-0.6c-0.1,0-0.2,0-0.3,0
		c-0.3,0-0.5-0.1-0.8-0.3c-0.5-0.3-0.8-0.9-0.6-1.5c0.2-0.6,0.8-1.1,1.5-1.1c0.6,0,1.2,0,1.8,0c0.1,0,0.2,0,0.3-0.1
		C22,30.9,22.2,30.7,22.3,30.3z M40,34.9c1.5,0,2.9,0,4.4,0c3.8,0,7.6,0,11.4,0c0.1,0,0.2,0,0.3,0c0.1-0.1-0.1-0.2-0.1-0.3
		c-1.6-2.5-3.1-5-4.7-7.5c-0.3-0.4-0.6-0.6-1.2-0.6c-6.7,0-13.4,0-20,0c-0.5,0-0.9,0.2-1.2,0.7c-1.5,2.5-3.1,5-4.6,7.5
		c-0.1,0.1-0.2,0.2-0.1,0.3c0.1,0.1,0.2,0,0.3,0C29.6,34.9,34.8,34.9,40,34.9z M40,44.1c3.7,0,7.5,0,11.2,0c0.4,0,0.4,0,0.4-0.4
		c0-0.8,0-1.5,0-2.3c0-0.3-0.1-0.4-0.4-0.4c-7.5,0-15,0-22.5,0c-0.3,0-0.4,0.1-0.4,0.3c0,0.7,0,1.5,0,2.2c0,0.5-0.1,0.5,0.4,0.5
		C32.5,44.1,36.3,44.1,40,44.1z M57.6,45.1c0.1,0,0.3,0,0.4,0c0.2,0,0.4-0.1,0.6-0.2c1.7-0.6,2.2-2.7,1-4c-1-1-2.7-1.1-3.8-0.2
		c-1.2,1-1.2,2.6-0.1,3.6C56.2,44.9,56.8,45.1,57.6,45.1z M22.5,45.1c0.3,0,0.6,0,0.8-0.1c1.8-0.5,2.5-2.5,1.4-3.9
		c-1-1.2-2.8-1.3-4-0.4c-1.1,0.9-1.3,2.3-0.4,3.4C20.8,44.8,21.6,45.1,22.5,45.1z"/>
</g>
</svg>
