<?xml version="1.0" encoding="utf-8"?>
<!-- Generator: Adobe Illustrator 26.0.0, SVG Export Plug-In . SVG Version: 6.00 Build 0)  -->
<svg version="1.1" id="Capa_1" xmlns="http://www.w3.org/2000/svg" xmlns:xlink="http://www.w3.org/1999/xlink" x="0px" y="0px"
	 width="80px" height="80px" viewBox="0 0 80 80" style="enable-background:new 0 0 80 80;" xml:space="preserve">
<style type="text/css">
	.st0{fill:#81DA00;}
	.st1{fill:#FFFFFF;}
</style>
<g>
	<circle class="st0" cx="40" cy="40" r="38"/>
	<g>
		<path class="st1" d="M55.1,19.3v-4.1c-10.1,0-20.2,0-30.3,0v5.8c0,13.7,0,27.4,0,41.1c0,0.2,0,0.5,0,0.7c0,0.9,0.6,1.6,1.5,1.8
			c0.9,0.2,1.8-0.3,2.1-1.1c0.1-0.1,0.1-0.2,0.1-0.4c0.5,1.1,1.1,1.6,2,1.5c1-0.1,1.5-0.6,1.8-1.6c0.3,1,0.9,1.6,2,1.6
			c0.9,0,1.5-0.6,1.8-1.6c0.3,1,0.9,1.6,1.9,1.6c1,0,1.6-0.6,1.9-1.5c0.5,1.1,1.1,1.6,1.9,1.5c1,0,1.6-0.6,1.9-1.6
			c0.3,1,0.9,1.6,1.9,1.6c1,0,1.6-0.6,1.9-1.5c0.4,1.1,1.1,1.6,2,1.6c0.9,0,1.5-0.5,1.8-1.6c0.1,0.2,0.1,0.3,0.2,0.4
			c0.4,0.9,1.4,1.3,2.4,1c0.8-0.3,1.2-1,1.2-2.1C55.1,48.1,55.1,33.7,55.1,19.3z M28.7,62.1c-0.4-2.3-0.4-32.1,0-36.2
			C29.1,38,29,50.1,28.7,62.1z M32.4,62.4c-0.4-8.6-0.4-17.2,0-25.8C32.8,45.2,32.8,53.8,32.4,62.4z M36.2,62.3
			c-0.4-10.9-0.4-21.9,0-32.8C36.6,40.4,36.6,51.3,36.2,62.3z M40,62.1c-0.4-13.3-0.4-26.5,0-39.8C40.4,35.6,40.4,48.8,40,62.1z
			 M43.8,62.3c-0.4-2.4-0.4-25.9,0-29.3C44.2,42.8,44.2,52.6,43.8,62.3z M47.6,62.4c-0.4-8.6-0.4-17.2,0-25.8
			C48,45.2,48,53.8,47.6,62.4z M51.4,62.3c-0.4-11-0.4-21.9,0-32.9C51.8,40.4,51.8,51.4,51.4,62.3z"/>
		<g>
			<g>
				<path d="M55.1,19.3c0,0,0-4.1,0-4c-7.6,0-22.7,0.1-30.3,0.1c0.5,7.9,0.2,31.5,0.4,39.8c0,1.1-0.1,7.2,0.1,8.2
					c0.4,1.3,2.3,1.4,2.8,0.1c0.1-0.3,0.2-0.7,0.6-0.6c0.4,0.2,0.5,0.9,0.8,1.2c0.9,0.8,2.2,0.1,2.4-1c0.1-0.4,0.6-0.4,0.7,0
					c0.2,1.2,1.6,1.7,2.5,1c0.3-0.2,0.4-0.6,0.6-1c0.1-0.2,0.3-0.3,0.4-0.2c0.1,0,0.2,0.1,0.2,0.2c0.2,0.8,0.7,1.3,1.5,1.3
					c0.8,0,1.4-0.5,1.6-1.3c0.1-0.2,0.2-0.3,0.4-0.2c0.4,0.2,0.4,0.9,0.8,1.2c0.9,0.8,2.3,0.2,2.5-1c0.1-0.3,0.5-0.3,0.6,0
					c0.1,0.4,0.3,0.7,0.6,1c0.9,0.8,2.4,0.2,2.6-1c0-0.2,0.2-0.2,0.4-0.2c0.3,0.2,0.4,0.9,0.8,1.2c0.9,0.9,2.4,0.2,2.7-1
					c0-0.1,0.2-0.2,0.3-0.2c0.1,0,0.1,0.1,0.2,0.2c0.2,0.5,0.4,0.9,0.7,1.1c1.4,0.9,2.8-0.4,2.6-1.9C55.1,51.2,55.1,30.6,55.1,19.3
					L55.1,19.3z M55.1,19.3c0,8.2,0.1,29,0.2,36.9c0,0,0,6.1,0,6.1c0,0.5,0,1.1-0.3,1.6c-1,1.7-3.5,1.2-3.9-0.6c0,0,0.5,0,0.5,0
					c-0.3,0.9-1.1,1.8-2.1,1.8c-1,0.1-1.9-0.8-2.2-1.7c0,0,0.5,0,0.5,0c-0.6,2.4-3.8,2.3-4.4,0c0,0,0.6,0,0.6,0
					c-0.6,2.4-3.7,2.4-4.4,0.1c0,0,0.6,0,0.6,0c-0.6,2.4-3.9,2.4-4.5,0c0,0,0.7,0,0.7,0c-0.6,2.5-3.9,2.5-4.5,0c0,0,0.7,0,0.7,0
					c-0.2,1-1.2,1.9-2.2,1.9c-1.1,0.1-2-0.9-2.3-1.8c0,0,0.7,0,0.7,0c-0.7,2.8-4.7,2.1-4.5-0.7c0,0,0-0.8,0-0.8
					c0.1-12-0.1-34.6,0.4-46.7c7.6,0.1,22.7,0.1,30.3,0.1C55.2,15.2,55.1,19.3,55.1,19.3L55.1,19.3z"/>
				<path d="M28.7,62.1c-0.8-11.9-0.8-24.4-0.4-36.3c0-0.5,0.8-0.5,0.8,0C29.4,38,29.3,50.1,28.7,62.1L28.7,62.1z M28.7,62.1
					c0.1-11.9,0-24.3-0.4-36.2c0,0,0.8,0,0.8,0c-0.4,5.2-0.3,12.8-0.4,18.1C28.7,49.4,28.4,56.9,28.7,62.1L28.7,62.1z"/>
				<path d="M32.4,62.4c-0.5-6.4-0.7-12.9-0.6-19.4c0-2.2,0.1-4.3,0.2-6.5c0-0.2,0.2-0.4,0.4-0.4c0.2,0,0.4,0.2,0.4,0.4
					c0.1,2.2,0.2,4.3,0.2,6.5C33.1,49.5,33,55.9,32.4,62.4L32.4,62.4z M32.4,62.4c0.1-8.5,0-17.3-0.4-25.8c0,0,0.8,0,0.8,0
					C32.4,45.1,32.3,53.9,32.4,62.4L32.4,62.4z"/>
				<path d="M36.2,62.3c-0.5-8.2-0.7-16.4-0.6-24.6c0-2.7,0.1-5.5,0.2-8.2c0-0.2,0.2-0.4,0.4-0.4c0.2,0,0.4,0.2,0.4,0.4
					c0.1,2.7,0.2,5.5,0.2,8.2C36.9,45.9,36.7,54.1,36.2,62.3L36.2,62.3z M36.2,62.3c0.1-10.7,0-22-0.4-32.8c0,0,0.8,0,0.8,0
					C36.2,40.2,36.1,51.5,36.2,62.3L36.2,62.3z"/>
				<path d="M40,62.1c-0.5-9.9-0.7-19.9-0.6-29.8c0-3.3,0.1-6.6,0.2-9.9c0-0.2,0.2-0.4,0.4-0.4c0.2,0,0.4,0.2,0.4,0.4
					c0.1,3.3,0.2,6.6,0.2,9.9C40.7,42.2,40.5,52.1,40,62.1L40,62.1z M40,62.1c0.1-13,0-26.7-0.4-39.7c0,0,0.8,0,0.8,0
					C40,35.4,39.9,49,40,62.1L40,62.1z"/>
				<path d="M43.8,62.3c-0.7-7-0.6-15-0.6-22c0-2.5,0-4.9,0.2-7.4c0-0.5,0.8-0.5,0.8,0C44.6,42.8,44.5,52.6,43.8,62.3L43.8,62.3z
					 M43.8,62.3c0.1-9.6,0-19.7-0.4-29.3c0,0,0.8,0,0.8,0c-0.4,4.2-0.3,10.4-0.4,14.6C43.8,52,43.6,58.1,43.8,62.3L43.8,62.3z"/>
				<path d="M47.6,62.4C47,55.9,46.9,49.5,47,43c0-2.2,0.1-4.3,0.2-6.5c0-0.2,0.2-0.4,0.4-0.4c0.2,0,0.4,0.2,0.4,0.4
					c0.1,2.2,0.2,4.3,0.2,6.5C48.3,49.5,48.1,55.9,47.6,62.4L47.6,62.4z M47.6,62.4c0.1-8.5,0-17.3-0.4-25.8c0,0,0.8,0,0.8,0
					C47.5,45.1,47.5,53.9,47.6,62.4L47.6,62.4z"/>
				<path d="M51.4,62.3c-0.5-8.2-0.7-16.4-0.6-24.7c0-2.7,0.1-5.5,0.2-8.2c0-0.2,0.2-0.4,0.4-0.4c0.2,0,0.4,0.2,0.4,0.4
					c0.1,2.7,0.2,5.5,0.2,8.2C52.1,45.9,51.9,54.1,51.4,62.3L51.4,62.3z M51.4,62.3c0.1-10.8,0-22.1-0.4-32.9c0,0,0.8,0,0.8,0
					C51.3,40.2,51.2,51.6,51.4,62.3L51.4,62.3z"/>
			</g>
		</g>
	</g>
</g>
</svg>
