<?xml version="1.0" encoding="utf-8"?>
<!-- Generator: Adobe Illustrator 27.5.0, SVG Export Plug-In . SVG Version: 6.00 Build 0)  -->
<svg version="1.1" id="Capa_1" xmlns="http://www.w3.org/2000/svg" xmlns:xlink="http://www.w3.org/1999/xlink" x="0px" y="0px"
	 width="500px" height="500px" viewBox="0 0 500 500" style="enable-background:new 0 0 500 500;" xml:space="preserve">
<style type="text/css">
	.st0{fill:#D0D0D0;}
	.st1{opacity:0.7;}
	.st2{fill:#8B8B8B;}
	.st3{fill:#12A3D8;}
	.st4{fill:#1D3968;}
	.st5{fill:#F28E28;}
	.st6{fill:#FBBE49;}
	.st7{fill:#E84810;}
	.st8{fill:#FFFFFF;}
	.st9{fill:#F9EDDC;}
	.st10{fill:#5AB356;}
	.st11{fill:#EB8000;}
	.st12{fill:#F8B068;}
	.st13{fill:#472C59;}
	.st14{fill:#FFFBF3;}
	.st15{fill:#8282A9;}
	.st16{fill:#B0AEC4;}
	.st17{fill:#F3DFA1;}
</style>
<ellipse transform="matrix(0.7071 -0.7071 0.7071 0.7071 -516.2161 1166.5273)" class="st0" cx="1150" cy="1206.4" rx="131.7" ry="131.7"/>
<g>
	<g class="st1">
		<path class="st2" d="M1245.1,1210.1l-11.1-56.9h-65.9l-17,68.8h-0.6l-25.5,20.1v11.2v6.3v2.8v2.7v7.9h8.8c0,9,7.3,16.4,16.4,16.4
			c9,0,16.4-7.3,16.4-16.4h50.4c0,9,7.3,16.4,16.4,16.4c9,0,16.4-7.3,16.4-16.4h2.6c0,0,0-3.1,0-7.9c0-0.9,0-1.8,0-2.7
			c0-0.9,0-1.8,0-2.8c0-2,0-4.1,0-6.3c0-3.5,0-7.3,0-11.2c0-6.4,0-13,0-18.8C1252.3,1215.5,1248.8,1211.8,1245.1,1210.1z
			 M1237.6,1208.6c0,0-0.6,0-2.2,0v-21.3l4.2,21.3C1238.4,1208.5,1237.6,1208.6,1237.6,1208.6z M1172.1,1158.4h57.6l3.1,15.8
			c0,0-0.1,0-0.1,0h-7.2c-1.5,0-2.7,1.2-2.7,2.7v22.8H1205c-1.5,0-2.7,1.2-2.7,2.7v6.6c-13.8,1.9-11.6,13.1-11.6,13.1h-21.4
			l8.7-15.5l2.4,2.6c0.7,0.7,2,0.7,2.8-0.2c0.9-0.8,1-2.1,0.3-2.8l-9.9-10.5c-0.7-0.7-2-0.7-2.8,0.2c-0.9,0.8-1,2.1-0.3,2.8l3.3,3.5
			l-15.5,12.1L1172.1,1158.4z"/>
		<polygon class="st2" points="1116,1265 1112.5,1265 1112.5,1247.7 1112.5,1240.5 1112.5,1221.9 1089.7,1221.9 1089.7,1221.8 
			1112.5,1221.8 1112.5,1203.3 1112.5,1196.1 1112.5,1177.4 1089.7,1177.4 1062.8,1177.4 1062.8,1196.1 1062.8,1203.3 
			1062.8,1221.8 1062.8,1221.9 1062.8,1240.5 1062.8,1247.7 1062.8,1265 1058.3,1265 1058.3,1272.9 1116,1272.9 1121.1,1272.9 
			1122.3,1272.9 1122.3,1151 1116,1151 		"/>
	</g>
	<g>
		<g>
			<polygon class="st3" points="1152.2,1210.5 1172.2,1194.9 1175.3,1198.1 1164.5,1217.2 1150.6,1217.9 			"/>
		</g>
		<g>
			<path class="st4" d="M1178.8,1201.4c0.7,0.7,0.5,2-0.3,2.8l0,0c-0.9,0.8-2.1,0.9-2.8,0.2l-9.9-10.5c-0.7-0.7-0.5-2,0.3-2.8l0,0
				c0.9-0.8,2.1-0.9,2.8-0.2L1178.8,1201.4z"/>
		</g>
		<g>
			<path class="st3" d="M1228,1169.4h-7.2c-1.5,0-2.7,1.2-2.7,2.7v22.8h-17.9c-1.5,0-2.7,1.2-2.7,2.7v10.3c0,1.5,1.2,2.7,2.7,2.7
				h17.9c0,1.5,1.2,2.7,2.7,2.7h7.2c1.5,0,2.7-1.2,2.7-2.7v-38.4C1230.7,1170.6,1229.5,1169.4,1228,1169.4z"/>
		</g>
		<g>
			<path class="st4" d="M1175,1250l-32.2-18.7l20.5-82.8h65.9l15.2,77.5L1175,1250z M1148.8,1228.7l26.8,15.6l62.9-21.8l-13.5-69
				h-57.6L1148.8,1228.7z"/>
		</g>
		<g>
			<g>
				<rect x="1058.1" y="1217.2" class="st5" width="49.7" height="44.4"/>
			</g>
			<g>
				<path class="st4" d="M1068.3,1252.3c0-2.5-1.8-4.5-4.1-4.5c-2.3,0-4.1,2-4.1,4.5h3.4v3.8c-0.2,0.3-0.6,0.6-0.8,0.6
					c-0.2,0-0.3-0.3-0.5-0.7l-1.3,0.7c0.5,1.2,1.2,1.5,1.7,1.6c0.1,0,0.1,0,0.1,0c1.1,0,2-1.3,2.1-1.4l0.1-0.2v-4.4H1068.3z"/>
			</g>
			<g>
				<path class="st4" d="M1072.5,1257v-4.3c2-0.5,2.4-2.8,2.4-4.9h-2.5h-1.1h-2.6c0,2.1,0.5,4.4,2.4,4.9v4.3
					c-1.4,0.1-1.7,0.7-1.7,1.2h2.1h0.9h1.9C1074.2,1257.7,1073.9,1257.1,1072.5,1257z"/>
			</g>
			<g>
				<g>
					<rect x="1099.9" y="1235.8" class="st6" width="7.9" height="7.2"/>
				</g>
			</g>
			<g>
				<g>
					<rect x="1058.1" y="1235.8" class="st6" width="7.9" height="7.2"/>
				</g>
			</g>
		</g>
		<g>
			<g>
				<rect x="1058.1" y="1172.7" class="st6" width="49.7" height="44.4"/>
			</g>
			<g>
				<path class="st4" d="M1098.8,1207.8c0-2.5-1.8-4.5-4.1-4.5c-2.3,0-4.1,2-4.1,4.5h3.4v3.8c-0.2,0.3-0.6,0.6-0.8,0.6
					c-0.2,0-0.3-0.3-0.5-0.7l-1.3,0.7c0.5,1.2,1.2,1.5,1.7,1.6c0.1,0,0.1,0,0.1,0c1.1,0,2-1.3,2.1-1.4l0.1-0.2v-4.4H1098.8z"/>
			</g>
			<g>
				<path class="st4" d="M1103,1212.5v-4.3c2-0.5,2.4-2.8,2.4-4.9h-2.5h-1.1h-2.7c0,2.1,0.5,4.4,2.4,4.9v4.3
					c-1.4,0.1-1.7,0.7-1.7,1.2h2h0.9h1.9C1104.7,1213.2,1104.3,1212.7,1103,1212.5z"/>
			</g>
			<g>
				<g>
					<rect x="1099.9" y="1191.3" class="st5" width="7.9" height="7.2"/>
				</g>
			</g>
			<g>
				<g>
					<rect x="1058.1" y="1191.3" class="st5" width="7.9" height="7.2"/>
				</g>
			</g>
		</g>
		<g>
			<path class="st7" d="M1120.3,1268.2v-30.8l25.5-20.1h40.2c0,0-2.7-13.5,16.1-13.4c24.1,0.2,30.8,0,30.8,0s14.7-1.1,14.7,14.7
				c0,20.1,0,49.6,0,49.6H1120.3z"/>
		</g>
		<g>
			<rect x="1120.3" y="1257.6" class="st8" width="127.3" height="2.7"/>
		</g>
		<g>
			<rect x="1120.3" y="1248.5" class="st8" width="127.3" height="6.3"/>
		</g>
		<g>
			<path class="st4" d="M1161.8,1268.2c0,9-7.3,16.4-16.4,16.4c-9,0-16.4-7.3-16.4-16.4c0-9,7.3-16.4,16.4-16.4
				C1154.5,1251.8,1161.8,1259.2,1161.8,1268.2z"/>
		</g>
		<g>
			<path class="st4" d="M1245,1268.2c0,9-7.3,16.4-16.4,16.4c-9,0-16.4-7.3-16.4-16.4c0-9,7.3-16.4,16.4-16.4
				C1237.6,1251.8,1245,1259.2,1245,1268.2z"/>
		</g>
		<g>
			<rect x="1120.3" y="1237.4" class="st9" width="127.3" height="30.8"/>
		</g>
		<g>
			<rect x="1058.1" y="1172.7" class="st9" width="26.9" height="91.5"/>
		</g>
		<g>
			<rect x="1111.3" y="1146.2" class="st4" width="6.3" height="121.9"/>
		</g>
		<g>
			<path class="st3" d="M1156.3,1268.2c0,6-4.8,10.8-10.8,10.8c-6,0-10.8-4.8-10.8-10.8c0-6,4.8-10.8,10.8-10.8
				C1151.5,1257.4,1156.3,1262.2,1156.3,1268.2z"/>
		</g>
		<g>
			<path class="st3" d="M1239.4,1268.2c0,6-4.9,10.8-10.8,10.8c-6,0-10.8-4.8-10.8-10.8c0-6,4.8-10.8,10.8-10.8
				C1234.6,1257.4,1239.4,1262.2,1239.4,1268.2z"/>
		</g>
		<g>
			<rect x="1053.6" y="1260.3" class="st4" width="62.8" height="7.9"/>
		</g>
	</g>
</g>
<g>
	
		<ellipse transform="matrix(0.7071 -0.7071 0.7071 0.7071 -103.5535 250.0002)" class="st10" cx="250" cy="250" rx="242.3" ry="242.3"/>
	<g>
		<path class="st11" d="M79.7,259.3h61.2v-66.1h-35.4c-14.2,0-25.8,11.5-25.8,25.8V259.3z"/>
		<path class="st12" d="M150.8,352.5h-101l-1.4-72.5c0-1.3,0.2-2.5,0.6-3.7l20.8-59.2c1.6-4.6,6.2-7.7,11.4-7.7h69.6V352.5z"/>
		<path class="st13" d="M48.5,352.5h6.3c2.2,0,4-1.8,4-4V332c0-2.2-1.8-4-4-4h-6.3V352.5z"/>
		<g>
			<path class="st13" d="M40.9,250.7h-3.2v-11.2c0-9.2,7.5-16.7,16.7-16.7h27.2v3.2H54.4c-7.4,0-13.5,6-13.5,13.5V250.7z"/>
		</g>
		<path class="st13" d="M37,273.8h5.3c3.4,0,6.2-2.8,6.2-6.2v-17.8c0-3.4-2.8-6.2-6.2-6.2H37c-3.4,0-6.2,2.8-6.2,6.2v17.8
			C30.8,271.1,33.6,273.8,37,273.8z"/>
		<path class="st14" d="M33.7,267.7v-17.8c0-1.8,1.5-3.3,3.3-3.3h5.3c1.8,0,3.3,1.5,3.3,3.3v17.8c0,1.8-1.5,3.3-3.3,3.3H37
			C35.2,270.9,33.7,269.5,33.7,267.7z"/>
		<path class="st13" d="M70.8,276.6h52.6c3.3,0,5.9-2.6,5.9-5.9v-43.2c0-3.3-2.6-5.9-5.9-5.9H84.1c-2.6,0-4.9,1.7-5.6,4.2
			l-13.3,43.2C64,272.7,66.8,276.6,70.8,276.6z"/>
		<path class="st15" d="M72.4,245.3l-7.3,23.7c-1.2,3.8,1.7,7.6,5.6,7.6h52.6c3.3,0,5.9-2.6,5.9-5.9v-25.4H72.4z"/>
		<path class="st13" d="M64,351.3c0,16.2,13.1,29.3,29.3,29.3c15.9,0,29.3-13.3,29.3-29.3c0-16.2-13.1-29.3-29.3-29.3
			C77.3,322,64,335.3,64,351.3z"/>
		<ellipse class="st13" cx="357.7" cy="350.8" rx="28" ry="28.8"/>
		<path class="st13" d="M149.2,312.4h289.9c4.6,0,8.3-3.7,8.3-8.3v-170c0-4.6-3.7-8.3-8.3-8.3H149.2c-4.6,0-8.3,3.7-8.3,8.3v170
			C140.9,308.7,144.6,312.4,149.2,312.4z"/>
		<path class="st15" d="M439.1,304.8c0.4,0,0.6-0.3,0.6-0.6v-170c0-0.4-0.3-0.6-0.6-0.6H294.3v171.3H439.1z"/>
		<path class="st14" d="M439.1,178.9c0.4,0,0.6-0.1,0.6-0.2v-45.1c0-0.1-0.3-0.2-0.6-0.2H294.3v45.5H439.1z"/>
		<path class="st16" d="M149.2,125.8h137.5v186.6H149.2c-4.6,0-8.3-3.7-8.3-8.3v-170C140.9,129.5,144.6,125.8,149.2,125.8z"/>
		
			<rect x="363" y="253.4" transform="matrix(-1 -1.224647e-16 1.224647e-16 -1 787.6514 558.1345)" class="st17" width="61.7" height="51.4"/>
		
			<rect x="294.3" y="243.3" transform="matrix(-1 -1.224647e-16 1.224647e-16 -1 666.415 548.0823)" class="st11" width="77.8" height="61.5"/>
		
			<rect x="294.3" y="184.8" transform="matrix(-1 -1.224647e-16 1.224647e-16 -1 654.9921 428.1467)" class="st17" width="66.4" height="58.5"/>
		<path class="st13" d="M151.8,352.5h275.6v-40.1H151.8c-4.2,0-7.7,3.4-7.7,7.7v24.8C144.1,349.1,147.6,352.5,151.8,352.5z"/>
		
			<rect x="290.8" y="317.8" transform="matrix(-1 -1.224647e-16 1.224647e-16 -1 715.4582 665.5102)" class="st15" width="133.9" height="29.9"/>
		
			<rect x="295.2" y="329.1" transform="matrix(-1 -1.224647e-16 1.224647e-16 -1 629.0872 670.1523)" class="st17" width="38.7" height="11.9"/>
		
			<rect x="295.2" y="329.1" transform="matrix(-1 -1.224647e-16 1.224647e-16 -1 613.7457 670.1523)" class="st12" width="23.3" height="11.9"/>
		
			<rect x="377.3" y="329.1" transform="matrix(-1 -1.224647e-16 1.224647e-16 -1 793.3791 670.1523)" class="st12" width="38.7" height="11.9"/>
		
			<rect x="398.5" y="329.1" transform="matrix(-1 -1.224647e-16 1.224647e-16 -1 814.5457 670.1523)" class="st17" width="17.5" height="11.9"/>
		<path class="st13" d="M238.1,350.8c0,15.9,3.9,28.8,26.9,28.8c15.5,0,29.2-12.9,29.2-28.8c0-15.9-12.6-28.8-28-28.8
			C250.6,322,238.1,334.9,238.1,350.8z"/>
		<path class="st13" d="M229.4,350c0,16.9,13.4,29.6,28.9,29.6c15.5,0,27.2-12.8,27.2-29.6c0-16.9-12.6-30.5-28-30.5
			C241.9,319.5,229.4,333.2,229.4,350z"/>
		<ellipse class="st13" cx="88.5" cy="350.7" rx="28" ry="29.8"/>
		<path class="st15" d="M74.7,350c0,8.3,6.2,15,13.8,15c7.6,0,13.8-6.7,13.8-15c0-8.3-6.2-15-13.8-15C80.8,335,74.7,341.7,74.7,350z
			"/>
		<path class="st15" d="M243.6,350c0,8.3,6.2,15,13.8,15c7.6,0,13.8-6.7,13.8-15c0-8.3-6.2-15-13.8-15
			C249.8,335,243.6,341.7,243.6,350z"/>
		<path class="st16" d="M378.3,167.1h-26l0,0c0,3.7,3,6.7,6.7,6.7h12.6C375.3,173.8,378.3,170.8,378.3,167.1L378.3,167.1z"/>
	</g>
</g>
</svg>
