<?xml version="1.0" encoding="utf-8"?>
<!-- Generator: Adobe Illustrator 26.0.0, SVG Export Plug-In . SVG Version: 6.00 Build 0)  -->
<!DOCTYPE svg PUBLIC "-//W3C//DTD SVG 1.1//EN" "http://www.w3.org/Graphics/SVG/1.1/DTD/svg11.dtd" [
	<!ENTITY st0 "fill:#D87BFF;">
	
		<!ENTITY st1 "fill:#FFFFFF;stroke:#000000;stroke-width:0.7932;stroke-linecap:round;stroke-linejoin:round;stroke-miterlimit:10;">
]>
<svg version="1.1" id="Capa_1" xmlns="http://www.w3.org/2000/svg" xmlns:xlink="http://www.w3.org/1999/xlink" x="0px" y="0px"
	 width="80px" height="80px" viewBox="0 0 80 80" style="enable-background:new 0 0 80 80;" xml:space="preserve">
<g>
	<circle style="&st0;" cx="40" cy="40" r="38"/>
	<g>
		<g>
			<rect x="21" y="39.2" style="&st1;" width="38" height="21.2"/>
			<rect x="26.4" y="41" style="&st1;" width="27" height="15.1"/>
			<polygon style="&st1;" points="21,60.4 26.4,56.1 53.4,56.1 59,60.4 			"/>
			<polygon style="&st1;" points="26.4,41 21,39.2 59,39.2 53.4,41 			"/>
			<polygon style="&st1;" points="21,60.4 21,39.2 26.4,41 26.4,56.1 			"/>
			<polygon style="&st1;" points="59,39.2 59,60.4 53.4,56.1 53.4,41 			"/>
		</g>
		<g>
			<rect x="23" y="19.6" style="&st1;" width="33.8" height="18.9"/>
			<rect x="27.9" y="21.1" style="&st1;" width="24" height="13.4"/>
			<polygon style="&st1;" points="23,38.4 27.9,34.5 51.8,34.5 56.8,38.4 			"/>
			<polygon style="&st1;" points="27.9,21.1 23,19.6 56.8,19.6 51.8,21.1 			"/>
			<polygon style="&st1;" points="23,38.4 23,19.6 27.9,21.1 27.9,34.5 			"/>
			<polygon style="&st1;" points="56.8,19.6 56.8,38.4 51.8,34.5 51.8,21.1 			"/>
		</g>
	</g>
</g>
</svg>
