<?xml version="1.0" encoding="utf-8"?>
<!-- Generator: Adobe Illustrator 26.0.0, SVG Export Plug-In . SVG Version: 6.00 Build 0)  -->
<!DOCTYPE svg PUBLIC "-//W3C//DTD SVG 1.1//EN" "http://www.w3.org/Graphics/SVG/1.1/DTD/svg11.dtd" [
	<!ENTITY st0 "fill:#FCEA10;">
]>
<svg version="1.1" id="Capa_1" xmlns="http://www.w3.org/2000/svg" xmlns:xlink="http://www.w3.org/1999/xlink" x="0px" y="0px"
	 width="80px" height="80px" viewBox="0 0 80 80" style="enable-background:new 0 0 80 80;" xml:space="preserve">
<g>
	<circle style="&st0;" cx="40" cy="40" r="37.9"/>
	<path d="M59.2,15.7h-11c-0.1,0-0.1,0-0.2,0.1L31.5,37.7c-0.1,0.2,0.1,0.4,0.3,0.3l7-3c0.2-0.1,0.4,0.2,0.2,0.3L25,52.2
		c-0.1,0.2,0,0.4,0.2,0.3l5.2-2.2c0.2-0.1,0.4,0.2,0.3,0.3L20.6,63.9c-0.2,0.2,0.1,0.5,0.3,0.3l22.1-19.6c0.2-0.2,0-0.4-0.2-0.4
		l-7.4,2.6c-0.2,0.1-0.4-0.2-0.2-0.4L54.4,29c0.2-0.2,0-0.4-0.2-0.4l-8.4,3c-0.2,0.1-0.4-0.2-0.2-0.3l13.8-15.1
		C59.5,16,59.4,15.7,59.2,15.7z"/>
</g>
</svg>
