<?xml version="1.0" encoding="utf-8"?>
<!-- Generator: Adobe Illustrator 27.9.0, SVG Export Plug-In . SVG Version: 6.00 Build 0)  -->
<svg version="1.1" id="Capa_1" xmlns="http://www.w3.org/2000/svg" xmlns:xlink="http://www.w3.org/1999/xlink" x="0px" y="0px"
	 width="80px" height="80px" viewBox="0 0 80 80" style="enable-background:new 0 0 80 80;" xml:space="preserve">
<style type="text/css">
	.st0{fill:url(#SVGID_1_);}
	.st1{fill:#FFFFFF;stroke:#000000;stroke-width:0.8713;stroke-linecap:round;stroke-linejoin:round;stroke-miterlimit:10;}
	.st2{fill:url(#SVGID_00000099658987162617158560000009528170108426837664_);}
	.st3{fill:url(#SVGID_00000107590292494342914880000015474248860435829381_);}
</style>
<g>
	<radialGradient id="SVGID_1_" cx="80" cy="-90.4147" r="44.2961" gradientUnits="userSpaceOnUse">
		<stop  offset="0" style="stop-color:#FFFFFF"/>
		<stop  offset="0.106" style="stop-color:#FAFCFF"/>
		<stop  offset="0.2297" style="stop-color:#ECF3FF"/>
		<stop  offset="0.3623" style="stop-color:#D5E5FF"/>
		<stop  offset="0.5011" style="stop-color:#B4D1FF"/>
		<stop  offset="0.6449" style="stop-color:#89B8FF"/>
		<stop  offset="0.7927" style="stop-color:#5698FF"/>
		<stop  offset="0.9412" style="stop-color:#1A74FF"/>
		<stop  offset="1" style="stop-color:#0064FF"/>
	</radialGradient>
	<circle class="st0" cx="80" cy="-90.4" r="37.7"/>
	<path class="st1" d="M69.3-99c-2.3,2.4-3.3,5.3-4,8.4c-0.7,3.1-0.6,6.2,0.4,9.2c0.9,3,2.6,5.6,4.9,7.8c2.3,2.2,4.9,3.8,8,4.7
		c3,0.9,6.1,0.7,9.2,0.3c-2,2.4-4.3,4.2-7.2,5.3c-4.3,1.6-8.7,1.7-13,0.2c-6.7-2.3-14.2-9.7-12.4-20.7C56.6-92.5,63.1-97.6,69.3-99z
		"/>
	<g>
		<path d="M78-104.2h2.6V-86h8.7v2.2H78V-104.2z"/>
		<path d="M104-87.8c0,1.5,0,2.8,0.1,4h-2.4l-0.2-2.4h-0.1c-0.7,1.2-2.2,2.7-4.8,2.7c-2.3,0-5-1.3-5-6.4v-8.5h2.7v8.1
			c0,2.8,0.8,4.7,3.3,4.7c1.8,0,3-1.2,3.5-2.4c0.2-0.4,0.2-0.9,0.2-1.4v-9h2.7V-87.8z"/>
	</g>
</g>
<g>
	
		<radialGradient id="SVGID_00000153683096005536693900000013759938621173968008_" cx="-63.0106" cy="-120.4792" r="44.2961" gradientUnits="userSpaceOnUse">
		<stop  offset="0" style="stop-color:#FFFFFF"/>
		<stop  offset="0.106" style="stop-color:#FAFEFF"/>
		<stop  offset="0.2297" style="stop-color:#ECFBFF"/>
		<stop  offset="0.3623" style="stop-color:#D5F7FF"/>
		<stop  offset="0.5011" style="stop-color:#B4F0FF"/>
		<stop  offset="0.6449" style="stop-color:#89E8FF"/>
		<stop  offset="0.7927" style="stop-color:#56DEFF"/>
		<stop  offset="0.9412" style="stop-color:#1AD2FF"/>
		<stop  offset="1" style="stop-color:#00CDFF"/>
	</radialGradient>
	<circle style="fill:url(#SVGID_00000153683096005536693900000013759938621173968008_);" cx="-63" cy="-120.5" r="37.7"/>
	<path class="st1" d="M-72.4-129c-2.3,2.4-3.3,5.3-4,8.4c-0.7,3.1-0.6,6.2,0.4,9.2c0.9,3,2.6,5.6,4.9,7.8c2.3,2.2,4.9,3.8,8,4.7
		c3,0.9,6.1,0.7,9.2,0.3c-2,2.4-4.3,4.2-7.2,5.3c-4.3,1.6-8.7,1.7-13,0.2c-6.7-2.3-14.2-9.7-12.4-20.7
		C-85.1-122.6-78.6-127.7-72.4-129z"/>
	<g>
		<path d="M-48.5-122.7c-0.1-2.7-0.3-5.8-0.3-8.2h-0.1c-0.6,2.2-1.4,4.6-2.4,7.2l-3.4,9.2h-1.9l-3.1-9.1c-0.9-2.7-1.7-5.1-2.2-7.4
			h-0.1c-0.1,2.4-0.2,5.6-0.4,8.4l-0.5,8.2h-2.3l1.3-19h3.1l3.2,9.2c0.8,2.3,1.4,4.4,1.9,6.4h0.1c0.5-1.9,1.2-4,2-6.4l3.4-9.2h3.1
			l1.2,19h-2.4L-48.5-122.7z"/>
		<path d="M-34.2-114.4l-0.2-1.7h-0.1c-0.8,1.1-2.2,2-4.2,2c-2.8,0-4.2-1.9-4.2-3.9c0-3.3,2.9-5.1,8.2-5.1v-0.3
			c0-1.1-0.3-3.2-3.1-3.2c-1.3,0-2.6,0.4-3.6,1l-0.6-1.6c1.1-0.7,2.8-1.2,4.5-1.2c4.2,0,5.2,2.9,5.2,5.6v5.1c0,1.2,0.1,2.3,0.2,3.3
			H-34.2z M-34.6-121.4c-2.7-0.1-5.8,0.4-5.8,3.1c0,1.6,1.1,2.4,2.3,2.4c1.8,0,2.9-1.1,3.3-2.3c0.1-0.3,0.1-0.5,0.1-0.8V-121.4z"/>
	</g>
</g>
<g>
	
		<radialGradient id="SVGID_00000161630905437236921610000016105358066768448650_" cx="40" cy="40" r="44.2961" gradientUnits="userSpaceOnUse">
		<stop  offset="0" style="stop-color:#FFFFFF"/>
		<stop  offset="0.2357" style="stop-color:#FFFDFD"/>
		<stop  offset="0.3724" style="stop-color:#FFF4F4"/>
		<stop  offset="0.4838" style="stop-color:#FFE6E6"/>
		<stop  offset="0.5816" style="stop-color:#FFD2D2"/>
		<stop  offset="0.6704" style="stop-color:#FFB8B8"/>
		<stop  offset="0.7528" style="stop-color:#FF9999"/>
		<stop  offset="0.8302" style="stop-color:#FF7373"/>
		<stop  offset="0.9038" style="stop-color:#FF4747"/>
		<stop  offset="0.9717" style="stop-color:#FF1616"/>
		<stop  offset="1" style="stop-color:#FF0000"/>
	</radialGradient>
	<circle style="fill:url(#SVGID_00000161630905437236921610000016105358066768448650_);" cx="40" cy="40" r="37.7"/>
	<g>
		<path d="M42.6,28.9c-5.5-1.4-11.2,1.9-12.7,7.4c-0.7,2.5-0.3,4.9,0.6,7.3c1.3,3.1,2.7,6.1,3.1,9.5c0.1,0.5,0.4,0.7,1,0.7
			c1.8,0,3.6,0,5.4,0c0,0,0,0,0,0c0.8,0,1.6,0,2.5,0c0.8,0,1.6,0,2.5,0c1.4,0,1.4,0,1.6-1.4c0.3-2.2,1-4.2,1.9-6.2
			c0.7-1.5,1.3-3.1,1.8-4.7C51.6,35.9,48.2,30.3,42.6,28.9z"/>
		<path d="M45.2,54.4c-3.5,0-6.9,0-10.4,0c-0.5,0-0.9,0.1-0.9,0.6c0,0.6,0.4,0.7,0.9,0.7c1.7,0,3.4,0,5.1,0c0,0,0,0,0,0
			c1.7,0,3.5,0,5.2,0c0.4,0,0.8,0,0.8-0.6C46,54.5,45.7,54.4,45.2,54.4z"/>
		<path d="M43.7,60.2c-2.5,0-5,0-7.5-0.1c-0.6,0-0.7,0.3-0.6,0.8c0,0.5,0.4,0.5,0.8,0.6c0.8,0.1,1.8-0.3,2.2,0.9
			c0,0.1,0.4,0.2,0.7,0.3c0.3,0,0.6,0,0.9,0c0,0.1,0,0.1,0.1,0.2c0.5-0.2,1.3-0.3,1.6-0.6c0.3-0.4,0.6-0.5,1.1-0.6
			c0.3,0,0.7,0,1-0.1c0.2-0.1,0.5-0.4,0.6-0.7C44.4,60.4,44.1,60.2,43.7,60.2z"/>
		<path d="M44.7,56.3c-3.2,0-6.3,0-9.5,0c-0.5,0-0.9,0.1-0.9,0.7c0,0.6,0.4,0.7,0.9,0.7c1.6,0,3.2,0,4.8,0c0,0,0,0,0,0
			c1.6,0,3.1,0,4.7,0c0.5,0,0.9-0.1,0.8-0.7C45.5,56.4,45.2,56.3,44.7,56.3z"/>
		<path d="M44.3,58.2c-2.9,0-5.8,0-8.6,0c-0.5,0-0.8,0.1-0.8,0.7c0,0.6,0.4,0.6,0.9,0.6c1.4,0,2.8,0,4.2,0c0,0,0,0,0,0
			c1.5,0,2.9,0,4.4,0c0.5,0,0.8-0.1,0.8-0.7C45.1,58.3,44.7,58.2,44.3,58.2z"/>
		<path d="M30.3,48.9c-0.3,0-0.7,0.1-0.9,0.3c-1.7,1.6-3.3,3.3-4.9,4.9c-0.3,0.3-0.5,0.7-0.2,1.1c0.4,0.4,0.8,0.2,1.1-0.1
			c1.6-1.7,3.3-3.3,4.9-5c0.1-0.1,0.2-0.4,0.4-0.6C30.6,49.2,30.4,48.9,30.3,48.9z"/>
		<path d="M24.7,25c1.4,1.4,2.8,2.8,4.3,4.3c0.2,0.2,0.4,0.5,0.6,0.6c0.2,0.1,0.5,0.2,0.7,0.1c0.2-0.1,0.3-0.3,0.5-0.5
			c-0.1-0.2-0.2-0.4-0.3-0.6c-1.7-1.7-3.4-3.4-5.1-5.1c-0.2-0.2-0.6-0.1-1-0.1c0,0.3,0,0.7,0.1,1C24.4,24.8,24.5,24.9,24.7,25z"/>
		<path d="M50.6,29.7c1.6-1.6,3.3-3.3,4.9-4.9c0.2-0.2,0.3-0.4,0.4-0.6c-0.2-0.2-0.3-0.5-0.5-0.6c-0.3,0-0.7,0-0.9,0.2
			c-1.7,1.6-3.3,3.3-4.9,4.9c-0.3,0.3-0.5,0.7-0.2,1.1C49.9,30.3,50.3,30.1,50.6,29.7z"/>
		<path d="M50.7,49.2c-0.2-0.2-0.4-0.3-0.6-0.5c-0.2,0.2-0.6,0.3-0.6,0.4c0,0.3,0,0.7,0.2,0.9c1.6,1.7,3.2,3.3,4.9,4.9
			c0.3,0.3,0.7,0.6,1.1,0.2c0.4-0.4,0.2-0.8-0.2-1.1C53.9,52.4,52.3,50.8,50.7,49.2z"/>
		<path d="M26.5,39.5c0-0.6-0.5-0.7-0.9-0.7c-2.3,0-4.5,0-6.8,0c-0.5,0-1,0.1-1,0.7c0,0.6,0.5,0.7,0.9,0.7c1.1,0,2.2,0,3.3,0
			c1.1,0,2.3,0,3.4,0C26,40.1,26.5,40.1,26.5,39.5z"/>
		<path d="M40,25.9c0.6,0,0.7-0.4,0.7-0.9c0-1.1,0-2.3,0-3.4c0-1.2,0-2.3,0-3.5c0-0.5-0.1-0.9-0.7-0.9c-0.6,0-0.7,0.4-0.7,0.9
			c0,2.3,0,4.6,0,6.9C39.3,25.5,39.4,25.9,40,25.9z"/>
		<path d="M61.2,38.8c-1.1,0-2.2,0-3.3,0c-1.1,0-2.3,0-3.4,0c-0.5,0-0.9,0.1-0.9,0.7c0,0.6,0.5,0.7,0.9,0.7c2.3,0,4.5,0,6.8,0
			c0.5,0,1-0.1,0.9-0.7C62.2,38.8,61.7,38.8,61.2,38.8z"/>
	</g>
</g>
</svg>
