<?xml version="1.0" encoding="utf-8"?>
<!-- Generator: Adobe Illustrator 24.3.0, SVG Export Plug-In . SVG Version: 6.00 Build 0)  -->
<svg version="1.1" id="Capa_1" xmlns="http://www.w3.org/2000/svg" xmlns:xlink="http://www.w3.org/1999/xlink" x="0px" y="0px"
	 width="100px" height="100px" viewBox="0 0 100 100" style="enable-background:new 0 0 100 100;" xml:space="preserve">
<style type="text/css">
	.st0{fill:#BB6EFF;}
	.st1{fill:#FFFFFF;stroke:#000000;stroke-linecap:round;stroke-linejoin:round;stroke-miterlimit:10;}
</style>
<g>
	<circle class="st0" cx="49.7" cy="50.1" r="47.9"/>
	<g>
		<g>
			<path class="st1" d="M23.7,80.6h-5.9c-0.4,0-0.6-0.3-0.6-0.6V60.2c0-0.4,0.3-0.6,0.6-0.6h5.9c0.4,0,0.6,0.3,0.6,0.6v19.7
				C24.3,80.3,24,80.6,23.7,80.6z"/>
			<path class="st1" d="M35.5,80.6h-6.2c-0.3,0-0.5-0.2-0.5-0.5v-13c0-0.3,0.2-0.5,0.5-0.5h6.2c0.3,0,0.5,0.2,0.5,0.5v13
				C36,80.4,35.8,80.6,35.5,80.6z"/>
			<path class="st1" d="M47.3,80.6h-5.7c-0.4,0-0.7-0.3-0.7-0.7V54.4c0-0.4,0.3-0.7,0.7-0.7h5.7c0.4,0,0.7,0.3,0.7,0.7v25.5
				C48,80.3,47.7,80.6,47.3,80.6z"/>
			<path class="st1" d="M59.1,80.6h-5.9c-0.4,0-0.6-0.3-0.6-0.6V60.2c0-0.4,0.3-0.6,0.6-0.6h5.9c0.4,0,0.6,0.3,0.6,0.6v19.7
				C59.7,80.3,59.4,80.6,59.1,80.6z"/>
			<path class="st1" d="M70.8,80.6h-5.4c-0.5,0-0.9-0.4-0.9-0.9V40.6c0-0.5,0.4-0.9,0.9-0.9h5.4c0.5,0,0.9,0.4,0.9,0.9v39.1
				C71.7,80.2,71.3,80.6,70.8,80.6z"/>
			<path class="st1" d="M82.7,80.6h-5.2c-0.6,0-1-0.5-1-1V30.5c0-0.6,0.5-1,1-1h5.2c0.6,0,1,0.5,1,1v49.1
				C83.7,80.1,83.2,80.6,82.7,80.6z"/>
		</g>
		<path d="M15.8,54.5l10.6-4.1l4.5,3l13.3-9.7l7.4,4.1l12.9-15.6l3.3,1.6l12.2-14.2c0,0,0.6,0.1,0.6,0.3L68.1,34.7L64.5,33
			L51.8,48.8l-7.5-4.3L31,54.5l-4.7-3.3l-10,3.9C16.3,55.1,15.7,55.4,15.8,54.5z"/>
	</g>
</g>
</svg>
