<?xml version="1.0" encoding="utf-8"?>
<!-- Generator: Adobe Illustrator 26.0.0, SVG Export Plug-In . SVG Version: 6.00 Build 0)  -->
<!DOCTYPE svg PUBLIC "-//W3C//DTD SVG 1.1//EN" "http://www.w3.org/Graphics/SVG/1.1/DTD/svg11.dtd" [
	<!ENTITY st0 "fill:#FF88EE;">
	
		<!ENTITY st1 "fill:#FFFFFF;stroke:#000000;stroke-width:0.7723;stroke-linecap:round;stroke-linejoin:round;stroke-miterlimit:10;">
]>
<svg version="1.1" id="Capa_1" xmlns="http://www.w3.org/2000/svg" xmlns:xlink="http://www.w3.org/1999/xlink" x="0px" y="0px"
	 width="80px" height="80px" viewBox="0 0 80 80" style="enable-background:new 0 0 80 80;" xml:space="preserve">
<g>
	<circle style="&st0;" cx="40" cy="40" r="37"/>
	<g>
		<polygon style="&st1;" points="39.8,39.2 32.8,29.4 32.8,16.7 39.8,8.3 48.8,14.6 48.8,16.7 39.8,10.2 		"/>
		<polygon style="&st1;" points="48.8,20.3 48.8,56.9 69.2,56.9 69.2,58.4 10.8,58.4 10.8,57 41.6,57 41.6,27.3 		"/>
		<polygon style="&st1;" points="32.8,32.9 39.8,41.3 39.8,57 32.4,57 32.4,34.9 24.2,38.3 24.2,36.6 		"/>
		<polygon style="&st1;" points="49.8,17.8 56,21.8 56,24.9 54.1,23.7 54.1,22.4 49.8,19.7 		"/>
		<polygon style="&st1;" points="49.8,22.2 56,26.2 56,29.3 54.1,28.2 54.1,26.9 49.8,24.1 		"/>
		<polygon style="&st1;" points="49.8,26.6 56,30.6 56,33.7 54.1,32.6 54.1,31.2 49.8,28.5 		"/>
		<polygon style="&st1;" points="49.8,31 56,35 56,38.1 54.1,37 54.1,35.6 49.8,32.9 		"/>
		<polygon style="&st1;" points="31.1,36.5 24.7,40.1 24.5,43.2 26.4,42.1 26.5,40.8 31,38.3 		"/>
		<polygon style="&st1;" points="30.9,40.9 24.4,44.5 24.2,47.6 26.2,46.6 26.2,45.2 30.7,42.8 		"/>
		<polygon style="&st1;" points="30.6,45.3 24.2,48.9 24,52 25.9,50.9 26,49.6 30.5,47.1 		"/>
		<polygon style="&st1;" points="30.3,49.7 23.9,53.3 23.7,56.4 25.6,55.3 25.7,54 30.2,51.5 		"/>
		<polygon style="&st1;" points="49.8,35.2 56,39.2 56,42.3 54.1,41.2 54.1,39.8 49.8,37.1 		"/>
		<polygon style="&st1;" points="49.8,39.3 56,43.3 56,46.4 54.1,45.3 54.1,43.9 49.8,41.2 		"/>
		<polygon style="&st1;" points="49.8,43.5 56,47.5 56,50.6 54.1,49.4 54.1,48.1 49.8,45.3 		"/>
		<polygon style="&st1;" points="49.8,47.7 56,51.7 56,54.8 54.1,53.7 54.1,52.3 49.8,49.6 		"/>
		<polygon style="&st1;" points="49.8,52 56,55.9 56,56.9 53.6,56.9 53.6,56.4 49.8,54.1 		"/>
	</g>
</g>
</svg>
