<?xml version="1.0" encoding="utf-8"?>
<!-- Generator: Adobe Illustrator 27.5.0, SVG Export Plug-In . SVG Version: 6.00 Build 0)  -->
<svg version="1.1" id="Capa_1" xmlns="http://www.w3.org/2000/svg" xmlns:xlink="http://www.w3.org/1999/xlink" x="0px" y="0px"
	 width="500px" height="500px" viewBox="0 0 500 500" style="enable-background:new 0 0 500 500;" xml:space="preserve">
<style type="text/css">
	.st0{opacity:0.7;fill:#818181;}
	.st1{fill:#67C4F0;}
	.st2{fill:#FFFFFF;}
	.st3{fill:#222E5B;}
	.st4{fill:#F7EAD7;}
	.st5{fill:#DE3025;}
	.st6{fill:#E3D8DB;}
</style>
<g>
	<path class="st0" d="M489.3,198.3c-7.1-25.7-37.1-44.4-80.4-54.2c3.8,4.7,7.3,9.6,10.5,14.7c12.9,7.8,21.6,17.5,24.7,29
		c3.2,11.6,0.4,23.8-7.3,35.8C422.3,136.2,346,69.3,254.8,69.3h-1.1c-0.5,0-0.9,0-1.4,0l0-1.9C150.1,68.8,67.6,152.7,68.3,255
		c0.1,9.7,0.8,19.1,2.3,28.4c-1.3-1.4-2.6-2.8-3.7-4.2c0,0-0.1-0.1-0.1-0.2c-1.1-1.4-2.1-2.8-2.9-4.2c-0.3-0.4-0.5-0.8-0.7-1.3
		c-0.6-1.1-1.3-2.2-1.8-3.4c-0.7-1.7-1.4-3.3-1.8-5.1c-3.2-11.7-0.4-24,7.4-36.1c0.2-6.3,0.7-12.4,2.6-18.4
		c-35.9,25.9-54.4,55.1-47.1,81.7c0.5,1.7,1.1,3.4,1.8,5.1c0.2,0.5,0.5,1,0.7,1.5c0.5,1.2,1.1,2.4,1.8,3.5c0.3,0.5,0.6,1,0.9,1.5
		c0.9,1.4,1.8,2.9,2.8,4.2c0.1,0.1,0.2,0.3,0.3,0.5c1.1,1.5,2.4,2.9,3.7,4.4c0.4,0.5,0.9,0.9,1.4,1.4c1,1,2,2,3,2.9
		c0.5,0.5,1.1,1,1.6,1.4c1.3,1.1,2.6,2.2,4,3.2c0.3,0.2,0.6,0.5,1,0.7c1.7,1.2,3.5,2.4,5.3,3.6c0.7,0.4,1.4,0.8,2.1,1.3
		c1.3,0.8,2.6,1.6,4,2.3c0.8,0.4,1.6,0.9,2.4,1.3c1.6,0.8,3.3,1.6,5,2.4c0.6,0.3,1.1,0.5,1.6,0.8c2.2,1,4.4,1.9,6.8,2.8
		c0.9,0.4,1.8,0.7,2.7,1c1.6,0.6,3.2,1.2,4.9,1.8c1,0.3,2,0.7,3,1c1.9,0.6,3.8,1.2,5.8,1.8c0.8,0.2,1.5,0.5,2.3,0.7c0,0,0.1,0,0.1,0
		c19.1,34.7,48.9,62.7,85,79.5l-7.8,10.3c0,0-13,15.8,3.7,9.3c8.7-3.4,15.4-6.3,23.4-11.9c18.6,6.2,38.4,9.7,59.1,9.7l0-1.9
		c0.1,0,0.2,0,0.3,0h1.1c49.3-0.3,95.6-19.8,130.2-54.8c34.7-35.1,53.6-81.5,53.3-130.9c0-0.3,0-0.7,0-1c8.4,2.7,16.2,7.2,19.5,14.8
		C483.6,244.3,495.4,220.4,489.3,198.3z"/>
	<g>
		<g>
			<path class="st1" d="M420.5,241.2c0.6,98-78.4,177.9-176.4,178.5c-98,0.6-177.9-78.4-178.5-176.4c-0.6-98,78.4-177.9,176.4-178.5
				C340,64.3,419.9,143.2,420.5,241.2z"/>
			<path class="st2" d="M243.1,426.9c-101.2,0-184-82.3-184.6-183.5c-0.3-49.3,18.6-95.8,53.3-130.8C146.5,77.4,192.7,58,242,57.7
				h1.1c101.2,0,184,82.3,184.6,183.5c0.3,49.3-18.6,95.8-53.3,130.9c-34.7,35.1-80.9,54.5-130.2,54.8H243.1z M243.1,72h-1
				C196.6,72.3,154,90.3,122,122.6c-32,32.3-49.4,75.2-49.1,120.7c0.5,93.3,76.9,169.2,170.2,169.2l1,0
				c45.5-0.3,88.1-18.2,120.1-50.6c32-32.3,49.4-75.2,49.1-120.7C412.8,148,336.4,72,243.1,72z"/>
		</g>
		<g>
			
				<rect x="65.7" y="237.5" transform="matrix(1 -5.567607e-03 5.567607e-03 1 -1.3451 1.3573)" class="st2" width="354.8" height="9.6"/>
		</g>
		<g>
			<path class="st2" d="M240,177c-104.1,0-135.4-35.2-136.7-36.7l7.3-6.2c0.3,0.3,30.4,33.3,129.4,33.3c0.9,0,1.8,0,2.6,0
				c101.2-0.6,131.4-34.5,131.7-34.9l7.3,6.2c-1.3,1.5-32.7,37.7-139,38.3C241.8,177,240.9,177,240,177z"/>
		</g>
		<g>
			<path class="st2" d="M111.9,352l-7.3-6.2c1.3-1.5,32.7-37.7,139-38.3c0.9,0,1.8,0,2.8,0c104.1,0,135.4,35.2,136.7,36.7l-7.3,6.2
				c-0.3-0.3-31-34-132.1-33.3C142.4,317.7,112.2,351.7,111.9,352z"/>
		</g>
		<g>
			<polygon class="st2" points="239.4,419.7 237.3,64.9 246.9,64.8 249,419.7 			"/>
		</g>
		<g>
			<path class="st2" d="M220.8,423.8c-2.4-2.4-57.9-59.9-58.6-181.1c-0.7-121.3,54.4-173.9,56.7-176l6.5,7
				c-0.6,0.5-54.3,52.2-53.7,169c0.7,117.3,55.3,173.8,55.9,174.4L220.8,423.8z"/>
		</g>
		<g>
			<path class="st2" d="M267.5,423.6l-6.9-6.7c0.5-0.6,54.5-58.1,53.8-175C313.8,125.1,259.4,74,258.8,73.5l6.4-7.1
				c2.4,2.1,58.1,54,58.8,175.4C324.7,363,269.9,421.1,267.5,423.6z"/>
		</g>
		<g>
			<path class="st2" d="M336.6,398.8l-6.9-6.7c0.5-0.5,48-51,47.3-153.8c-0.6-103-48.4-147.4-48.9-147.9l6.4-7.1
				c2.1,1.9,51.4,47.8,52.1,154.9C387.3,345.2,338.7,396.6,336.6,398.8z"/>
		</g>
		<g>
			<path class="st2" d="M151.4,399.9c-2.1-2.1-51.3-53-51.9-160c-0.6-107.1,48.2-153.6,50.2-155.5l6.5,7l-3.3-3.5l3.3,3.5
				c-0.5,0.5-47.8,45.8-47.2,148.4c0.6,102.8,48.7,152.8,49.1,153.3L151.4,399.9z"/>
		</g>
		<g>
			<path class="st3" d="M109.7,334.7C109.7,334.7,109.7,334.7,109.7,334.7c-0.5-1.1-0.4-2.3,0.4-3.6c0.3-0.6,0.8-1.3,1.4-1.9l0,0
				c1.3-1.5,3.3-3.2,6.1-5.2c-6.4-5.5-20.4-18.3-32.2-34.9c-20-8.6-33.5-20.7-37.6-35.6c-3.2-11.7-0.4-24,7.4-36.1
				c0.2-6.3,0.7-12.4,2.6-18.4C21.9,224.8,3.4,254,10.7,280.6c8.5,31,50.3,51.8,108.6,59.1C114.5,338.5,110.7,337,109.7,334.7z"/>
		</g>
		<g>
			<path class="st3" d="M146.8,303.1c1.6,1,3.2,1.9,4.9,3c0.6-0.3,1.3-0.6,1.9-0.9l1.3-1.5C152.1,303.6,149.5,303.4,146.8,303.1z"/>
		</g>
		<g>
			<path class="st3" d="M477.6,186.6c-7.1-25.7-37.1-44.4-80.4-54.2c3.8,4.7,7.3,9.6,10.5,14.7c12.9,7.8,21.6,17.5,24.7,29
				c5.4,19.5-6.1,40.7-29.5,60.1c10.9,0.4,37.3,3,44.2,18.8C472,232.7,483.7,208.7,477.6,186.6z"/>
		</g>
		<g>
			<path class="st4" d="M240.6,55.8C138.4,57.1,56,141,56.6,243.4c0.1,9.7,0.8,19.1,2.3,28.4c-5.4-5.5-9.2-11.6-11.1-18.3
				c-3.2-11.7-0.4-24,7.4-36.1c0.2-6.3,0.7-12.4,2.6-18.4C21.9,224.8,3.4,254,10.7,280.6c6.4,23.4,31.8,41,68.8,51.3
				c19.1,34.7,48.9,62.7,85,79.5l-7.8,10.3c0,0-13,15.8,3.7,9.3c8.6-3.4,15.4-6.3,23.4-11.9c18.6,6.2,38.4,9.7,59.1,9.7L240.6,55.8z
				"/>
		</g>
		<g>
			<path class="st5" d="M378.5,245.8c-0.3-0.4-0.7-0.9-1.1-1.3c-0.1-0.1-0.3-0.2-0.4-0.4c-0.3-0.3-0.6-0.5-0.9-0.8
				c-0.1-0.1-0.3-0.2-0.5-0.3c-0.3-0.2-0.7-0.5-1.1-0.7c-0.1-0.1-0.3-0.2-0.4-0.2c-13-6.8-39.3,1.7-39.3,1.7
				c-2.5,0.9-4.9,1.7-7.4,2.5l0.1,0c0,0,8-13.4,16.8-27.2c6.9-10.8,11.5-23.1,9.9-26.6c-2.6-5.3-4.7-7.2-72.9,69.8
				c-40.4,14.2-70.6,25.6-92.7,34.6c3.2-6.2,4-9,4-12.2c0.1-6.5-4.1-0.3-4.1-0.3l-17.5,20c-0.5,0.2-1.1,0.5-1.6,0.7
				c-68.5-41.8-67.4-31.5-59.6-19.4c10.6,16.5,24.6,29.3,30.7,34.5c-2.4,1.7-4.1,3.1-5.2,4.4v0c-0.5,0.6-0.9,1.1-1.2,1.7l0,0
				c-0.6,1.2-0.7,2.2-0.3,3c0,0,0,0,0,0c1.5,3.4,9.9,4.8,18.4,6l-17.3,31.5c0,0-4.8,6.6,1.9,4.1c6.1-2.3,9.8-6.4,32.3-34.1
				c15.6,0.9,34.3,0.7,52.1,0.2l-64.2,84.3c0,0-13,15.8,3.7,9.3c25.4-9.9,34.4-16.3,105.8-94.9c31.1-1.5,147.7-31.7,154.8-61.5
				c0.3-1.2,0.5-2.4,0.6-3.5c0,0,0,0,0,0c0.1-0.8,0.1-1.5,0.1-2.2c0,0,0-0.1,0-0.1c0-0.7,0-1.4-0.1-2l0,0c-0.1-1.2-0.4-2.2-0.7-3.3
				c0-0.1-0.1-0.2-0.1-0.3C414.6,244.7,378.5,245.8,378.5,245.8z"/>
		</g>
		<g>
			<path class="st6" d="M152,335.6l-17.3,31.5c0,0-4.8,6.6,1.9,4.1c6.1-2.3,9.8-6.4,32.3-34.1c15.6,0.9,34.3,0.7,52.1,0.2
				l-64.2,84.3c0,0-13,15.8,3.7,9.3c25.4-9.9,34.4-16.3,105.8-94.9c31.1-1.5,147.7-31.7,154.8-61.5c0.3-1.2,0.5-2.4,0.6-3.5
				c0,0,0,0,0,0c0.1-0.8,0.1-1.5,0.1-2.2c0,0,0-0.1,0-0.1c0-0.7,0-1.4-0.1-2c-0.1-1.2-0.4-2.2-0.7-3.3c0-0.1-0.1-0.2-0.1-0.3
				c-6.2-18.5-42.2-17.3-42.2-17.3c-77.2,73-244.9,83.7-244.9,83.7C135.1,333,143.5,334.3,152,335.6z"/>
		</g>
	</g>
</g>
</svg>
