<?xml version="1.0" standalone="no"?>
<!DOCTYPE svg PUBLIC "-//W3C//DTD SVG 20010904//EN"
 "http://www.w3.org/TR/2001/REC-SVG-20010904/DTD/svg10.dtd">
<svg version="1.0" xmlns="http://www.w3.org/2000/svg"
 width="67.000000pt" height="67.000000pt" viewBox="0 0 67.000000 67.000000"
 preserveAspectRatio="xMidYMid meet">

<g transform="translate(0.000000,67.000000) scale(0.100000,-0.100000)"
fill="#000000" stroke="none">
<path d="M210 639 c-75 -30 -150 -107 -179 -184 -31 -81 -26 -187 11 -260 30
-59 103 -130 155 -152 139 -58 305 -16 389 98 122 166 70 393 -111 487 -71 36
-188 41 -265 11z m60 -179 l0 -60 -60 0 -60 0 0 60 0 60 60 0 60 0 0 -60z m70
50 c0 -5 -4 -10 -10 -10 -5 0 -10 5 -10 10 0 6 5 10 10 10 6 0 10 -4 10 -10z
m27 -22 c-3 -7 -5 -2 -5 12 0 14 2 19 5 13 2 -7 2 -19 0 -25z m143 -28 l0 -60
-60 0 -60 0 0 60 0 60 60 0 60 0 0 -60z m-142 -27 c-1 -21 -3 -32 -6 -25 -7
23 -22 12 -22 -18 0 -16 4 -30 9 -30 5 0 11 -6 14 -12 2 -7 2 -3 0 10 -3 19 1
22 32 22 31 0 35 -3 35 -26 0 -22 2 -25 15 -14 13 10 15 9 15 -9 0 -12 -6 -21
-14 -21 -8 0 -22 -7 -30 -16 -14 -14 -18 -14 -31 0 -16 15 -45 12 -45 -5 0 -5
-4 -9 -10 -9 -5 0 -10 12 -10 26 0 22 -2 25 -15 14 -12 -10 -13 -15 -3 -28 15
-17 19 -52 12 -100 -6 -38 -24 -43 -24 -7 0 14 5 25 12 25 9 0 9 3 0 12 -7 7
-12 26 -12 44 0 27 -4 32 -29 37 -15 3 -37 5 -47 3 -10 -2 -13 -1 -6 1 6 3 12
9 12 14 0 14 -26 11 -40 -6 -7 -8 -18 -15 -24 -15 -6 0 -4 5 4 11 11 8 12 12
3 16 -7 2 -13 16 -13 29 0 19 5 24 25 24 29 0 34 -16 8 -23 -11 -3 -7 -5 10
-6 15 0 27 -5 27 -11 0 -5 5 -10 10 -10 6 0 10 7 10 15 0 8 -4 15 -10 15 -5 0
-10 5 -10 10 0 6 16 10 35 10 28 0 35 4 35 20 0 11 5 20 10 20 6 0 10 8 10 18
0 14 2 15 10 2 8 -13 12 -12 27 7 10 13 19 23 20 23 1 0 2 -17 1 -37z m112
-57 c0 -3 -4 -8 -10 -11 -5 -3 -10 -1 -10 4 0 6 5 11 10 11 6 0 10 -2 10 -4z
m30 -59 c0 -7 -5 -18 -12 -25 -9 -9 -9 -12 0 -12 16 0 15 -47 0 -54 -10 -5
-10 -7 0 -12 6 -3 12 -11 12 -17 0 -8 -3 -8 -12 1 -17 17 -43 -5 -27 -24 8
-10 8 -14 0 -14 -6 0 -11 5 -11 10 0 6 -7 10 -15 10 -8 0 -15 -4 -15 -10 0 -5
-13 -10 -30 -10 -17 0 -30 5 -30 13 0 8 -3 8 -9 -2 -8 -12 -12 -12 -26 2 -9
10 -12 17 -6 17 5 0 11 10 14 23 l4 22 9 -23 c10 -22 10 -22 24 12 7 20 17 36
20 36 3 0 12 -16 20 -35 13 -32 40 -49 40 -25 0 6 -4 10 -9 10 -5 0 -11 7 -15
15 -3 9 0 15 9 15 8 0 15 -7 15 -15 0 -8 5 -15 10 -15 10 0 11 2 15 60 1 19 3
41 3 48 3 16 22 16 22 -1z m-62 -41 c-7 -8 -15 -12 -17 -11 -5 6 10 25 20 25
5 0 4 -6 -3 -14z m-178 -56 l0 -60 -60 0 -60 0 0 60 0 60 60 0 60 0 0 -60z
m240 -50 c0 -5 -5 -10 -11 -10 -5 0 -7 5 -4 10 3 6 8 10 11 10 2 0 4 -4 4 -10z"/>
<path d="M170 455 l0 -45 40 0 40 0 0 45 0 45 -40 0 -40 0 0 -45z m70 0 c0
-20 -5 -25 -25 -25 -20 0 -25 5 -25 25 0 20 5 25 25 25 20 0 25 -5 25 -25z"/>
<path d="M410 455 l0 -45 40 0 40 0 0 45 0 45 -40 0 -40 0 0 -45z m68 3 c-2
-17 -10 -23 -28 -23 -18 0 -26 6 -28 23 -3 19 1 22 28 22 27 0 31 -3 28 -22z"/>
<path d="M310 386 c0 -26 -20 -39 -47 -30 -16 5 -16 4 -3 -6 11 -9 12 -13 3
-17 -18 -7 -16 -23 3 -23 24 0 45 26 51 65 3 19 3 35 -1 35 -3 0 -6 -11 -6
-24z"/>
<path d="M320 340 c0 -5 5 -10 10 -10 6 0 10 5 10 10 0 6 -4 10 -10 10 -5 0
-10 -4 -10 -10z"/>
<path d="M390 320 c0 -5 5 -10 10 -10 6 0 10 5 10 10 0 6 -4 10 -10 10 -5 0
-10 -4 -10 -10z"/>
<path d="M390 220 c0 -5 5 -10 10 -10 6 0 10 5 10 10 0 6 -4 10 -10 10 -5 0
-10 -4 -10 -10z"/>
<path d="M170 220 l0 -40 40 0 40 0 0 40 0 40 -40 0 -40 0 0 -40z m68 -2 c-2
-15 -11 -24 -25 -26 -19 -3 -23 1 -23 22 0 21 5 26 26 26 21 0 25 -4 22 -22z"/>
</g>
</svg>
