<?xml version="1.0" encoding="utf-8"?>
<!-- Generator: Adobe Illustrator 26.0.0, SVG Export Plug-In . SVG Version: 6.00 Build 0)  -->
<!DOCTYPE svg PUBLIC "-//W3C//DTD SVG 1.1//EN" "http://www.w3.org/Graphics/SVG/1.1/DTD/svg11.dtd" [
	<!ENTITY st0 "fill:#E6007E;">
	<!ENTITY st1 "fill:#FFFFFF;">
]>
<svg version="1.1" id="Capa_1" xmlns="http://www.w3.org/2000/svg" xmlns:xlink="http://www.w3.org/1999/xlink" x="0px" y="0px"
	 width="80px" height="80px" viewBox="0 0 80 80" style="enable-background:new 0 0 80 80;" xml:space="preserve">
<g>
	<circle style="&st0;" cx="40" cy="40" r="37.3"/>
	<g>
		<g>
			<path style="&st1;" d="M57,54c-1.3,0-2.6,0.1-4,0c-3.4-0.2-6.5-1.4-9.1-3.6c-0.2-0.2-0.4-0.2-0.6,0.1c0.1,0.1,0.2,0.2,0.3,0.4
				c1.8,1.9,4,3.1,6.5,3.8c2.7,0.8,5.5,1,8.3,0.8c0.2,0,0.3,0,0.5,0c0,0.1,0,0.1,0,0.2c-0.6,1.6-1.5,2.9-2.8,4
				c-0.2,0.1-0.4,0.2-0.6,0.2c-2.3-0.5-4.7-0.9-6.8-2c-0.9-0.5-1.8-1.2-2.7-1.8c-0.3-0.2-0.5-0.3-0.8,0c2,2.9,4.9,4.6,8.1,6.1
				c-0.7,0.5-1.4,1-2.1,1.5c-0.1,0-0.2,0-0.3,0c-4.3-1.9-7.9-4.4-10.2-8.6c-0.7-1.2-1.3-2.5-1.4-3.9c0-0.3-0.2-0.7-0.7-0.6
				c0.1,0.5,0.1,1.1,0.3,1.6c0.8,3.7,2.8,6.7,5.6,9.2c1.4,1.3,3,2.4,4.6,3.5c-0.4,0.2-0.9,0.5-1.5,0.7c-1.9,0.9-3.9,1.5-6.1,1.4
				c-0.7,0-1.1-0.3-1.5-0.9c-2.2-3.7-3.5-7.6-3.4-11.9c0-1.7,0.3-3.4,0.8-5.1c0.1-0.3,0.3-0.4,0.5-0.5c1.7-0.5,3.5-1.1,5.2-1.6
				c0.1,0,0.4,0,0.5,0.1c1.6,1.9,3.6,3.1,5.8,4.2c2.4,1.1,4.8,1.9,7.4,2.6c0.2,0,0.3,0.1,0.5,0.1C57,53.9,57,53.9,57,54z"/>
			<path d="M57,54c-4.8,0.4-9.6-0.4-13.3-3.6c-0.1,0-0.1,0.1-0.2,0.2c0,0,0-0.2,0-0.2c0.9,1.1,2,1.9,3.2,2.6c3.7,2,8.1,2.5,12.2,2.1
				c0.2,0,0.3,0.1,0.3,0.3c-0.4,1.8-1.6,3.5-3.2,4.6c-0.4,0.2-0.9,0-1.2,0c-2.8-0.5-5.7-1.2-8-3c0,0-0.9-0.6-0.9-0.6
				c-0.3-0.2-0.3-0.3-0.5-0.1c0,0,0.1-0.5,0.1-0.5c1.9,2.8,4.9,4.6,7.9,6c0.3,0.1,0.3,0.5,0.1,0.7c0,0-1.1,0.8-1.1,0.8
				c-0.2,0.1-0.7,0.5-0.8,0.6c0,0-0.1,0.1-0.1,0.1c0,0,0,0-0.1,0c-0.4,0.2-0.8-0.1-1.1-0.2C45,61.3,40,57.1,38.8,51.3
				c-0.1-0.4,0-0.6-0.3-0.5c0,0,0.3-0.5,0.3-0.5c0.6,6.4,5.3,10.7,10.3,14.1c0.2,0.2,0.2,0.5-0.1,0.6c-2.3,1.2-4.9,2.2-7.6,2.2
				c-0.5,0-1.3-0.1-1.7-0.6c-3.4-5-4.7-11.5-3-17.4c0.1-0.3,0.2-0.6,0.4-0.8c0.5-0.3,1-0.4,1.5-0.5c1.1-0.3,2.7-0.8,3.7-1.1
				c0.2-0.1,0.8-0.2,1,0.1c0,0,0.1,0.2,0.2,0.2c3.4,3.8,8.5,5.4,13.3,6.8C57,53.9,57,54,57,54L57,54z M57,54c0,0,0-0.1,0-0.1
				c-4.7-1.3-9.7-2.8-13.3-6.3c0,0-0.5-0.5-0.5-0.5c-0.2-0.1-0.4,0-0.6,0.1c-1.1,0.3-2.6,0.8-3.7,1.2c-0.3,0.1-1.1,0.3-1.4,0.5
				c-0.2,0.2-0.3,1-0.4,1.3c-1.3,5.5,0.1,11.5,3.2,16.1c0.3,0.3,0.7,0.4,1.2,0.4c2.6,0,5-0.9,7.2-2.1c0,0-0.1,0.6-0.1,0.6
				c-5.2-3.5-10-7.9-10.7-14.6c-0.1-0.5,0.5-0.6,0.8-0.5c0.6,0.1,0.7,0.9,0.7,1.2c0.1,0.4,0.2,0.8,0.3,1.3
				c1.8,5.1,6.3,8.7,11.1,10.7c0,0-0.3,0.1-0.1,0c0.2-0.2,0.7-0.5,1-0.7c0,0,1.1-0.8,1.1-0.8l0.1,0.7c-1.6-0.7-3.1-1.5-4.5-2.6
				c-1.4-1-2.7-2.3-3.7-3.7c-0.1-0.2-0.1-0.4,0.1-0.5c0.2-0.1,0.5-0.3,0.8-0.2c0.3,0.1,0.4,0.2,0.6,0.3c0.8,0.6,1.7,1.3,2.6,1.7
				c1.7,1,4,1.4,6,1.8c0,0,0.5,0.1,0.5,0.1c0.1,0,0.1,0,0.2,0c0.3-0.1,0.6-0.4,0.9-0.6c0.9-0.9,1.8-2.1,2.1-3.4c0,0,0.3,0.3,0.3,0.3
				c-5.6,0.4-12-0.6-15.7-5.1c-0.1-0.2,0.2-0.5,0.5-0.5c0.2,0,0.4,0.2,0.5,0.3C47.7,53.5,52.5,54.2,57,54L57,54z"/>
		</g>
		<g>
			<path style="&st1;" d="M39.2,42.7c-0.5,0.2-1,0.3-1.5,0.5c-0.2-0.6-0.5-1.2-0.7-1.9c-3-8.5-6-17-9-25.5c-0.3-1-0.2-1.8,0.5-2.3
				c1.1-0.8,2.6-0.3,3,1c0.7,2.6,1.4,5.1,2.1,7.7c1.6,5.9,3.2,11.8,4.8,17.7C38.7,40.9,39,41.8,39.2,42.7z"/>
			<path d="M39.2,42.7l-1.5,0.5c0,0-0.1,0-0.1,0c-2.8-7.2-5.7-15.3-8.4-22.7c0,0-1.4-3.8-1.4-3.8c-0.7-1.5-0.7-3.3,1.1-3.9
				c1.2-0.4,2.6,0.4,2.9,1.6c0,0,0.3,1,0.3,1C34.6,24.5,37,33.6,39.2,42.7L39.2,42.7z M39.2,42.7c-2.8-9.1-5.5-18.9-8.1-28.1
				c-0.4-1.5-2.6-1.4-2.8,0.1c-0.1,0.5,0.2,1.1,0.4,1.7l1.3,3.8c2.6,7.4,5.3,15.5,7.7,22.9c0,0-0.1,0-0.1,0S39.2,42.7,39.2,42.7
				L39.2,42.7z"/>
		</g>
		<g>
			<path style="&st1;" d="M42.4,44.8c0,0.3-0.2,0.6-0.6,0.7c-1.3,0.4-2.7,0.9-4.1,1.3c-0.5,0.1-0.9-0.1-1.1-0.6
				c-0.1-0.4,0.1-0.9,0.5-1.1c1.4-0.4,2.8-0.9,4.1-1.3C41.9,43.7,42.4,44.2,42.4,44.8z"/>
			<path d="M42.4,44.8c0,0.7-0.8,0.8-1.3,1c0,0-1.6,0.7-1.6,0.7l-1.6,0.7c-1.4,0.6-2.4-1.6-1-2.3c0.6-0.2,2-0.5,2.6-0.6
				c0,0,1.7-0.4,1.7-0.4C41.9,43.6,42.5,44.2,42.4,44.8L42.4,44.8z M42.4,44.8c0-0.6-0.6-1.1-1.1-0.8c0,0-1.6,0.7-1.6,0.7
				c-0.5,0.2-1.9,0.8-2.4,1c-0.5,0.3-0.2,1,0.4,0.9c0.9-0.2,2.6-0.6,3.4-0.7C41.7,45.6,42.4,45.5,42.4,44.8L42.4,44.8z"/>
		</g>
	</g>
</g>
</svg>
