<?xml version="1.0" encoding="utf-8"?>
<!-- Generator: Adobe Illustrator 27.5.0, SVG Export Plug-In . SVG Version: 6.00 Build 0)  -->
<svg version="1.1" id="Capa_1" xmlns="http://www.w3.org/2000/svg" xmlns:xlink="http://www.w3.org/1999/xlink" x="0px" y="0px"
	 width="500px" height="500px" viewBox="0 0 500 500" style="enable-background:new 0 0 500 500;" xml:space="preserve">
<style type="text/css">
	.st0{fill:#D0D0D0;}
	.st1{opacity:0.7;}
	.st2{fill:#8B8B8B;}
	.st3{fill:#12A3D8;}
	.st4{fill:#1D3968;}
	.st5{fill:#F28E28;}
	.st6{fill:#FBBE49;}
	.st7{fill:#E84810;}
	.st8{fill:#FFFFFF;}
	.st9{fill:#F9EDDC;}
</style>
<ellipse transform="matrix(0.7071 -0.7071 0.7071 0.7071 -516.2161 1166.5273)" class="st0" cx="1150" cy="1206.4" rx="131.7" ry="131.7"/>
<g>
	<g class="st1">
		<path class="st2" d="M1245.1,1210.1l-11.1-56.9h-65.9l-17,68.8h-0.6l-25.5,20.1v11.2v6.3v2.8v2.7v7.9h8.8c0,9,7.3,16.4,16.4,16.4
			c9,0,16.4-7.3,16.4-16.4h50.4c0,9,7.3,16.4,16.4,16.4c9,0,16.4-7.3,16.4-16.4h2.6c0,0,0-3.1,0-7.9c0-0.9,0-1.8,0-2.7
			c0-0.9,0-1.8,0-2.8c0-2,0-4.1,0-6.3c0-3.5,0-7.3,0-11.2c0-6.4,0-13,0-18.8C1252.3,1215.5,1248.8,1211.8,1245.1,1210.1z
			 M1237.6,1208.6c0,0-0.6,0-2.2,0v-21.3l4.2,21.3C1238.4,1208.5,1237.6,1208.6,1237.6,1208.6z M1172.1,1158.4h57.6l3.1,15.8
			c0,0-0.1,0-0.1,0h-7.2c-1.5,0-2.7,1.2-2.7,2.7v22.8H1205c-1.5,0-2.7,1.2-2.7,2.7v6.6c-13.8,1.9-11.6,13.1-11.6,13.1h-21.4
			l8.7-15.5l2.4,2.6c0.7,0.7,2,0.7,2.8-0.2c0.9-0.8,1-2.1,0.3-2.8l-9.9-10.5c-0.7-0.7-2-0.7-2.8,0.2c-0.9,0.8-1,2.1-0.3,2.8l3.3,3.5
			l-15.5,12.1L1172.1,1158.4z"/>
		<polygon class="st2" points="1116,1265 1112.5,1265 1112.5,1247.7 1112.5,1240.5 1112.5,1221.9 1089.7,1221.9 1089.7,1221.8 
			1112.5,1221.8 1112.5,1203.3 1112.5,1196.1 1112.5,1177.4 1089.7,1177.4 1062.8,1177.4 1062.8,1196.1 1062.8,1203.3 
			1062.8,1221.8 1062.8,1221.9 1062.8,1240.5 1062.8,1247.7 1062.8,1265 1058.3,1265 1058.3,1272.9 1116,1272.9 1121.1,1272.9 
			1122.3,1272.9 1122.3,1151 1116,1151 		"/>
	</g>
	<g>
		<g>
			<polygon class="st3" points="1152.2,1210.5 1172.2,1194.9 1175.3,1198.1 1164.5,1217.2 1150.6,1217.9 			"/>
		</g>
		<g>
			<path class="st4" d="M1178.8,1201.4c0.7,0.7,0.5,2-0.3,2.8l0,0c-0.9,0.8-2.1,0.9-2.8,0.2l-9.9-10.5c-0.7-0.7-0.5-2,0.3-2.8l0,0
				c0.9-0.8,2.1-0.9,2.8-0.2L1178.8,1201.4z"/>
		</g>
		<g>
			<path class="st3" d="M1228,1169.4h-7.2c-1.5,0-2.7,1.2-2.7,2.7v22.8h-17.9c-1.5,0-2.7,1.2-2.7,2.7v10.3c0,1.5,1.2,2.7,2.7,2.7
				h17.9c0,1.5,1.2,2.7,2.7,2.7h7.2c1.5,0,2.7-1.2,2.7-2.7v-38.4C1230.7,1170.6,1229.5,1169.4,1228,1169.4z"/>
		</g>
		<g>
			<path class="st4" d="M1175,1250l-32.2-18.7l20.5-82.8h65.9l15.2,77.5L1175,1250z M1148.8,1228.7l26.8,15.6l62.9-21.8l-13.5-69
				h-57.6L1148.8,1228.7z"/>
		</g>
		<g>
			<g>
				<rect x="1058.1" y="1217.2" class="st5" width="49.7" height="44.4"/>
			</g>
			<g>
				<path class="st4" d="M1068.3,1252.3c0-2.5-1.8-4.5-4.1-4.5c-2.3,0-4.1,2-4.1,4.5h3.4v3.8c-0.2,0.3-0.6,0.6-0.8,0.6
					c-0.2,0-0.3-0.3-0.5-0.7l-1.3,0.7c0.5,1.2,1.2,1.5,1.7,1.6c0.1,0,0.1,0,0.1,0c1.1,0,2-1.3,2.1-1.4l0.1-0.2v-4.4H1068.3z"/>
			</g>
			<g>
				<path class="st4" d="M1072.5,1257v-4.3c2-0.5,2.4-2.8,2.4-4.9h-2.5h-1.1h-2.6c0,2.1,0.5,4.4,2.4,4.9v4.3
					c-1.4,0.1-1.7,0.7-1.7,1.2h2.1h0.9h1.9C1074.2,1257.7,1073.9,1257.1,1072.5,1257z"/>
			</g>
			<g>
				<g>
					<rect x="1099.9" y="1235.8" class="st6" width="7.9" height="7.2"/>
				</g>
			</g>
			<g>
				<g>
					<rect x="1058.1" y="1235.8" class="st6" width="7.9" height="7.2"/>
				</g>
			</g>
		</g>
		<g>
			<g>
				<rect x="1058.1" y="1172.7" class="st6" width="49.7" height="44.4"/>
			</g>
			<g>
				<path class="st4" d="M1098.8,1207.8c0-2.5-1.8-4.5-4.1-4.5c-2.3,0-4.1,2-4.1,4.5h3.4v3.8c-0.2,0.3-0.6,0.6-0.8,0.6
					c-0.2,0-0.3-0.3-0.5-0.7l-1.3,0.7c0.5,1.2,1.2,1.5,1.7,1.6c0.1,0,0.1,0,0.1,0c1.1,0,2-1.3,2.1-1.4l0.1-0.2v-4.4H1098.8z"/>
			</g>
			<g>
				<path class="st4" d="M1103,1212.5v-4.3c2-0.5,2.4-2.8,2.4-4.9h-2.5h-1.1h-2.7c0,2.1,0.5,4.4,2.4,4.9v4.3
					c-1.4,0.1-1.7,0.7-1.7,1.2h2h0.9h1.9C1104.7,1213.2,1104.3,1212.7,1103,1212.5z"/>
			</g>
			<g>
				<g>
					<rect x="1099.9" y="1191.3" class="st5" width="7.9" height="7.2"/>
				</g>
			</g>
			<g>
				<g>
					<rect x="1058.1" y="1191.3" class="st5" width="7.9" height="7.2"/>
				</g>
			</g>
		</g>
		<g>
			<path class="st7" d="M1120.3,1268.2v-30.8l25.5-20.1h40.2c0,0-2.7-13.5,16.1-13.4c24.1,0.2,30.8,0,30.8,0s14.7-1.1,14.7,14.7
				c0,20.1,0,49.6,0,49.6H1120.3z"/>
		</g>
		<g>
			<rect x="1120.3" y="1257.6" class="st8" width="127.3" height="2.7"/>
		</g>
		<g>
			<rect x="1120.3" y="1248.5" class="st8" width="127.3" height="6.3"/>
		</g>
		<g>
			<path class="st4" d="M1161.8,1268.2c0,9-7.3,16.4-16.4,16.4c-9,0-16.4-7.3-16.4-16.4c0-9,7.3-16.4,16.4-16.4
				C1154.5,1251.8,1161.8,1259.2,1161.8,1268.2z"/>
		</g>
		<g>
			<path class="st4" d="M1245,1268.2c0,9-7.3,16.4-16.4,16.4c-9,0-16.4-7.3-16.4-16.4c0-9,7.3-16.4,16.4-16.4
				C1237.6,1251.8,1245,1259.2,1245,1268.2z"/>
		</g>
		<g>
			<rect x="1120.3" y="1237.4" class="st9" width="127.3" height="30.8"/>
		</g>
		<g>
			<rect x="1058.1" y="1172.7" class="st9" width="26.9" height="91.5"/>
		</g>
		<g>
			<rect x="1111.3" y="1146.2" class="st4" width="6.3" height="121.9"/>
		</g>
		<g>
			<path class="st3" d="M1156.3,1268.2c0,6-4.8,10.8-10.8,10.8c-6,0-10.8-4.8-10.8-10.8c0-6,4.8-10.8,10.8-10.8
				C1151.5,1257.4,1156.3,1262.2,1156.3,1268.2z"/>
		</g>
		<g>
			<path class="st3" d="M1239.4,1268.2c0,6-4.9,10.8-10.8,10.8c-6,0-10.8-4.8-10.8-10.8c0-6,4.8-10.8,10.8-10.8
				C1234.6,1257.4,1239.4,1262.2,1239.4,1268.2z"/>
		</g>
		<g>
			<rect x="1053.6" y="1260.3" class="st4" width="62.8" height="7.9"/>
		</g>
	</g>
</g>
<g>
	
		<ellipse transform="matrix(0.7071 -0.7071 0.7071 0.7071 -103.5535 250.0002)" class="st0" cx="250" cy="250" rx="241.2" ry="241.2"/>
	<g>
		<g class="st1">
			<path class="st2" d="M424.2,256.8l-20.4-104.2H283.1l-31.2,126h-1.1l-46.7,36.8v20.5v11.5v5.1v5v14.5h16.2c0,16.6,13.4,30,30,30
				c16.6,0,30-13.4,30-30h92.3c0,16.6,13.4,30,30,30c16.6,0,30-13.4,30-30h4.8c0,0,0-5.6,0-14.5c0-1.6,0-3.2,0-5c0-1.6,0-3.3,0-5.1
				c0-3.6,0-7.4,0-11.5c0-6.5,0-13.4,0-20.5c0-11.8,0-23.8,0-34.4C437.4,266.7,430.8,259.9,424.2,256.8z M410.4,254c0,0-1.2,0-4,0.1
				V215l7.6,39.1C411.8,253.9,410.4,254,410.4,254z M290.5,162H396l5.7,29c-0.1,0-0.1,0-0.2,0h-13.1c-2.7,0-4.9,2.2-4.9,4.9v41.7
				h-32.7c-2.7,0-4.9,2.2-4.9,4.9v12.1c-25.2,3.5-21.2,24-21.2,24h-39.3l15.9-28.3l4.5,4.7c1.3,1.3,3.6,1.2,5.2-0.3
				c1.6-1.5,1.9-3.8,0.6-5.2l-18.1-19.2c-1.3-1.3-3.6-1.2-5.2,0.3c-1.6,1.5-1.9,3.8-0.6,5.2l6,6.3l-28.3,22.1L290.5,162z"/>
			<polygon class="st2" points="187.8,357.4 181.4,357.4 181.4,325.7 181.4,312.5 181.4,278.4 139.6,278.4 139.6,278.3 181.4,278.3 
				181.4,244.3 181.4,231.1 181.4,197 139.6,197 90.3,197 90.3,231.1 90.3,244.3 90.3,278.3 90.3,278.4 90.3,312.5 90.3,325.7 
				90.3,357.4 82.1,357.4 82.1,371.9 187.8,371.9 197.1,371.9 199.3,371.9 199.3,148.5 187.8,148.5 			"/>
		</g>
		<g>
			<g>
				<polygon class="st3" points="253.9,257.6 290.7,228.9 296.2,234.9 276.6,269.9 251,271.1 				"/>
			</g>
			<g>
				<path class="st4" d="M302.8,240.8c1.3,1.3,1,3.7-0.6,5.2l0,0c-1.6,1.5-3.9,1.7-5.2,0.3l-18.1-19.1c-1.3-1.3-1-3.6,0.6-5.2l0,0
					c1.6-1.5,3.9-1.7,5.2-0.3L302.8,240.8z"/>
			</g>
			<g>
				<path class="st3" d="M392.8,182.3h-13.1c-2.7,0-4.9,2.2-4.9,4.9v41.7H342c-2.7,0-4.9,2.2-4.9,4.9v18.8c0,2.7,2.2,4.9,4.9,4.9
					h32.7c0,2.7,2.2,4.9,4.9,4.9h13.1c2.7,0,4.9-2.2,4.9-4.9v-70.4C397.7,184.5,395.5,182.3,392.8,182.3z"/>
			</g>
			<g>
				<path class="st4" d="M295.8,329.8l-58.9-34.3l37.5-151.7h120.7l27.8,142L295.8,329.8z M247.8,290.9l49,28.5L412,279.6
					l-24.7-126.3H281.8L247.8,290.9z"/>
			</g>
			<g>
				<g>
					<rect x="81.6" y="269.7" class="st5" width="91" height="81.3"/>
				</g>
				<g>
					<path class="st4" d="M100.4,334c0-4.6-3.4-8.3-7.5-8.3c-4.1,0-7.5,3.7-7.5,8.3h6.3v7c-0.5,0.5-1.1,1.1-1.5,1.1
						c-0.3,0-0.6-0.5-0.9-1.2l-2.4,1.3c1,2.2,2.2,2.8,3.1,2.9c0.1,0,0.2,0,0.3,0c2.1,0,3.7-2.4,3.9-2.6l0.3-0.4v-8H100.4z"/>
				</g>
				<g>
					<path class="st4" d="M108.1,342.7v-7.8c3.6-0.8,4.4-5.1,4.4-8.9h-4.6h-2.1H101c0,3.8,0.9,8.1,4.4,8.9v7.8
						c-2.5,0.3-3.1,1.3-3.1,2.2h3.8h1.6h3.6C111.2,343.9,110.6,342.9,108.1,342.7z"/>
				</g>
				<g>
					<g>
						<rect x="158.2" y="303.8" class="st6" width="14.5" height="13.3"/>
					</g>
				</g>
				<g>
					<g>
						<rect x="81.6" y="303.8" class="st6" width="14.5" height="13.3"/>
					</g>
				</g>
			</g>
			<g>
				<g>
					<rect x="81.6" y="188.3" class="st6" width="91" height="81.3"/>
				</g>
				<g>
					<path class="st4" d="M156.2,252.6c0-4.6-3.3-8.3-7.5-8.3c-4.1,0-7.5,3.7-7.5,8.3h6.3v7c-0.4,0.5-1.1,1.1-1.5,1.1
						c-0.3,0-0.6-0.5-0.9-1.2l-2.4,1.3c1,2.2,2.2,2.8,3.1,2.9c0.1,0,0.2,0,0.3,0c2.1,0,3.7-2.4,3.9-2.6l0.2-0.4v-8H156.2z"/>
				</g>
				<g>
					<path class="st4" d="M163.9,261.3v-7.8c3.6-0.8,4.4-5.1,4.4-8.9h-4.6h-2h-4.9c0,3.8,0.9,8.1,4.4,8.9v7.8
						c-2.5,0.3-3.1,1.3-3.1,2.2h3.7h1.6h3.6C167,262.5,166.4,261.5,163.9,261.3z"/>
				</g>
				<g>
					<g>
						<rect x="158.2" y="222.4" class="st5" width="14.5" height="13.3"/>
					</g>
				</g>
				<g>
					<g>
						<rect x="81.6" y="222.4" class="st5" width="14.5" height="13.3"/>
					</g>
				</g>
			</g>
			<g>
				<path class="st7" d="M195.5,363.2v-56.5l46.7-36.8h73.7c0,0-4.9-24.7,29.5-24.5c44.2,0.3,56.4,0,56.4,0s27-2.1,27,27
					c0,36.8,0,90.9,0,90.9H195.5z"/>
			</g>
			<g>
				<rect x="195.5" y="343.7" class="st8" width="233.2" height="5"/>
			</g>
			<g>
				<rect x="195.5" y="327.2" class="st8" width="233.2" height="11.5"/>
			</g>
			<g>
				<path class="st4" d="M271.7,363.2c0,16.6-13.4,30-30,30c-16.6,0-30-13.4-30-30c0-16.6,13.4-30,30-30
					C258.2,333.2,271.7,346.6,271.7,363.2z"/>
			</g>
			<g>
				<path class="st4" d="M423.9,363.2c0,16.6-13.4,30-30,30c-16.6,0-30-13.4-30-30c0-16.6,13.4-30,30-30
					C410.5,333.2,423.9,346.6,423.9,363.2z"/>
			</g>
			<g>
				<rect x="195.5" y="306.7" class="st9" width="233.2" height="56.5"/>
			</g>
			<g>
				<rect x="81.6" y="188.3" class="st9" width="49.3" height="167.7"/>
			</g>
			<g>
				<rect x="179.1" y="139.9" class="st4" width="11.5" height="223.3"/>
			</g>
			<g>
				<path class="st3" d="M261.5,363.2c0,11-8.9,19.8-19.8,19.8c-11,0-19.8-8.9-19.8-19.8c0-11,8.9-19.8,19.8-19.8
					C252.6,343.4,261.5,352.2,261.5,363.2z"/>
			</g>
			<g>
				<path class="st3" d="M413.8,363.2c0,11-8.9,19.8-19.8,19.8c-11,0-19.8-8.9-19.8-19.8c0-11,8.9-19.8,19.8-19.8
					C404.9,343.4,413.8,352.2,413.8,363.2z"/>
			</g>
			<g>
				<rect x="73.4" y="348.7" class="st4" width="115.1" height="14.5"/>
			</g>
		</g>
	</g>
</g>
</svg>
