<?xml version="1.0" encoding="utf-8"?>
<!-- Generator: Adobe Illustrator 26.0.0, SVG Export Plug-In . SVG Version: 6.00 Build 0)  -->
<svg version="1.1" id="Capa_1" xmlns="http://www.w3.org/2000/svg" xmlns:xlink="http://www.w3.org/1999/xlink" x="0px" y="0px"
	 width="100px" height="100px" viewBox="0 0 100 100" style="enable-background:new 0 0 100 100;" xml:space="preserve">
<style type="text/css">
	.st0{fill:#C1C1C1;stroke:#000000;stroke-width:0.9418;stroke-linecap:round;stroke-linejoin:round;stroke-miterlimit:10;}
	.st1{fill:#FFFFFF;stroke:#000000;stroke-width:0.9315;stroke-linecap:round;stroke-linejoin:round;stroke-miterlimit:10;}
</style>
<g>
	<circle class="st0" cx="50" cy="50" r="44.6"/>
	<g>
		<path class="st1" d="M19.7,40.1c2.4-2.3,4.9-4.2,6.8-6.5c2.8-3.4,6.2-4.4,10.8-4.3c10.1,0.3,20.1,0.1,30.2,0.1
			c1.3,0,2.2,0.4,3.1,1.3c3.2,3.1,6.5,6.1,9.9,9.4C60.2,40.1,40.2,40.1,19.7,40.1z"/>
		<path class="st1" d="M19.5,44.2c0-1.3,0-2.5,0-3.8c20.4,0,40.7,0,61.1,0c0,1.3,0,2.5,0,3.8C60.2,44.2,39.9,44.2,19.5,44.2z"/>
		<path class="st1" d="M20.9,44.2c0.9,0,1.6,0,2.5,0c0,8.8,0,17.6,0,26.5c-0.8,0-1.6,0-2.5,0C20.9,61.9,20.9,53.1,20.9,44.2z"/>
		<path class="st1" d="M76.1,44.2c0.9,0,1.7,0,2.5,0c0,8.8,0,17.6,0,26.5c-0.8,0-1.6,0-2.5,0C76.1,61.9,76.1,53.1,76.1,44.2z"/>
		<path class="st1" d="M30.5,61.4c-0.9,0-1.6,0-2.5,0c0-5.7,0-11.4,0-17.2c0.8,0,1.6,0,2.5,0C30.5,49.8,30.5,55.5,30.5,61.4z"/>
		<path class="st1" d="M72.7,61.4c-0.8,0-1.6,0-2.5,0c0-5.7,0-11.4,0-17.2c0.8,0,1.6,0,2.5,0C72.7,49.9,72.7,55.5,72.7,61.4z"/>
	</g>
</g>
</svg>
