<?xml version="1.0" encoding="utf-8"?>
<!-- Generator: Adobe Illustrator 26.0.0, SVG Export Plug-In . SVG Version: 6.00 Build 0)  -->
<!DOCTYPE svg PUBLIC "-//W3C//DTD SVG 1.1//EN" "http://www.w3.org/Graphics/SVG/1.1/DTD/svg11.dtd" [
	<!ENTITY st0 "fill:#FF5757;">
	
		<!ENTITY st1 "fill:#FFFFFF;stroke:#000000;stroke-width:0.8071;stroke-linecap:round;stroke-linejoin:round;stroke-miterlimit:10;">
]>
<svg version="1.1" id="Capa_1" xmlns="http://www.w3.org/2000/svg" xmlns:xlink="http://www.w3.org/1999/xlink" x="0px" y="0px"
	 width="80px" height="80px" viewBox="0 0 80 80" style="enable-background:new 0 0 80 80;" xml:space="preserve">
<g>
	<circle style="&st0;" cx="40" cy="40" r="38.6"/>
	<g>
		<polygon style="&st1;" points="20.8,65.3 25.8,46.1 29.9,47.1 		"/>
		<polygon style="&st1;" points="37.7,47.9 37.1,65.3 41.2,48 		"/>
		<polygon style="&st1;" points="51.6,47.4 59.4,65.3 55.6,46.1 		"/>
		<path style="&st1;" d="M18.2,17c0,0,7.2-5.7,18.9,0.9l9.6,21.7H33.7c0,0-8.5-9.4-12.9-2.2L18.2,17z"/>
		<path style="&st1;" d="M51.7,47.3c0,0-14.6,2.2-25.9-1.2c0,0-7.3-3.7-5.1-8.8c0,0,3.3-7,12.9,2.2C33.7,39.5,37.4,47.3,51.7,47.3z"
			/>
		<path style="&st1;" d="M33.7,39.5h20.9c0,0,5,0.2,1,6.5l-3.8,1.2C51.7,47.3,38.3,47.6,33.7,39.5z"/>
		<path style="&st1;" d="M46.7,39.5c0,0,9.8-9.4,14.8-9.5c0,0,5.4-0.7,5.2,5.8c0,0-0.6,7.5-11.1,10.3c0,0,4-6.5-1-6.5H46.7z"/>
	</g>
</g>
</svg>
