<?xml version="1.0" encoding="utf-8"?>
<!-- Generator: Adobe Illustrator 28.0.0, SVG Export Plug-In . SVG Version: 6.00 Build 0)  -->
<svg version="1.1" id="Capa_1" xmlns="http://www.w3.org/2000/svg" xmlns:xlink="http://www.w3.org/1999/xlink" x="0px" y="0px"
	 width="80px" height="80px" viewBox="0 0 80 80" style="enable-background:new 0 0 80 80;" xml:space="preserve">
<style type="text/css">
	.st0{fill:url(#SVGID_1_);}
	.st1{fill:#FFFFFF;stroke:#000000;stroke-width:1.0662;stroke-linecap:round;stroke-linejoin:round;stroke-miterlimit:10;}
	.st2{fill:url(#SVGID_00000078043460677176175840000001243898440554336914_);}
	.st3{fill:#FFFFFF;stroke:#000000;stroke-width:0.8713;stroke-linecap:round;stroke-linejoin:round;stroke-miterlimit:10;}
	.st4{fill:url(#SVGID_00000024002206704387544860000006498232797428238232_);}
</style>
<g>
	
		<radialGradient id="SVGID_1_" cx="40" cy="40" r="44.3047" gradientTransform="matrix(1 0 0 -1 0 80)" gradientUnits="userSpaceOnUse">
		<stop  offset="0" style="stop-color:#FFFFFF"/>
		<stop  offset="0.106" style="stop-color:#FAFCFF"/>
		<stop  offset="0.2297" style="stop-color:#ECF3FF"/>
		<stop  offset="0.3623" style="stop-color:#D5E5FF"/>
		<stop  offset="0.5011" style="stop-color:#B4D1FF"/>
		<stop  offset="0.6449" style="stop-color:#89B8FF"/>
		<stop  offset="0.7927" style="stop-color:#5698FF"/>
		<stop  offset="0.9412" style="stop-color:#1A74FF"/>
		<stop  offset="1" style="stop-color:#0064FF"/>
	</radialGradient>
	<circle class="st0" cx="40" cy="40" r="37.7"/>
	<path class="st1" d="M28.1,19c-1.6,3.7-1.6,7.5-1,11.3s1.9,7.4,4.3,10.4c2.3,3.1,5.4,5.3,8.9,6.9c3.6,1.6,7.2,2.3,11.2,2
		c3.8-0.2,7.3-1.8,10.7-3.5c-1.3,3.6-3.2,6.6-6,9.1c-4.3,3.7-9.3,5.6-14.8,5.7c-8.7,0.2-20.4-5.1-23-18.5
		C16.2,31.9,21.5,23.3,28.1,19z"/>
</g>
<g>
	
		<radialGradient id="SVGID_00000146493537489619706080000010505399961951136397_" cx="-141.0105" cy="62.9684" r="44.2961" gradientTransform="matrix(1 0 0 -1 0 80)" gradientUnits="userSpaceOnUse">
		<stop  offset="0" style="stop-color:#FFFFFF"/>
		<stop  offset="0.106" style="stop-color:#FAFEFF"/>
		<stop  offset="0.2297" style="stop-color:#ECFBFF"/>
		<stop  offset="0.3623" style="stop-color:#D5F7FF"/>
		<stop  offset="0.5011" style="stop-color:#B4F0FF"/>
		<stop  offset="0.6449" style="stop-color:#89E8FF"/>
		<stop  offset="0.7927" style="stop-color:#56DEFF"/>
		<stop  offset="0.9412" style="stop-color:#1AD2FF"/>
		<stop  offset="1" style="stop-color:#00CDFF"/>
	</radialGradient>
	<circle style="fill:url(#SVGID_00000146493537489619706080000010505399961951136397_);" cx="-141" cy="17" r="37.7"/>
	<path class="st3" d="M-150.4,8.4c-2.3,2.4-3.3,5.3-4,8.4c-0.7,3.1-0.5,6.2,0.4,9.2c0.9,3,2.6,5.6,4.9,7.8s4.9,3.8,8,4.7
		c3,0.9,6.1,0.7,9.2,0.3c-2,2.4-4.3,4.2-7.2,5.3c-4.3,1.6-8.7,1.7-13,0.2c-6.7-2.3-14.2-9.7-12.4-20.7
		C-163.1,14.9-156.6,9.8-150.4,8.4z"/>
	<g>
		<path d="M-126.5,14.7c-0.1-2.7-0.3-5.8-0.3-8.2h-0.1c-0.6,2.2-1.4,4.6-2.4,7.2l-3.4,9.3h-1.9l-3.1-9.1c-0.9-2.7-1.7-5.1-2.2-7.4
			h-0.1c-0.1,2.4-0.2,5.6-0.4,8.4l-0.5,8.2h-2.3l1.3-19h3.1l3.2,9.2c0.8,2.3,1.4,4.4,1.9,6.4h0.1c0.5-1.9,1.2-4,2-6.4l3.4-9.2h3.1
			l1.2,19h-2.4L-126.5,14.7z"/>
		<path d="M-112.2,23.1l-0.2-1.7h-0.1c-0.8,1.1-2.2,2-4.2,2c-2.8,0-4.2-1.9-4.2-3.9c0-3.3,2.9-5.1,8.2-5.1v-0.3
			c0-1.1-0.3-3.2-3.1-3.2c-1.3,0-2.6,0.4-3.6,1l-0.6-1.6c1.1-0.7,2.8-1.2,4.5-1.2c4.2,0,5.2,2.9,5.2,5.6v5.1c0,1.2,0.1,2.3,0.2,3.3
			C-110.1,23.1-112.2,23.1-112.2,23.1z M-112.6,16.1c-2.7-0.1-5.8,0.4-5.8,3.1c0,1.6,1.1,2.4,2.3,2.4c1.8,0,2.9-1.1,3.3-2.3
			c0.1-0.3,0.1-0.5,0.1-0.8L-112.6,16.1L-112.6,16.1z"/>
	</g>
</g>
<g>
	
		<radialGradient id="SVGID_00000113317862756069536110000012902039753163263931_" cx="-395.9" cy="162.7" r="44.3017" gradientTransform="matrix(1 0 0 -1 0 80)" gradientUnits="userSpaceOnUse">
		<stop  offset="0" style="stop-color:#FFFFFF"/>
		<stop  offset="0.2357" style="stop-color:#FFFDFD"/>
		<stop  offset="0.3724" style="stop-color:#FFF4F4"/>
		<stop  offset="0.4838" style="stop-color:#FFE6E6"/>
		<stop  offset="0.5816" style="stop-color:#FFD2D2"/>
		<stop  offset="0.6704" style="stop-color:#FFB8B8"/>
		<stop  offset="0.7528" style="stop-color:#FF9999"/>
		<stop  offset="0.8302" style="stop-color:#FF7373"/>
		<stop  offset="0.9038" style="stop-color:#FF4747"/>
		<stop  offset="0.9717" style="stop-color:#FF1616"/>
		<stop  offset="1" style="stop-color:#FF0000"/>
	</radialGradient>
	<circle style="fill:url(#SVGID_00000113317862756069536110000012902039753163263931_);" cx="-395.9" cy="-82.7" r="37.7"/>
	<g>
		<path d="M-393.4-93.8c-5.5-1.4-11.2,1.9-12.7,7.4c-0.7,2.5-0.3,4.9,0.6,7.3c1.3,3.1,2.7,6.1,3.1,9.5c0.1,0.5,0.4,0.7,1,0.7
			c1.8,0,3.6,0,5.4,0l0,0c0.8,0,1.6,0,2.5,0c0.8,0,1.6,0,2.5,0c1.4,0,1.4,0,1.6-1.4c0.3-2.2,1-4.2,1.9-6.2c0.7-1.5,1.3-3.1,1.8-4.7
			C-384.3-86.9-387.7-92.4-393.4-93.8z"/>
		<path d="M-390.7-68.3c-3.5,0-6.9,0-10.4,0c-0.5,0-0.9,0.1-0.9,0.6c0,0.6,0.4,0.7,0.9,0.7c1.7,0,3.4,0,5.1,0l0,0c1.7,0,3.5,0,5.2,0
			c0.4,0,0.8,0,0.8-0.6C-389.9-68.2-390.2-68.3-390.7-68.3z"/>
		<path d="M-392.3-62.6c-2.5,0-5,0-7.5-0.1c-0.6,0-0.7,0.3-0.6,0.8c0,0.5,0.4,0.5,0.8,0.6c0.8,0.1,1.8-0.3,2.2,0.9
			c0,0.1,0.4,0.2,0.7,0.3c0.3,0,0.6,0,0.9,0c0,0.1,0,0.1,0.1,0.2c0.5-0.2,1.3-0.3,1.6-0.6c0.3-0.4,0.6-0.5,1.1-0.6
			c0.3,0,0.7,0,1-0.1c0.2-0.1,0.5-0.4,0.6-0.7C-391.6-62.3-391.8-62.6-392.3-62.6z"/>
		<path d="M-391.2-66.4c-3.2,0-6.3,0-9.5,0c-0.5,0-0.9,0.1-0.9,0.7s0.4,0.7,0.9,0.7c1.6,0,3.2,0,4.8,0l0,0c1.6,0,3.1,0,4.7,0
			c0.5,0,0.9-0.1,0.8-0.7C-390.4-66.4-390.8-66.4-391.2-66.4z"/>
		<path d="M-391.7-64.5c-2.9,0-5.8,0-8.6,0c-0.5,0-0.8,0.1-0.8,0.7c0,0.6,0.4,0.6,0.9,0.6c1.4,0,2.8,0,4.2,0l0,0c1.5,0,2.9,0,4.4,0
			c0.5,0,0.8-0.1,0.8-0.7C-390.9-64.4-391.2-64.5-391.7-64.5z"/>
		<path d="M-405.7-73.8c-0.3,0-0.7,0.1-0.9,0.3c-1.7,1.6-3.3,3.3-4.9,4.9c-0.3,0.3-0.5,0.7-0.2,1.1c0.4,0.4,0.8,0.2,1.1-0.1
			c1.6-1.7,3.3-3.3,4.9-5c0.1-0.1,0.2-0.4,0.4-0.6C-405.4-73.5-405.5-73.8-405.7-73.8z"/>
		<path d="M-411.3-97.7c1.4,1.4,2.8,2.8,4.3,4.3c0.2,0.2,0.4,0.5,0.6,0.6s0.5,0.2,0.7,0.1s0.3-0.3,0.5-0.5c-0.1-0.2-0.2-0.4-0.3-0.6
			c-1.7-1.7-3.4-3.4-5.1-5.1c-0.2-0.2-0.6-0.1-1-0.1c0,0.3,0,0.7,0.1,1C-411.6-97.9-411.4-97.8-411.3-97.7z"/>
		<path d="M-385.3-93c1.6-1.6,3.3-3.3,4.9-4.9c0.2-0.2,0.3-0.4,0.4-0.6c-0.2-0.2-0.3-0.5-0.5-0.6c-0.3,0-0.7,0-0.9,0.2
			c-1.7,1.6-3.3,3.3-4.9,4.9c-0.3,0.3-0.5,0.7-0.2,1.1C-386-92.5-385.6-92.7-385.3-93z"/>
		<path d="M-385.3-73.6c-0.2-0.2-0.4-0.3-0.6-0.5c-0.2,0.2-0.6,0.3-0.6,0.4c0,0.3,0,0.7,0.2,0.9c1.6,1.7,3.2,3.3,4.9,4.9
			c0.3,0.3,0.7,0.6,1.1,0.2s0.2-0.8-0.2-1.1C-382-70.3-383.6-72-385.3-73.6z"/>
		<path d="M-409.4-83.3c0-0.6-0.5-0.7-0.9-0.7c-2.3,0-4.5,0-6.8,0c-0.5,0-1,0.1-1,0.7s0.5,0.7,0.9,0.7c1.1,0,2.2,0,3.3,0
			c1.1,0,2.3,0,3.4,0C-409.9-82.6-409.5-82.7-409.4-83.3z"/>
		<path d="M-395.9-96.8c0.6,0,0.7-0.4,0.7-0.9c0-1.1,0-2.3,0-3.4c0-1.2,0-2.3,0-3.5c0-0.5-0.1-0.9-0.7-0.9s-0.7,0.4-0.7,0.9
			c0,2.3,0,4.6,0,6.9C-396.6-97.2-396.5-96.8-395.9-96.8z"/>
		<path d="M-374.7-84c-1.1,0-2.2,0-3.3,0c-1.1,0-2.3,0-3.4,0c-0.5,0-0.9,0.1-0.9,0.7s0.5,0.7,0.9,0.7c2.3,0,4.5,0,6.8,0
			c0.5,0,1-0.1,0.9-0.7C-373.7-83.9-374.2-84-374.7-84z"/>
	</g>
</g>
</svg>
