<?xml version="1.0" encoding="utf-8"?>
<!-- Generator: Adobe Illustrator 27.8.1, SVG Export Plug-In . SVG Version: 6.00 Build 0)  -->
<svg version="1.1" id="Capa_1" xmlns="http://www.w3.org/2000/svg" xmlns:xlink="http://www.w3.org/1999/xlink" x="0px" y="0px"
	 width="100px" height="100px" viewBox="0 0 100 100" style="enable-background:new 0 0 100 100;" xml:space="preserve">
<style type="text/css">
	.st0{fill:#FFFFFF;}
	.st1{fill:none;stroke:#020203;stroke-width:2.0887;stroke-miterlimit:10;}
	.st2{fill:#606060;stroke:#E20E18;stroke-linecap:round;stroke-linejoin:round;stroke-miterlimit:10;}
	.st3{fill:#CECECE;stroke:#E20E18;stroke-linecap:round;stroke-linejoin:round;stroke-miterlimit:10;}
</style>
<g>
	
		<image style="overflow:visible;opacity:0.75;" width="106" height="106" xlink:href="2942D57F.png"  transform="matrix(1 0 0 1 0 -1)">
	</image>
	<g>
		<circle class="st0" cx="50" cy="50" r="45.2"/>
		<circle class="st1" cx="50" cy="50" r="45.2"/>
	</g>
</g>
<g>
	<polygon class="st2" points="45.7,53 68.2,30.7 73.3,28.8 72.2,33.9 48.8,56.7 	"/>
	<path class="st2" d="M28.4,65.1l11.3-11.8l6-0.3l3.1,3.7v6.6L37.7,74c0,0-3.8,1.7-8.7-0.7C29,73.3,26.7,70.4,28.4,65.1z"/>
</g>
<path class="st3" d="M47.8,39.8c0,0-0.7,3.3-3.8,5.9C46.6,43.3,47.8,39.8,47.8,39.8c1.6-10.8-7.3-14.4-7.3-14.4
	c-7.1-2.7-6.7,2.4-6.7,2.4c6.1,6.3,2.6,8.1,2.6,8.1c-3.1,4.1-8.6-3.4-8.6-3.4c-4.3,0.4-2.6,5.6-2.6,5.6c2,12.1,15.4,9.5,15.4,9.5
	l24.8,26.9c0,0,4.8,2.3,8-0.7c0,0,1.9,0,1.9-7.8L47.8,39.8z"/>
</svg>
