<?xml version="1.0" encoding="utf-8"?>
<!-- Generator: Adobe Illustrator 26.0.0, SVG Export Plug-In . SVG Version: 6.00 Build 0)  -->
<svg version="1.1" id="Capa_1" xmlns="http://www.w3.org/2000/svg" xmlns:xlink="http://www.w3.org/1999/xlink" x="0px" y="0px"
	 width="100px" height="100px" viewBox="0 0 100 100" style="enable-background:new 0 0 100 100;" xml:space="preserve">
<style type="text/css">
	.st0{fill:#FFFF00;stroke:#000000;stroke-miterlimit:10;}
</style>
<g>
	<circle class="st0" cx="50" cy="50" r="44.6"/>
	<g>
		<circle cx="34.8" cy="45" r="7.9"/>
		<path d="M34.1,71.1l-1.2,3.4h-6.4c0,0-2.9,0.5-4.4-3.4V60.2c0,0,0-5,5.2-5.4h14.8c0,0,4.1,0.4,5.1,4.4h-8.6c0,0-0.8,0.1-1,1.2
			l-3,8.7c0,0,0.3-0.6-6.1-0.4v-6.6c0,0-1.2-1.8-2.4,0v7.7c0,0,0.1,1,1.3,1C27.5,70.8,34.5,70.7,34.1,71.1z"/>
		<path d="M39.7,61.4h10.8l-1.3,3.8c0,0-2.4-1.2-3.7,1.4l-1.3,3.8c0,0-0.7,2.7,2,3.3l-1.1,3.8h-11L39.7,61.4z"/>
		<path d="M48,67.2l-1.5,4.2c0,0,2.5,0.9,3.2-1.3C49.6,70.2,50.2,68,48,67.2z"/>
		<path d="M77.8,46.4V27.9c0-4.8-5.6-5.4-5.6-5.4H49.7c-5.2,0.7-5.8,5.4-5.8,5.4v18.7c0.6,7.2,7.4,5.8,7.4,5.8l-0.5,5.7
			c0.4,1.2,2.3,0,2.3,0c8.7-6.5,19.3-5.6,19.3-5.6C78.5,51.5,77.8,46.4,77.8,46.4z M57.4,46.4L50,39l2.3-2.4l4.8,4.8l12.3-12.1
			l2.3,2.3L57.4,46.4z"/>
	</g>
</g>
</svg>
