<?xml version="1.0" encoding="utf-8"?>
<!-- Generator: Adobe Illustrator 26.0.0, SVG Export Plug-In . SVG Version: 6.00 Build 0)  -->
<!DOCTYPE svg PUBLIC "-//W3C//DTD SVG 1.1//EN" "http://www.w3.org/Graphics/SVG/1.1/DTD/svg11.dtd" [
	<!ENTITY st0 "fill:#D3AD75;">
	
		<!ENTITY st1 "fill:#FFFFFF;stroke:#000000;stroke-width:0.7678;stroke-linecap:round;stroke-linejoin:round;stroke-miterlimit:10;">
]>
<svg version="1.1" id="Capa_1" xmlns="http://www.w3.org/2000/svg" xmlns:xlink="http://www.w3.org/1999/xlink" x="0px" y="0px"
	 width="80px" height="80px" viewBox="0 0 80 80" style="enable-background:new 0 0 80 80;" xml:space="preserve">
<g>
	<circle style="&st0;" cx="40" cy="40" r="36.8"/>
	<g>
		<path style="&st1;" d="M40,65.2c-3.8,0-7.7,0-11.5,0c-2.8,0-4.2-1.5-4.2-4.3c0-5.8,0-11.6,0-17.4c0-2,0.7-3,2.6-3.6
			c5.1-1.7,10.3-2.5,15.7-2.1c3.8,0.2,7.5,1.1,11.1,2.3c1.4,0.5,2.1,1.5,2.1,3c0,6,0,12.1,0,18.1c0,2.4-1.5,3.9-3.9,3.9
			C47.9,65.2,44,65.2,40,65.2z M40,58.6c0.5,0,1,0,1.4,0c1.2,0,1.2-0.1,1.1-1.3c-0.2-1.5-0.5-3.1-0.7-4.6c-0.1-0.6,0-1,0.6-1.3
			c1.3-0.9,1.9-2.6,1.5-4c-0.5-1.7-1.8-2.8-3.6-2.9c-1.8-0.1-3.2,0.9-3.8,2.5c-0.6,1.6-0.1,3.4,1.4,4.5c0.5,0.4,0.6,0.7,0.5,1.2
			c-0.3,1.4-0.5,2.9-0.7,4.3c-0.2,1.6-0.2,1.6,1.4,1.6C39.4,58.6,39.7,58.6,40,58.6z"/>
		<path style="&st1;" d="M27.7,37.8c0-4.2-0.2-8.3,0.1-12.4c0.3-4.8,4.6-9.2,9.4-10.3c6.9-1.5,13.5,2.5,15,9.3
			c0.5,2.3,0.3,4.7,0.3,7c0,0.3-0.7,0.8-1.1,0.9c-1.2,0.1-2.4,0.1-3.5,0c-0.9,0-1.2-0.6-1.2-1.4c0-1.3,0-2.6,0-3.9
			c0-3.4-2.6-6-6.1-6.3c-3.5-0.2-6.6,2.1-6.9,5.4c-0.3,3-0.2,6-0.2,9.1c0,0.9-0.1,1.4-1.2,1.5C30.7,37,29.2,37.5,27.7,37.8z"/>
	</g>
</g>
</svg>
