<?xml version="1.0" encoding="utf-8"?>
<!-- Generator: Adobe Illustrator 26.0.0, SVG Export Plug-In . SVG Version: 6.00 Build 0)  -->
<!DOCTYPE svg PUBLIC "-//W3C//DTD SVG 1.1//EN" "http://www.w3.org/Graphics/SVG/1.1/DTD/svg11.dtd" [
	<!ENTITY st0 "fill:#FF7357;">
	
		<!ENTITY st1 "fill:#FFFFFF;stroke:#000000;stroke-width:0.7991;stroke-linecap:round;stroke-linejoin:round;stroke-miterlimit:10;">
]>
<svg version="1.1" id="Capa_1" xmlns="http://www.w3.org/2000/svg" xmlns:xlink="http://www.w3.org/1999/xlink" x="0px" y="0px"
	 width="80px" height="80px" viewBox="0 0 80 80" style="enable-background:new 0 0 80 80;" xml:space="preserve">
<g>
	<circle style="&st0;" cx="40" cy="40" r="38.3"/>
	<g>
		<path style="&st1;" d="M31.1,14.8C31.1,14.9,31.1,14.9,31.1,14.8c0.6,0.3,0.8,0.6,0.8,1.1c0,1.3,0,2.7,0,4c0,0.6-0.5,1.1-1.1,1.1
			c-0.4,0-0.9,0-1.3,0c-0.6,0-1.1-0.4-1.1-1.1c0-1.4,0-2.7,0-4.1c0-0.5,0.3-0.8,0.7-1c0,0,0.1,0,0.1-0.1
			C29.8,14.8,30.4,14.8,31.1,14.8z"/>
		<path style="&st1;" d="M50.8,14.8c0,0.1,0.1,0.1,0.1,0.1c0.4,0.2,0.7,0.5,0.7,1c0,1.4,0,2.7,0,4.1c0,0.6-0.5,1-1.1,1.1
			c-0.5,0-0.9,0-1.4,0c-0.6,0-1.1-0.4-1.1-1c0-1.4,0-2.7,0-4.1c0-0.5,0.2-0.8,0.7-1c0,0,0.1,0,0.1-0.1
			C49.5,14.8,50.2,14.8,50.8,14.8z"/>
		<path style="&st1;" d="M40,22.2c3.3,0,6.6,0,9.9,0c1.9,0,3.3,1.2,3.6,3c0.1,0.4,0,0.9-0.1,1.3c-1.2,3.8-2.4,7.6-3.6,11.5
			c-0.1,0.4-0.2,0.8-0.4,1.1c-0.7,1.2-1.7,1.8-3,1.8c-4.3,0-8.5,0-12.8,0c-1.5,0-2.8-1-3.2-2.5c-0.8-2.6-1.6-5.2-2.4-7.8
			c-0.4-1.4-0.9-2.7-1.3-4.1c-0.6-1.9,0.7-4.1,2.7-4.4c0.2,0,0.5-0.1,0.7-0.1C33.4,22.2,36.7,22.2,40,22.2z M40,34.5
			c-1.2,0-2.2,1-2.2,2.2c0,1.2,1,2.2,2.2,2.3c1.2,0,2.3-1,2.3-2.2C42.2,35.6,41.2,34.5,40,34.5z M30.1,27.6c1,0,1.8-0.8,1.8-1.7
			c0-1-0.8-1.8-1.7-1.8c-1,0-1.8,0.8-1.8,1.7C28.4,26.8,29.1,27.6,30.1,27.6z M49.9,27.6c1,0,1.8-0.8,1.8-1.7c0-1-0.8-1.8-1.7-1.8
			c-1,0-1.8,0.8-1.8,1.8C48.1,26.8,48.9,27.6,49.9,27.6z"/>
		<path style="&st1;" d="M39.5,65.2c-0.6,0-1.2,0-1.7,0c-0.3-0.1-0.6-0.1-1-0.2c-2.4-0.6-4.2-1.8-5.1-4.1c-0.5-1.1-0.6-2.2-0.4-3.4
			c0.1-0.6,0.5-1.1,1.1-1.3c0.6-0.1,1.2,0.1,1.6,0.6c0.3,0.5,0.6,1,1,1.4c1.2,1.3,3.5,1.4,4.8,0.2c0.7-0.6,0.9-1.4,0.8-2.3
			c-0.1-1-0.4-2-0.9-2.9c-0.3-0.7-0.7-1.4-0.8-2.2c-0.1-0.4-0.1-0.8-0.1-1.2c0-0.5,0.1-1,0-1.5c-0.1-0.6-0.4-1.1-1-1.4
			c-0.4-0.2-0.9-0.5-1.3-0.8c-0.6-0.4-0.9-0.9-0.9-1.6c0-0.6-0.1-1.2-0.1-1.8c0-0.2-0.1-0.4-0.2-0.7c0.1,0,0.2,0,0.2,0
			c3,0,6.1,0,9.1,0c0.2,0,0.3,0,0.2,0.3c-0.3,0.6-0.2,1.2-0.3,1.9c0,0.6-0.2,1-0.7,1.3c-0.3,0.2-0.6,0.4-0.9,0.7
			c-0.5,0.5-0.6,1.1-0.2,1.8c0.2,0.3,0.5,0.6,0.7,0.8c0.2,0.2,0.4,0.5,0.5,0.7c0.4,0.7,0.8,1.3,1.2,2c0.8,1.3,1.3,2.7,1.6,4.3
			c0.6,4.3-1.9,8.1-6.1,9.2C40.3,65,40,65.1,39.5,65.2C39.6,65.1,39.5,65.1,39.5,65.2z"/>
	</g>
</g>
</svg>
