<?xml version="1.0" encoding="utf-8"?>
<!-- Generator: Adobe Illustrator 26.0.0, SVG Export Plug-In . SVG Version: 6.00 Build 0)  -->
<!DOCTYPE svg PUBLIC "-//W3C//DTD SVG 1.1//EN" "http://www.w3.org/Graphics/SVG/1.1/DTD/svg11.dtd" [
	<!ENTITY st0 "fill:#006633;">
	<!ENTITY st1 "fill:#15FC82;">
	
		<!ENTITY st2 "fill:#FFFFFF;stroke:#000000;stroke-width:0.7723;stroke-linecap:round;stroke-linejoin:round;stroke-miterlimit:10;">
]>
<svg version="1.1" id="Capa_1" xmlns="http://www.w3.org/2000/svg" xmlns:xlink="http://www.w3.org/1999/xlink" x="0px" y="0px"
	 width="80px" height="80px" viewBox="0 0 80 80" style="enable-background:new 0 0 80 80;" xml:space="preserve">
<g>
	<circle style="&st0;" cx="40" cy="40" r="37"/>
	<g>
		<path style="&st1;" d="M64.3,28.3c-0.3,0.4-0.7,0.8-1,1.2c-3.1,3.8-6.2,7.5-9.2,11.3c0,0.1-0.1,0.1-0.1,0.2
			c-0.3,0.6-0.8,0.7-1.5,0.7c-1-0.1-2.1,0-3.1,0c-0.3,0-0.4-0.1-0.4-0.4c0-1.6,0-3.3,0-4.9c0-0.2,0.1-0.4,0.2-0.5c2-2.5,4-4.9,6-7.4
			c0.1-0.1,0.2-0.2,0.4-0.2c2.8,0,5.7,0,8.5,0C64.2,28.3,64.2,28.3,64.3,28.3z"/>
		<g>
			<path style="&st2;" d="M24.2,42.6c0,0,0.1,0,0.1,0c1.2,0,2.5,0,3.7,0c0.1,0,0.2,0.1,0.3,0.2c1.3,1.5,2.5,3.1,3.8,4.6
				c1.2,1.5,2.5,3,3.7,4.5c0,0.1,0.1,0.1,0.2,0.2c0.4-0.5,0.7-0.9,1.1-1.4c2.2-2.6,4.3-5.3,6.5-8c0.1-0.2,0.2-0.2,0.4-0.2
				c1.3,0,2.5,0,3.8,0c0.1,0,0.2,0,0.3,0c0,0.1,0,0.2,0,0.3c0,1.7,0,3.3,0,5c0,0.2-0.1,0.4-0.2,0.5c-2,2.5-4,4.9-6.1,7.4
				c-0.1,0.1-0.2,0.2-0.3,0.2c-3.7,0-7.5,0-11.2,0c-0.1,0-0.3-0.1-0.4-0.2c-1.9-2.3-3.8-4.6-5.7-7c-0.1-0.1-0.1-0.2-0.1-0.4
				c0-1.9,0-3.8,0-5.7C24.1,42.8,24.1,42.7,24.2,42.6z"/>
			<path style="&st2;" d="M64.4,56c-0.2,0-0.3,0-0.3,0c-2.8,0-5.6,0-8.3,0c-0.2,0-0.3-0.1-0.5-0.2c-2-2.5-4-4.9-6-7.3
				c-0.2-0.2-0.2-0.4-0.2-0.6c0-1.6,0-3.3,0-4.9c0-0.1,0-0.2,0-0.3c0.1,0,0.2,0,0.3,0c1.3,0,2.5,0,3.8,0c0.2,0,0.4,0.1,0.5,0.2
				c2.2,2.7,4.4,5.4,6.6,8c1.3,1.6,2.7,3.3,4,4.9C64.2,55.8,64.3,55.9,64.4,56z"/>
			<path style="&st2;" d="M48.1,41.7c-1.5,0-2.9,0-4.3,0c-0.1,0-0.2-0.1-0.3-0.2c-1.8-2.2-3.6-4.4-5.4-6.6c-1.7-2.1-3.4-4.2-5.1-6.3
				c-0.1-0.1-0.1-0.2-0.2-0.3c0.1,0,0.2,0,0.3,0c2.8,0,5.6,0,8.4,0c0.2,0,0.3,0.1,0.4,0.2c2,2.4,4,4.9,6,7.3
				c0.2,0.2,0.3,0.4,0.2,0.7c0,1.6,0,3.3,0,4.9C48.1,41.4,48.1,41.6,48.1,41.7z"/>
			<path style="&st2;" d="M24.1,41.7c0-1.7,0-3.3,0-5c0.3,0,0.7,0,1,0c0.7,0,1.3-0.2,1.7-0.8c0.4-0.7,0.3-1.5-0.4-2
				c-0.4-0.3-0.9-0.4-1.4-0.4c-0.3,0-0.6,0-0.9,0c0-1.7,0-3.5,0-5.2c0,0,0.1,0,0.1,0c1.3,0,2.6,0,3.9,0.1c2.5,0.3,4.5,1.5,5.6,3.9
				c0.6,1.2,0.7,2.4,0.5,3.7c-0.4,2.6-2,4.3-4.4,5.2c-1,0.4-2.1,0.6-3.3,0.6c-0.7,0-1.5,0-2.2,0C24.3,41.7,24.2,41.7,24.1,41.7z"/>
			<path style="&st2;" d="M23.2,41.7c-2.5,0-5.1,0-7.6,0c0-4.5,0-8.9,0-13.4c2.5,0,5.1,0,7.6,0C23.2,32.8,23.2,37.2,23.2,41.7z"/>
			<path style="&st2;" d="M15.6,42.6c2.5,0,5,0,7.6,0c0,4.5,0,8.9,0,13.4c-2.5,0-5,0-7.6,0C15.6,51.6,15.6,47.1,15.6,42.6z"/>
		</g>
	</g>
</g>
</svg>
