<?xml version="1.0" encoding="utf-8"?>
<!-- Generator: Adobe Illustrator 24.3.0, SVG Export Plug-In . SVG Version: 6.00 Build 0)  -->
<svg version="1.1" id="Capa_1" xmlns="http://www.w3.org/2000/svg" xmlns:xlink="http://www.w3.org/1999/xlink" x="0px" y="0px"
	 width="100px" height="100px" viewBox="0 0 100 100" style="enable-background:new 0 0 100 100;" xml:space="preserve">
<style type="text/css">
	.st0{fill:#FF7BE0;}
	.st1{fill:#FFFFFF;stroke:#000000;stroke-linecap:round;stroke-linejoin:round;stroke-miterlimit:10;}
</style>
<g>
	<circle class="st0" cx="49.7" cy="50.1" r="47.9"/>
	<g>
		<path class="st1" d="M61.7,28.4c0,0-4.1,5.7,0,6C61.7,34.4,65.4,34.8,61.7,28.4z"/>
		<path class="st1" d="M55.3,36.4H44.6c-0.7,0-1.3-0.6-1.3-1.3v-2.4c0-0.7,0.6-1.3,1.3-1.3h10.7c0.7,0,1.3,0.6,1.3,1.3v2.4
			C56.5,35.8,56,36.4,55.3,36.4z"/>
		<path class="st1" d="M47.5,24.8v6.6h5.2v-6.6C52.7,24.8,50.6,23.8,47.5,24.8z"/>
		<path class="st1" d="M45.2,22.4c0,0,7-2.3,16.4-0.3c0,0,1.8,0.8,0.4,2.7c0,0-6.6-1.2-9.4,0c0,0-2.4-1.1-5.2,0
			C47.5,24.8,43.3,25.4,45.2,22.4z"/>
		<path class="st1" d="M52.7,78.7h-9.4c0,0-1.9,0.4-1.9-3.3L36,58c0,0-5.2-14.2,5.1-18.4c0,0,4.1-0.3,3.5-3.2h10.7
			c0,0,0.5,2.8,2.2,2.8c0,0,6.6,1.7,7.4,8.6l-4.1,29.4c0,0-0.8,2.2-3.3,1.5H52.7z"/>
		<path class="st1" d="M58.5,38.1c0,0-4.1,5.7,0,6C58.5,44.1,62.1,44.5,58.5,38.1z"/>
	</g>
</g>
</svg>
