<?xml version="1.0" encoding="utf-8"?>
<!-- Generator: Adobe Illustrator 26.0.0, SVG Export Plug-In . SVG Version: 6.00 Build 0)  -->
<svg version="1.1" id="Capa_1" xmlns="http://www.w3.org/2000/svg" xmlns:xlink="http://www.w3.org/1999/xlink" x="0px" y="0px"
	 width="100px" height="100px" viewBox="0 0 100 100" style="enable-background:new 0 0 100 100;" xml:space="preserve">
<style type="text/css">
	.st0{fill:#C1C1C1;stroke:#000000;stroke-width:0.9624;stroke-linecap:round;stroke-linejoin:round;stroke-miterlimit:10;}
	.st1{fill:#FFFFFF;stroke:#000000;stroke-width:0.9519;stroke-linecap:round;stroke-linejoin:round;stroke-miterlimit:10;}
	.st2{fill:none;stroke:#000000;stroke-width:0.9519;stroke-linecap:round;stroke-linejoin:round;stroke-miterlimit:10;}
</style>
<g>
	<circle class="st0" cx="50" cy="50" r="45.6"/>
	<g>
		<g>
			<path class="st1" d="M38.5,52.7h25.4c0,0,5.9-1.5,4.9-9.4c0,0-0.3-27-16.8-26.9c0,0-20.8-3.2-19,29.1
				C32.9,45.5,32.1,52.1,38.5,52.7z"/>
			<path class="st1" d="M34.6,68.2h32.8c0,0,4.7-8.1-3-12.3H37.1C37.1,55.9,29.1,60.3,34.6,68.2z"/>
		</g>
		<g>
			<line class="st2" x1="50.8" y1="71.7" x2="50.8" y2="83.6"/>
			<path class="st2" d="M28.7,83.6c0,0,19.2-12.1,44,0"/>
			<polyline class="st2" points="71.6,62.1 77.5,62.1 77.5,48.2 81.5,48.2 			"/>
			<polyline class="st2" points="28.4,62.1 22.5,62.1 22.5,48.2 18.5,48.2 			"/>
		</g>
	</g>
</g>
</svg>
