<?xml version="1.0" encoding="utf-8"?>
<!-- Generator: Adobe Illustrator 26.0.0, SVG Export Plug-In . SVG Version: 6.00 Build 0)  -->
<!DOCTYPE svg PUBLIC "-//W3C//DTD SVG 1.1//EN" "http://www.w3.org/Graphics/SVG/1.1/DTD/svg11.dtd" [
	<!ENTITY st0 "fill:#D1D35B;">
	<!ENTITY st1 "fill:#FFFFFF;">
]>
<svg version="1.1" id="Capa_1" xmlns="http://www.w3.org/2000/svg" xmlns:xlink="http://www.w3.org/1999/xlink" x="0px" y="0px"
	 width="80px" height="80px" viewBox="0 0 80 80" style="enable-background:new 0 0 80 80;" xml:space="preserve">
<g>
	<circle style="&st0;" cx="40" cy="40" r="37.8"/>
	<g>
		<path d="M16.8,47.5c-0.8,0-1.5,0-2.2,0c-0.7,0-1.2-0.3-1.1-0.9c0.1-0.6,0.5-0.8,1.1-0.8c0.7,0,1.4,0,2.2,0c0-0.5,0-1.1,0-1.7
			c-0.7,0-1.5,0-2.2,0c-0.7,0-1.1-0.3-1.1-0.8c0.1-0.6,0.5-0.8,1-0.8c0.7,0,1.5,0,2.2,0c0-0.6,0-1.1,0-1.7c-0.7,0-1.4,0-2.1,0
			c-0.7,0-1.2-0.3-1.2-0.8c0-0.5,0.4-0.8,1.1-0.9c0.7,0,1.4,0,2.1,0c0-0.6,0-1.1,0-1.7c-0.8,0-1.5,0-2.3,0c-0.6,0-1-0.2-1-0.8
			c0-0.6,0.4-0.8,1-0.8c0.7,0,1.5,0,2.2,0c0-0.5,0-1.1,0-1.7c-0.7,0-1.4,0-2.1,0c-0.7,0-1.2-0.3-1.1-0.8c0-0.5,0.4-0.8,1.2-0.8
			c0.7,0,1.4,0,2.1,0c0-0.5,0-1,0-1.7c-0.7,0-1.5,0-2.2,0c-0.7,0-1.1-0.3-1.1-0.8c0.1-0.6,0.5-0.8,1-0.8c0.7,0,1.5,0,2.2,0
			c0-0.6,0-1.1,0-1.7c-0.7,0-1.5,0-2.2,0c-0.6,0-1-0.2-1-0.8c-0.1-0.5,0.4-0.9,1.1-0.9c0.7,0,1.5,0,2.2,0c0-0.6,0-1.1,0-1.6
			c-0.7,0-1.4,0-2.1,0c-0.8,0-1.2-0.3-1.1-0.8c0.1-0.7,0.5-0.8,1.1-0.8c16.9,0,33.9,0,50.8,0c0.7,0,1.1,0.3,1.1,0.8
			c0,0.7-0.5,0.8-1.1,0.8c-0.7,0-1.4,0-2.2,0c0,0.6,0,1.1,0,1.6c0.7,0,1.5,0,2.2,0c0.7,0,1.1,0.3,1.1,0.8c0,0.6-0.3,0.8-1.1,0.8
			c-0.7,0-1.4,0-2.2,0c0,0.6,0,1.1,0,1.7c0.7,0,1.5,0,2.2,0c0.6,0,1,0.2,1,0.8c0,0.6-0.4,0.8-1,0.8c-0.7,0-1.5,0-2.2,0
			c0,0.6,0,1.1,0,1.7c0.7,0,1.4,0,2.2,0c0.6,0,1,0.1,1.1,0.8c0,0.6-0.3,0.8-1,0.8c-0.7,0-1.4,0-2.2,0c0,0.6,0,1.1,0,1.7
			c0.8,0,1.5,0,2.3,0c0.5,0,0.9,0.2,1,0.8c0,0.6-0.4,0.9-1,0.8c-0.7,0-1.5,0-2.3,0c0,0.6,0,1.1,0,1.7c0.7,0,1.4,0,2.2,0
			c0.6,0,1,0.1,1.1,0.8c0,0.6-0.3,0.9-1.1,0.9c-0.7,0-1.4,0-2.1,0c0,0.6,0,1,0,1.6c0.7,0,1.4,0,2.1,0c0.6,0,1.1,0.1,1.1,0.8
			c0,0.6-0.3,0.8-1.1,0.8c-0.7,0-1.4,0-2.1,0c0,0.6,0,1.1,0,1.7c0.8,0,1.5,0,2.2,0c0.6,0,1,0.2,1,0.8c0,0.6-0.4,0.8-0.9,0.8
			c-0.7,0-1.5,0-2.3,0c0,0.6,0,1.1,0,1.7c0.8,0,1.5,0,2.3,0c0.6,0,1,0.2,1,0.8c0,0.6-0.4,0.8-0.9,0.8c-0.7,0-1.5,0-2.3,0
			c0,0.6,0,1.1,0,1.7c0.8,0,1.5,0,2.3,0c0.5,0,0.9,0.2,1,0.8c0,0.6-0.4,0.9-0.9,0.9c-0.7,0-1.5,0-2.3,0c0,0.5,0,1,0,1.6
			c0.8,0,1.6,0,2.3,0c0.7,0,1.1,0.6,0.8,1.1c-0.1,0.2-0.4,0.4-0.7,0.5c-0.3,0.1-0.7,0-1,0c-16.6,0-33.2,0-49.8,0c-0.1,0-0.2,0-0.4,0
			c-0.7,0-1.1-0.3-1.1-0.8c0.1-0.7,0.5-0.8,1.1-0.8c0.7,0,1.4,0,2.2,0c0-0.6,0-1.1,0-1.6c-0.7,0-1.5,0-2.2,0c-0.6,0-1-0.2-1.1-0.8
			c-0.1-0.5,0.4-0.9,1.1-0.9c0.7,0,1.4,0,2.1,0c0-0.6,0-1.1,0-1.6c-0.8,0-1.5,0-2.2,0c-0.7,0-1.1-0.3-1.1-0.8c0-0.7,0.5-0.8,1.1-0.8
			c0.7,0,1.4,0,2.2,0C16.8,48.6,16.8,48.1,16.8,47.5z M18.5,55.7c14.4,0,28.6,0,42.9,0c0-10.5,0-21,0-31.4c-14.3,0-28.6,0-42.9,0
			C18.5,34.8,18.5,45.2,18.5,55.7z"/>
		<path style="&st1;" d="M18.5,55.7c0-10.5,0-20.9,0-31.4c14.3,0,28.6,0,42.9,0c0,10.5,0,20.9,0,31.4C47.2,55.7,32.9,55.7,18.5,55.7
			z M40,53.3c5.9,0,11.8,0,17.6,0c1.2,0,1.4-0.2,1.4-1.4c0-7.9,0-15.9,0-23.8c0-1.2-0.2-1.4-1.3-1.4c-11.8,0-23.6,0-35.4,0
			c-1.1,0-1.3,0.2-1.3,1.3c0,8,0,15.9,0,23.9c0,1.2,0.2,1.4,1.3,1.4C28.2,53.3,34.1,53.3,40,53.3z"/>
		<path d="M40,53.3c-5.9,0-11.8,0-17.7,0c-1.1,0-1.3-0.2-1.3-1.4c0-8,0-15.9,0-23.9c0-1.1,0.2-1.3,1.3-1.3c11.8,0,23.6,0,35.4,0
			c1.1,0,1.3,0.2,1.3,1.4c0,7.9,0,15.9,0,23.8c0,1.2-0.2,1.4-1.4,1.4C51.8,53.3,45.9,53.3,40,53.3z M55.9,40
			c-0.1-0.1-0.2-0.1-0.3-0.2c-5.1-3.4-10.2-6.8-15.3-10.2c-0.4-0.3-0.6-0.1-0.9,0.1c-4.9,3.3-9.9,6.6-14.8,9.9
			c-0.2,0.1-0.3,0.2-0.5,0.4c5.2,3.5,10.4,6.9,15.5,10.3c0.2,0.1,0.5,0.1,0.7,0c0.9-0.6,1.8-1.2,2.8-1.8
			C47.4,45.7,51.6,42.9,55.9,40z M22.7,28.4c0,3.5,0,7,0,10.5c5.3-3.5,10.4-7,15.6-10.4c0,0-0.1-0.1-0.1-0.1
			C33,28.4,27.9,28.4,22.7,28.4z M38.5,51.6c-5.4-3.6-10.5-7-15.8-10.5c0,3.6,0,7.1,0,10.5C27.9,51.6,33.1,51.6,38.5,51.6z
			 M57.3,28.5c-5.2,0-10.4,0-15.7,0c5.3,3.5,10.5,7,15.7,10.5C57.3,35.4,57.3,31.9,57.3,28.5z M57.3,51.6c0-3.5,0-7,0-10.5
			c-5.3,3.5-10.4,7-15.6,10.4c0,0,0,0.1,0.1,0.1C47,51.6,52.1,51.6,57.3,51.6z"/>
		<path style="&st1;" d="M55.9,40c-4.3,2.9-8.5,5.7-12.7,8.5c-0.9,0.6-1.8,1.2-2.8,1.8c-0.2,0.1-0.6,0.1-0.7,0
			c-5.2-3.4-10.3-6.9-15.5-10.3c0.2-0.2,0.3-0.3,0.5-0.4c4.9-3.3,9.9-6.6,14.8-9.9c0.3-0.2,0.5-0.3,0.9-0.1
			c5.1,3.4,10.2,6.8,15.3,10.2C55.7,39.9,55.7,39.9,55.9,40z M50.9,40c-0.3-0.3-0.5-0.6-0.7-0.8c-3.2-2.1-6.3-4.2-9.5-6.4
			c-0.5-0.3-0.9-0.3-1.4,0c-1.3,0.9-2.6,1.8-3.9,2.6c-1.8,1.2-3.7,2.4-5.5,3.7c-0.8,0.6-0.8,1.1,0,1.7c0.3,0.2,0.5,0.3,0.8,0.5
			c2.9,1.9,5.7,3.8,8.6,5.8c0.4,0.3,0.8,0.5,1.3,0.2c3.3-2.2,6.5-4.4,9.8-6.6C50.5,40.6,50.7,40.3,50.9,40z"/>
		<path style="&st1;" d="M22.7,28.4c5.2,0,10.4,0,15.5,0c0,0,0.1,0.1,0.1,0.1C33.1,32,27.9,35.4,22.7,39
			C22.7,35.4,22.7,31.9,22.7,28.4z"/>
		<path style="&st1;" d="M38.5,51.6c-5.4,0-10.6,0-15.8,0c0-3.5,0-6.9,0-10.5C27.9,44.5,33.1,48,38.5,51.6z"/>
		<path style="&st1;" d="M57.3,28.5c0,3.5,0,6.9,0,10.5c-5.3-3.5-10.4-7-15.7-10.5C46.9,28.5,52.1,28.5,57.3,28.5z"/>
		<path style="&st1;" d="M57.3,51.6c-5.2,0-10.4,0-15.6,0c0,0,0-0.1-0.1-0.1C46.9,48,52.1,44.5,57.3,41C57.3,44.6,57.3,48,57.3,51.6
			z"/>
		<path d="M50.9,40c-0.2,0.3-0.4,0.6-0.6,0.8c-3.3,2.2-6.5,4.4-9.8,6.6c-0.5,0.3-0.9,0.1-1.3-0.2c-2.9-1.9-5.7-3.8-8.6-5.8
			c-0.3-0.2-0.5-0.3-0.8-0.5c-0.8-0.6-0.8-1.1,0-1.7c1.8-1.2,3.7-2.5,5.5-3.7c1.3-0.9,2.6-1.7,3.9-2.6c0.5-0.3,0.9-0.4,1.4,0
			c3.2,2.1,6.3,4.2,9.5,6.4C50.4,39.3,50.6,39.7,50.9,40z M48.4,40c-2.8-1.8-5.4-3.6-8.1-5.4c-0.4-0.3-0.6-0.1-0.9,0.1
			c-2.4,1.6-4.9,3.2-7.3,4.9c-0.2,0.1-0.4,0.3-0.5,0.4c0.1,0.1,0.1,0.1,0.1,0.2c2.6,1.8,5.3,3.5,7.9,5.3c0.2,0.1,0.5,0.1,0.7,0
			c0.8-0.5,1.6-1.1,2.4-1.6C44.6,42.5,46.5,41.3,48.4,40z"/>
		<path style="&st1;" d="M48.4,40c-2,1.3-3.8,2.5-5.7,3.8c-0.8,0.5-1.6,1.1-2.4,1.6c-0.2,0.1-0.5,0.1-0.7,0
			c-2.7-1.7-5.3-3.5-7.9-5.3c0,0,0-0.1-0.1-0.2c0.2-0.1,0.4-0.3,0.5-0.4c2.4-1.6,4.9-3.2,7.3-4.9c0.3-0.2,0.5-0.4,0.9-0.1
			C43,36.4,45.7,38.1,48.4,40z"/>
	</g>
</g>
</svg>
