<?xml version="1.0" encoding="utf-8"?>
<!-- Generator: Adobe Illustrator 26.0.0, SVG Export Plug-In . SVG Version: 6.00 Build 0)  -->
<svg version="1.1" id="Capa_1" xmlns="http://www.w3.org/2000/svg" xmlns:xlink="http://www.w3.org/1999/xlink" x="0px" y="0px"
	 width="100px" height="100px" viewBox="0 0 100 100" style="enable-background:new 0 0 100 100;" xml:space="preserve">
<style type="text/css">
	.st0{fill:#3FFF00;stroke:#000000;stroke-miterlimit:10;}
</style>
<g>
	<circle class="st0" cx="50" cy="50" r="44.8"/>
	<path d="M23.3,54c0.2-0.4,0.3-0.8,0.5-1.1c0.5-1.1,1.2-2.1,2.2-2.8c1.3-0.9,2.8-1.1,4.3-0.8c1.6,0.3,2.9,1.1,4.1,2.2
		c2.5,2.3,4.1,5.1,4.7,8.4c0,0.1,0,0.2,0,0.3c0,0.1,0,0.2,0.1,0.3c0-0.1,0.1-0.2,0.1-0.2c2.9-7.4,6.9-14.1,12.3-20
		c2.7-3,5.6-5.6,8.9-7.9c2.4-1.7,5-3.1,7.8-4.2c2.7-1.1,5.4-1.8,8.3-2.1c0.1,0,0.2,0,0.3,0c0,0-0.1,0.1-0.1,0.1
		c-4.6,2.5-8.7,5.6-12.4,9.2c-3,3-5.7,6.3-8.1,9.8c-2.4,3.5-4.4,7.1-6.3,10.8c-1.5,3-3,6-4.6,9c-1,2-2.1,4-3.5,5.8
		c-0.8,1.2-1.8,2.3-3,3.1c-0.6,0.4-0.4,0.4-0.9,0c-1-0.8-1.7-1.8-2.3-3c-0.8-1.4-1.3-3-1.8-4.5c-0.6-1.9-1.3-3.7-2-5.6
		c-0.5-1.3-1.1-2.6-2-3.7c-0.9-1.2-2-2.1-3.5-2.6c-0.8-0.3-1.7-0.4-2.6-0.3C23.5,54,23.4,54,23.3,54z"/>
</g>
</svg>
