<?xml version="1.0" encoding="utf-8"?>
<!-- Generator: Adobe Illustrator 26.0.0, SVG Export Plug-In . SVG Version: 6.00 Build 0)  -->
<!DOCTYPE svg PUBLIC "-//W3C//DTD SVG 1.1//EN" "http://www.w3.org/Graphics/SVG/1.1/DTD/svg11.dtd" [
	<!ENTITY st0 "fill:#88DDFF;">
	<!ENTITY st1 "fill:#040404;">
	<!ENTITY st2 "fill:#FDFDFD;">
]>
<svg version="1.1" id="Capa_1" xmlns="http://www.w3.org/2000/svg" xmlns:xlink="http://www.w3.org/1999/xlink" x="0px" y="0px"
	 width="80px" height="80px" viewBox="0 0 80 80" style="enable-background:new 0 0 80 80;" xml:space="preserve">
<g>
	<circle style="&st0;" cx="40" cy="40" r="36.8"/>
	<g>
		<path style="&st1;" d="M23.7,42.9c0-5.2,0-10.5,0-15.7c0-2.5,1.5-4,4-4c0.6,0,1.1,0,1.7,0c0.6,0,0.8-0.1,0.7-0.7
			c0-1.4,0-2.9,0-4.3c0-1.1,0.4-2.2,1.1-3c0.7-0.8,1.5-1.2,2.6-1.2c5,0,10,0,14.9,0c2.1,0,3.4,1.4,3.6,3.7c0.1,1.2,0.1,1.2-1.1,1.2
			c-1.3,0-2.6,0-4,0c-0.5,0-0.6,0.1-0.6,0.6c0,1,0,2.1,0,3.1c0,0.5,0.2,0.6,0.6,0.6c0.7,0,1.4,0,2,0c2.1,0,3.6,1.6,3.7,3.7
			c0,2,0,4.1,0,6.1c0,8.4,0,16.8,0,25.2c0,3-1.4,5-4,6.2c-2,0.9-4.1,1.3-6.2,1.5c-4.2,0.4-8.5,0.4-12.7-0.7
			c-1.8-0.4-3.4-1.1-4.8-2.4c-1.1-1.1-1.6-2.3-1.6-3.9C23.7,53.6,23.7,48.2,23.7,42.9C23.7,42.9,23.7,42.9,23.7,42.9z M38.3,39.4
			c3.5,0,7,0,10.5,0c0.5,0,0.7-0.1,0.7-0.7c0-2.9,0-5.8,0-8.6c0-0.5-0.1-0.7-0.7-0.7c-7,0-14,0-21,0c-0.5,0-0.6,0.1-0.6,0.6
			c0,2.9,0,5.8,0,8.7c0,0.5,0.1,0.6,0.7,0.6C31.4,39.4,34.8,39.4,38.3,39.4z M46,15.5c-0.1,0-0.1-0.1-0.2-0.1c-4,0-8,0-11.9,0
			c-0.7,0-1.3,0.3-1.6,0.9c-0.5,0.7-0.6,1.5-0.6,2.3c0,1.9,0,3.8,0,5.6c0,0.5,0.1,0.7,0.7,0.7c4,0,8,0,11.9,0c0.8,0,0.9-0.2,1-0.9
			C45.3,21.2,44.6,18.2,46,15.5z M38.4,56.5c-0.5,0-0.9,0-1.4,0c-2.2,0-2.3,0-2.2,2.3c0,0.8,0.3,1.1,1.1,1.1c1.2,0,2.4,0,3.6,0
			c2.3,0,2.3,0,2.2-2.3c0,0,0,0,0-0.1c0-0.7-0.3-1-1-1C40,56.5,39.2,56.5,38.4,56.5z M30.5,56.5c-0.7,0-1.4,0-2,0
			c-0.7,0-0.9,0.4-0.8,1c0.2,0.7,0.5,1.2,1.2,1.6c1.2,0.6,2.5,0.8,3.8,0.8c0.5,0,0.6-0.3,0.6-0.7c0-0.6,0-1.2,0-1.8
			c0-0.6-0.3-0.8-0.9-0.8C31.9,56.5,31.2,56.5,30.5,56.5z M46.2,56.5C46.2,56.4,46.2,56.4,46.2,56.5c-0.7,0-1.4,0-2,0
			c-0.5,0-0.8,0.3-0.8,0.8c0,0.6,0,1.3,0,1.9c0,0.4,0.2,0.7,0.6,0.7c1.4,0,2.7-0.2,3.9-0.8c0.6-0.3,0.9-0.8,1.1-1.4
			c0.3-0.8,0-1.2-0.8-1.2C47.5,56.4,46.9,56.5,46.2,56.5z M41.3,50.4c0.3,0,0.7,0,1,0c0.8,0,1.2-0.4,1.2-1.2c0-0.3,0-0.6,0-0.9
			c-0.1-0.6-0.4-1-1-1c-0.8,0-1.6,0-2.4,0c-0.6,0-0.9,0.3-1,0.9c-0.1,1.4-0.2,2.4,1.8,2.2C41,50.4,41.1,50.4,41.3,50.4z M35.3,50.4
			C35.3,50.4,35.3,50.4,35.3,50.4c0.4,0,0.7,0,1.1,0c0.8,0,1.1-0.4,1.2-1.1c0-0.4,0-0.7,0-1.1c-0.1-0.6-0.4-0.9-1-0.9
			c-0.8,0-1.7,0-2.5,0c-0.6,0-0.9,0.4-1,0.9c-0.3,1.7,0.1,2.2,1.8,2.2C35,50.4,35.2,50.4,35.3,50.4z M41.3,51.8
			C41.3,51.8,41.3,51.9,41.3,51.8c-0.4,0-0.7,0-1.1,0c-0.7,0-1.1,0.4-1.1,1.1c0,0.4,0,0.7,0,1.1c0.1,0.6,0.4,0.9,1,0.9
			c0.8,0,1.6,0,2.3,0c0.7,0,1-0.4,1.1-1c0.2-1.7-0.1-2.1-1.9-2.1C41.5,51.8,41.4,51.8,41.3,51.8z M41.2,45.9c0.4,0,0.7,0,1.1,0
			c0.8,0,1.1-0.4,1.2-1.2c0-0.3,0-0.6,0-0.9c-0.1-0.7-0.4-1-1.1-1.1c-0.8,0-1.6,0-2.3,0c-0.6,0-1,0.4-1.1,1
			c-0.2,1.6,0.2,2.1,1.8,2.1C41,45.9,41.1,45.9,41.2,45.9z M35.4,51.8C35.4,51.8,35.4,51.9,35.4,51.8c-0.4,0-0.8,0-1.2,0
			c-0.7,0-1.1,0.4-1.1,1.1c0,0.3,0,0.6,0,0.9c0,0.7,0.4,1,1.1,1.1c0.8,0,1.6,0,2.3,0c0.7,0,1-0.4,1.1-1c0.2-1.7-0.2-2-1.8-2
			C35.6,51.8,35.5,51.8,35.4,51.8z M29.3,55c0.3,0,0.7,0,1,0c0.6,0,1.1-0.2,1.2-0.8c0.2-0.9,0.2-1.8-0.5-2.1
			c-0.1-0.1-0.3-0.1-0.5-0.1c-0.8,0-1.6,0-2.4,0c-0.6,0-1,0.4-1.1,1C26.9,54.5,27.3,55,29,55C29.1,55,29.2,55,29.3,55z M35.3,42.8
			C35.3,42.8,35.3,42.8,35.3,42.8c-0.3,0-0.7,0-1,0c-0.6,0-1,0.2-1.2,0.9c-0.2,1.1,0,1.9,0.6,2.2c0.1,0,0.2,0.1,0.3,0.1
			c0.9,0,1.8,0,2.6,0c0.5,0,0.8-0.3,0.9-0.7c0.2-1.7,0.1-2.5-1.7-2.3C35.6,42.8,35.5,42.8,35.3,42.8z M29.3,50.4
			C29.3,50.4,29.3,50.4,29.3,50.4c0.3,0,0.7,0,1,0c0.6,0,1.1-0.2,1.2-0.8c0.2-0.9,0.1-1.8-0.5-2.1c-0.1-0.1-0.3-0.1-0.5-0.1
			c-0.8,0-1.6,0-2.4,0c-0.6,0-1,0.4-1.1,1c-0.2,1.7,0.2,2.1,1.9,2.1C29.1,50.4,29.2,50.4,29.3,50.4z M29.3,45.9c0.3,0,0.7,0,1,0
			c0.7,0,1.1-0.3,1.2-0.9c0.2-1,0-1.8-0.6-2.1c-0.1-0.1-0.3-0.1-0.4-0.1c-0.8,0-1.6,0-2.4,0c-0.6,0-1,0.4-1,1
			c-0.2,1.7,0.2,2.1,1.9,2.1C29.1,45.9,29.2,45.9,29.3,45.9z M47.2,50.4C47.2,50.4,47.2,50.4,47.2,50.4c0.4,0,0.8,0,1.2,0
			c0.7,0,1.1-0.4,1.1-1.1c0-0.3,0-0.6,0-0.9c-0.1-0.6-0.4-1-1-1c-0.8,0-1.7,0-2.5,0c-0.6,0-0.9,0.4-1,0.9c-0.3,1.6,0.2,2.2,1.8,2.2
			C46.9,50.4,47,50.4,47.2,50.4z M47.2,45.9c0.4,0,0.7,0,1.1,0c0.8,0,1.2-0.4,1.2-1.2c0-0.2,0-0.5,0-0.7c0-0.7-0.4-1.1-1.1-1.2
			c-0.6,0-1.2,0-1.8,0c-1.3,0-1.6,0.3-1.6,1.6c0,1.2,0.3,1.5,1.6,1.5C46.7,45.9,47,45.9,47.2,45.9z M47.3,51.8c-0.4,0-0.7,0-1.1,0
			c-0.7,0-1.1,0.3-1.2,0.9c-0.2,1,0,1.8,0.6,2.1c0.1,0.1,0.3,0.1,0.4,0.1c0.8,0,1.6,0,2.4,0c0.6,0,1-0.4,1-1
			c0.1-1.4,0.2-2.2-1.8-2.1C47.5,51.9,47.4,51.8,47.3,51.8z"/>
		<path style="&st1;" d="M54.4,44.3c0-4.8,0-9.5,0-14.3c0-0.8,0.1-0.9,0.9-0.5c0.6,0.3,1,0.8,1,1.5c0,0.5,0,1,0,1.5
			c0,8.2,0,16.3,0,24.5c0,0.9-0.3,1.6-1.1,2.1c-0.6,0.3-0.8,0.2-0.8-0.5C54.4,53.9,54.4,49.1,54.4,44.3z"/>
		<path style="&st2;" d="M38.3,39.4c-3.5,0-7,0-10.5,0c-0.5,0-0.7-0.1-0.7-0.6c0-2.9,0-5.8,0-8.7c0-0.5,0.2-0.6,0.6-0.6
			c7,0,14,0,21,0c0.5,0,0.7,0.1,0.7,0.7c0,2.9,0,5.8,0,8.6c0,0.6-0.2,0.7-0.7,0.7C45.3,39.4,41.8,39.4,38.3,39.4z"/>
		<path style="&st2;" d="M46,15.5c-1.3,2.7-0.7,5.7-0.8,8.6c0,0.8-0.2,0.9-1,0.9c-4,0-8,0-11.9,0c-0.6,0-0.7-0.1-0.7-0.7
			c0-1.9,0-3.8,0-5.6c0-0.8,0.2-1.6,0.6-2.3c0.4-0.6,0.9-0.9,1.6-0.9c4,0,8,0,11.9,0C45.9,15.4,45.9,15.4,46,15.5z"/>
		<path style="&st2;" d="M38.4,56.5c0.8,0,1.6,0,2.4,0c0.7,0,1,0.3,1,1c0,0,0,0,0,0.1c0.1,2.3,0.1,2.3-2.2,2.3c-1.2,0-2.4,0-3.6,0
			c-0.8,0-1.1-0.3-1.1-1.1c-0.1-2.3-0.1-2.3,2.2-2.3C37.5,56.5,38,56.5,38.4,56.5z"/>
		<path style="&st2;" d="M30.5,56.5c0.7,0,1.3,0,2,0c0.6,0,0.9,0.3,0.9,0.8c0,0.6,0,1.2,0,1.8c0,0.4-0.2,0.7-0.6,0.7
			c-1.3,0-2.6-0.2-3.8-0.8c-0.6-0.3-1-0.9-1.2-1.6c-0.1-0.6,0.1-1,0.8-1C29.2,56.4,29.9,56.5,30.5,56.5z"/>
		<path style="&st2;" d="M46.2,56.5c0.6,0,1.3,0,1.9,0c0.8,0,1.1,0.4,0.8,1.2c-0.2,0.6-0.5,1.1-1.1,1.4c-1.2,0.6-2.5,0.8-3.9,0.8
			c-0.4,0-0.6-0.3-0.6-0.7c0-0.6,0-1.3,0-1.9c0-0.5,0.3-0.8,0.8-0.8C44.9,56.4,45.6,56.4,46.2,56.5C46.2,56.4,46.2,56.4,46.2,56.5z"
			/>
		<path style="&st2;" d="M41.3,50.4c-0.1,0-0.3,0-0.4,0c-2,0.2-1.9-0.8-1.8-2.2c0-0.5,0.4-0.9,1-0.9c0.8,0,1.6,0,2.4,0
			c0.6,0,1,0.4,1,1c0,0.3,0,0.6,0,0.9c0,0.8-0.4,1.2-1.2,1.2C42,50.4,41.6,50.4,41.3,50.4z"/>
		<path style="&st2;" d="M35.3,50.4c-0.1,0-0.2,0-0.4,0c-1.7,0-2.1-0.5-1.8-2.2c0.1-0.6,0.4-0.9,1-0.9c0.8,0,1.7,0,2.5,0
			c0.6,0,0.9,0.3,1,0.9c0.1,0.4,0.1,0.7,0,1.1c0,0.7-0.4,1.1-1.2,1.1C36,50.4,35.7,50.4,35.3,50.4C35.3,50.4,35.3,50.4,35.3,50.4z"
			/>
		<path style="&st2;" d="M41.3,51.8c0.1,0,0.2,0,0.4,0c1.7,0,2,0.3,1.9,2.1c-0.1,0.6-0.4,1-1.1,1c-0.8,0-1.6,0-2.3,0
			c-0.6,0-1-0.3-1-0.9c0-0.4-0.1-0.7,0-1.1c0-0.7,0.5-1,1.1-1.1C40.5,51.8,40.9,51.9,41.3,51.8C41.3,51.9,41.3,51.8,41.3,51.8z"/>
		<path style="&st2;" d="M41.2,45.9c-0.1,0-0.2,0-0.4,0c-1.7,0-2.1-0.5-1.8-2.1c0.1-0.6,0.4-1,1.1-1c0.8,0,1.6,0,2.3,0
			c0.7,0,1,0.4,1.1,1.1c0,0.3,0,0.6,0,0.9c0,0.8-0.4,1.1-1.2,1.2C42,45.9,41.6,45.9,41.2,45.9z"/>
		<path style="&st2;" d="M35.4,51.8c0.1,0,0.2,0,0.4,0c1.7,0,2,0.4,1.8,2c-0.1,0.7-0.4,1-1.1,1c-0.8,0-1.6,0-2.3,0
			c-0.7,0-1-0.4-1.1-1.1c0-0.3,0-0.6,0-0.9c0-0.7,0.4-1.1,1.1-1.1C34.6,51.8,35,51.9,35.4,51.8C35.4,51.9,35.4,51.8,35.4,51.8z"/>
		<path style="&st2;" d="M29.3,55c-0.1,0-0.2,0-0.4,0c-1.7,0-2.1-0.5-1.9-2.1c0.1-0.6,0.4-1,1.1-1c0.8,0,1.6,0,2.4,0
			c0.2,0,0.3,0.1,0.5,0.1c0.7,0.3,0.6,1.2,0.5,2.1C31.5,54.7,31,55,30.4,55C30,54.9,29.7,55,29.3,55z"/>
		<path style="&st2;" d="M35.3,42.8c0.2,0,0.3,0,0.5,0c1.8-0.2,1.9,0.7,1.7,2.3c-0.1,0.4-0.4,0.7-0.9,0.7c-0.9,0-1.8,0-2.6,0
			c-0.1,0-0.2,0-0.3-0.1c-0.6-0.3-0.8-1.1-0.6-2.2c0.1-0.6,0.6-0.9,1.2-0.9C34.6,42.8,34.9,42.8,35.3,42.8
			C35.3,42.8,35.3,42.8,35.3,42.8z"/>
		<path style="&st2;" d="M29.3,50.4c-0.1,0-0.2,0-0.4,0c-1.7,0-2.1-0.4-1.9-2.1c0.1-0.6,0.4-1,1.1-1c0.8,0,1.6,0,2.4,0
			c0.2,0,0.3,0.1,0.5,0.1c0.6,0.3,0.7,1.2,0.5,2.1c-0.1,0.6-0.6,0.9-1.2,0.8C30,50.4,29.7,50.4,29.3,50.4
			C29.3,50.4,29.3,50.4,29.3,50.4z"/>
		<path style="&st2;" d="M29.3,45.9c-0.1,0-0.2,0-0.4,0c-1.7,0-2.1-0.4-1.9-2.1c0.1-0.6,0.4-1,1-1c0.8,0,1.6,0,2.4,0
			c0.1,0,0.3,0,0.4,0.1c0.6,0.3,0.8,1.1,0.6,2.1c-0.1,0.6-0.6,0.9-1.2,0.9C30,45.9,29.7,45.9,29.3,45.9z"/>
		<path style="&st2;" d="M47.2,50.4c-0.1,0-0.2,0-0.4,0c-1.6,0-2.1-0.6-1.8-2.2c0.1-0.5,0.4-0.9,1-0.9c0.8,0,1.7,0,2.5,0
			c0.6,0,0.9,0.4,1,1c0,0.3,0,0.6,0,0.9c0,0.7-0.4,1.1-1.1,1.1C48,50.4,47.6,50.4,47.2,50.4C47.2,50.4,47.2,50.4,47.2,50.4z"/>
		<path style="&st2;" d="M47.2,45.9c-0.2,0-0.4,0-0.7,0c-1.3,0-1.6-0.3-1.6-1.5c0-1.3,0.3-1.6,1.6-1.6c0.6,0,1.2,0,1.8,0
			c0.7,0,1.1,0.4,1.1,1.2c0,0.2,0,0.5,0,0.7c0,0.8-0.4,1.2-1.2,1.2C47.9,45.9,47.6,45.9,47.2,45.9z"/>
		<path style="&st2;" d="M47.3,51.8c0.1,0,0.2,0,0.4,0c2-0.1,1.9,0.7,1.8,2.1c0,0.6-0.4,1-1,1c-0.8,0-1.6,0-2.4,0
			c-0.1,0-0.3,0-0.4-0.1c-0.6-0.3-0.8-1-0.6-2.1c0.1-0.6,0.5-1,1.2-0.9C46.5,51.9,46.9,51.8,47.3,51.8z"/>
	</g>
</g>
</svg>
