<?xml version="1.0" encoding="utf-8"?>
<!-- Generator: Adobe Illustrator 26.0.0, SVG Export Plug-In . SVG Version: 6.00 Build 0)  -->
<!DOCTYPE svg PUBLIC "-//W3C//DTD SVG 1.1//EN" "http://www.w3.org/Graphics/SVG/1.1/DTD/svg11.dtd" [
	<!ENTITY st0 "fill:#6CFF6C;">
	
		<!ENTITY st1 "fill:#FFFFFF;stroke:#000000;stroke-width:0.7984;stroke-linecap:round;stroke-linejoin:round;stroke-miterlimit:10;">
]>
<svg version="1.1" id="Capa_1" xmlns="http://www.w3.org/2000/svg" xmlns:xlink="http://www.w3.org/1999/xlink" x="0px" y="0px"
	 width="80px" height="80px" viewBox="0 0 80 80" style="enable-background:new 0 0 80 80;" xml:space="preserve">
<g>
	<circle style="&st0;" cx="40" cy="40" r="38.2"/>
	<g>
		<path style="&st1;" d="M40.3,15.1c2.1,0,4.6,0.2,7,0.7c5.9,1.1,11.3,3.4,16.2,7c1.4,1,2.6,2.1,3.9,3.2c0.8,0.8,1.3,1.7,1.2,2.8
			c-0.1,1.2-0.6,2.1-1.6,2.8c-1.1,0.7-2.2,0.7-3.3,0.2c-0.5-0.2-0.9-0.5-1.2-0.9c-1.7-1.6-3.5-3-5.5-4.1c-2.2-1.3-4.6-2.4-7-3.2
			c-4.2-1.3-8.5-1.8-12.8-1.4c-3.1,0.3-6.2,1-9.1,2.2c-3.7,1.5-7.1,3.6-10.1,6.3c-0.4,0.4-0.8,0.8-1.3,1c-0.9,0.5-1.9,0.5-2.9,0.1
			c-1.2-0.5-1.9-1.4-2.1-2.7c-0.3-1.4,0.3-2.4,1.3-3.3c3.4-3.2,7.3-5.7,11.6-7.6c2.6-1.1,5.2-1.9,8-2.5c1.6-0.3,3.3-0.5,5-0.6
			C38.2,15.2,39.1,15.1,40.3,15.1z"/>
		<path style="&st1;" d="M39.8,26.8c3.1,0,5.9,0.4,8.6,1.3c3.2,1,6.2,2.6,8.8,4.6c0.9,0.7,1.7,1.4,2.5,2.2c1.1,1.1,1.4,2.4,0.9,3.9
			c-0.4,1.1-1.3,1.8-2.5,2.1c-1.3,0.3-2.3-0.1-3.3-1c-1-0.9-2.1-1.8-3.2-2.6c-1.7-1.1-3.5-1.9-5.3-2.5c-2.7-0.8-5.4-1.1-8.2-0.8
			c-2.1,0.2-4.1,0.7-6.1,1.5c-1.7,0.7-3.2,1.6-4.7,2.7c-0.8,0.6-1.5,1.4-2.3,2c-1.7,1.3-4.1,0.9-5.2-1c-0.8-1.4-0.6-3.1,0.7-4.4
			c2.6-2.5,5.5-4.5,8.9-5.9C32.7,27.5,36.3,26.8,39.8,26.8z"/>
		<path style="&st1;" d="M53,46.3c0,1.9-1.5,3.3-3.3,3.4c-1.1,0.1-2-0.4-2.8-1.2c-0.8-0.9-1.7-1.6-2.8-2.1c-1.8-0.9-3.7-1.1-5.7-0.8
			c-2,0.4-3.7,1.3-5.1,2.8c-0.5,0.6-1.2,1-1.9,1.2c-1.3,0.3-2.4,0-3.3-1c-0.6-0.6-0.9-1.4-1-2.2c0-0.7,0.1-1.4,0.6-2.1
			c0.9-1.2,2.1-2.2,3.3-3c1.8-1.2,3.8-2.1,6-2.5c2.1-0.4,4.2-0.4,6.3,0c3.6,0.7,6.6,2.4,9,5.1C52.8,44.6,53,45.4,53,46.3z"/>
		<path style="&st1;" d="M39.9,64.9c-2.3-0.1-4.5-1-6-3.1c-2-2.8-1.6-6.6,1-8.9c2.9-2.7,7.6-2.7,10.5,0c3.4,3.1,2.8,8.4-1.1,10.8
			C43,64.5,41.6,64.9,39.9,64.9z"/>
	</g>
</g>
</svg>
